G04 #@! TF.GenerationSoftware,KiCad,Pcbnew,5.1.5+dfsg1-2build2*
G04 #@! TF.CreationDate,2021-09-27T21:09:23+08:00*
G04 #@! TF.ProjectId,esp32-cam,65737033-322d-4636-916d-2e6b69636164,rev?*
G04 #@! TF.SameCoordinates,Original*
G04 #@! TF.FileFunction,Paste,Bot*
G04 #@! TF.FilePolarity,Positive*
%FSLAX46Y46*%
G04 Gerber Fmt 4.6, Leading zero omitted, Abs format (unit mm)*
G04 Created by KiCad (PCBNEW 5.1.5+dfsg1-2build2) date 2021-09-27 21:09:23*
%MOMM*%
%LPD*%
G04 APERTURE LIST*
%ADD10C,0.100000*%
G04 APERTURE END LIST*
D10*
G36*
X99534505Y-75871204D02*
G01*
X99558773Y-75874804D01*
X99582572Y-75880765D01*
X99605671Y-75889030D01*
X99627850Y-75899520D01*
X99648893Y-75912132D01*
X99668599Y-75926747D01*
X99686777Y-75943223D01*
X99703253Y-75961401D01*
X99717868Y-75981107D01*
X99730480Y-76002150D01*
X99740970Y-76024329D01*
X99749235Y-76047428D01*
X99755196Y-76071227D01*
X99758796Y-76095495D01*
X99760000Y-76119999D01*
X99760000Y-76770001D01*
X99758796Y-76794505D01*
X99755196Y-76818773D01*
X99749235Y-76842572D01*
X99740970Y-76865671D01*
X99730480Y-76887850D01*
X99717868Y-76908893D01*
X99703253Y-76928599D01*
X99686777Y-76946777D01*
X99668599Y-76963253D01*
X99648893Y-76977868D01*
X99627850Y-76990480D01*
X99605671Y-77000970D01*
X99582572Y-77009235D01*
X99558773Y-77015196D01*
X99534505Y-77018796D01*
X99510001Y-77020000D01*
X98609999Y-77020000D01*
X98585495Y-77018796D01*
X98561227Y-77015196D01*
X98537428Y-77009235D01*
X98514329Y-77000970D01*
X98492150Y-76990480D01*
X98471107Y-76977868D01*
X98451401Y-76963253D01*
X98433223Y-76946777D01*
X98416747Y-76928599D01*
X98402132Y-76908893D01*
X98389520Y-76887850D01*
X98379030Y-76865671D01*
X98370765Y-76842572D01*
X98364804Y-76818773D01*
X98361204Y-76794505D01*
X98360000Y-76770001D01*
X98360000Y-76119999D01*
X98361204Y-76095495D01*
X98364804Y-76071227D01*
X98370765Y-76047428D01*
X98379030Y-76024329D01*
X98389520Y-76002150D01*
X98402132Y-75981107D01*
X98416747Y-75961401D01*
X98433223Y-75943223D01*
X98451401Y-75926747D01*
X98471107Y-75912132D01*
X98492150Y-75899520D01*
X98514329Y-75889030D01*
X98537428Y-75880765D01*
X98561227Y-75874804D01*
X98585495Y-75871204D01*
X98609999Y-75870000D01*
X99510001Y-75870000D01*
X99534505Y-75871204D01*
G37*
G36*
X99534505Y-77921204D02*
G01*
X99558773Y-77924804D01*
X99582572Y-77930765D01*
X99605671Y-77939030D01*
X99627850Y-77949520D01*
X99648893Y-77962132D01*
X99668599Y-77976747D01*
X99686777Y-77993223D01*
X99703253Y-78011401D01*
X99717868Y-78031107D01*
X99730480Y-78052150D01*
X99740970Y-78074329D01*
X99749235Y-78097428D01*
X99755196Y-78121227D01*
X99758796Y-78145495D01*
X99760000Y-78169999D01*
X99760000Y-78820001D01*
X99758796Y-78844505D01*
X99755196Y-78868773D01*
X99749235Y-78892572D01*
X99740970Y-78915671D01*
X99730480Y-78937850D01*
X99717868Y-78958893D01*
X99703253Y-78978599D01*
X99686777Y-78996777D01*
X99668599Y-79013253D01*
X99648893Y-79027868D01*
X99627850Y-79040480D01*
X99605671Y-79050970D01*
X99582572Y-79059235D01*
X99558773Y-79065196D01*
X99534505Y-79068796D01*
X99510001Y-79070000D01*
X98609999Y-79070000D01*
X98585495Y-79068796D01*
X98561227Y-79065196D01*
X98537428Y-79059235D01*
X98514329Y-79050970D01*
X98492150Y-79040480D01*
X98471107Y-79027868D01*
X98451401Y-79013253D01*
X98433223Y-78996777D01*
X98416747Y-78978599D01*
X98402132Y-78958893D01*
X98389520Y-78937850D01*
X98379030Y-78915671D01*
X98370765Y-78892572D01*
X98364804Y-78868773D01*
X98361204Y-78844505D01*
X98360000Y-78820001D01*
X98360000Y-78169999D01*
X98361204Y-78145495D01*
X98364804Y-78121227D01*
X98370765Y-78097428D01*
X98379030Y-78074329D01*
X98389520Y-78052150D01*
X98402132Y-78031107D01*
X98416747Y-78011401D01*
X98433223Y-77993223D01*
X98451401Y-77976747D01*
X98471107Y-77962132D01*
X98492150Y-77949520D01*
X98514329Y-77939030D01*
X98537428Y-77930765D01*
X98561227Y-77924804D01*
X98585495Y-77921204D01*
X98609999Y-77920000D01*
X99510001Y-77920000D01*
X99534505Y-77921204D01*
G37*
M02*
