G04 #@! TF.GenerationSoftware,KiCad,Pcbnew,5.1.5+dfsg1-2build2*
G04 #@! TF.CreationDate,2021-09-27T21:09:23+08:00*
G04 #@! TF.ProjectId,esp32-cam,65737033-322d-4636-916d-2e6b69636164,rev?*
G04 #@! TF.SameCoordinates,Original*
G04 #@! TF.FileFunction,Copper,L2,Bot*
G04 #@! TF.FilePolarity,Positive*
%FSLAX46Y46*%
G04 Gerber Fmt 4.6, Leading zero omitted, Abs format (unit mm)*
G04 Created by KiCad (PCBNEW 5.1.5+dfsg1-2build2) date 2021-09-27 21:09:23*
%MOMM*%
%LPD*%
G04 APERTURE LIST*
%ADD10O,2.844800X1.422400*%
%ADD11O,1.700000X1.700000*%
%ADD12R,1.700000X1.700000*%
%ADD13C,0.100000*%
%ADD14O,1.905000X2.000000*%
%ADD15R,1.905000X2.000000*%
%ADD16C,0.800000*%
%ADD17C,0.250000*%
%ADD18C,1.000000*%
%ADD19C,0.254000*%
G04 APERTURE END LIST*
D10*
X110470000Y-77340000D03*
X110470000Y-79880000D03*
X110470000Y-82420000D03*
X110470000Y-84960000D03*
X110470000Y-87500000D03*
X110470000Y-90040000D03*
X110470000Y-92580000D03*
X110470000Y-95120000D03*
X133330000Y-95120000D03*
X133330000Y-92580000D03*
X133330000Y-90040000D03*
X133330000Y-87500000D03*
X133330000Y-84960000D03*
X133330000Y-82420000D03*
X133330000Y-79880000D03*
X133330000Y-77340000D03*
D11*
X139600000Y-90020000D03*
X139600000Y-92560000D03*
D12*
X139600000Y-95100000D03*
D11*
X80010000Y-76200000D03*
D12*
X80010000Y-78740000D03*
G04 #@! TA.AperFunction,SMDPad,CuDef*
D13*
G36*
X99534505Y-75871204D02*
G01*
X99558773Y-75874804D01*
X99582572Y-75880765D01*
X99605671Y-75889030D01*
X99627850Y-75899520D01*
X99648893Y-75912132D01*
X99668599Y-75926747D01*
X99686777Y-75943223D01*
X99703253Y-75961401D01*
X99717868Y-75981107D01*
X99730480Y-76002150D01*
X99740970Y-76024329D01*
X99749235Y-76047428D01*
X99755196Y-76071227D01*
X99758796Y-76095495D01*
X99760000Y-76119999D01*
X99760000Y-76770001D01*
X99758796Y-76794505D01*
X99755196Y-76818773D01*
X99749235Y-76842572D01*
X99740970Y-76865671D01*
X99730480Y-76887850D01*
X99717868Y-76908893D01*
X99703253Y-76928599D01*
X99686777Y-76946777D01*
X99668599Y-76963253D01*
X99648893Y-76977868D01*
X99627850Y-76990480D01*
X99605671Y-77000970D01*
X99582572Y-77009235D01*
X99558773Y-77015196D01*
X99534505Y-77018796D01*
X99510001Y-77020000D01*
X98609999Y-77020000D01*
X98585495Y-77018796D01*
X98561227Y-77015196D01*
X98537428Y-77009235D01*
X98514329Y-77000970D01*
X98492150Y-76990480D01*
X98471107Y-76977868D01*
X98451401Y-76963253D01*
X98433223Y-76946777D01*
X98416747Y-76928599D01*
X98402132Y-76908893D01*
X98389520Y-76887850D01*
X98379030Y-76865671D01*
X98370765Y-76842572D01*
X98364804Y-76818773D01*
X98361204Y-76794505D01*
X98360000Y-76770001D01*
X98360000Y-76119999D01*
X98361204Y-76095495D01*
X98364804Y-76071227D01*
X98370765Y-76047428D01*
X98379030Y-76024329D01*
X98389520Y-76002150D01*
X98402132Y-75981107D01*
X98416747Y-75961401D01*
X98433223Y-75943223D01*
X98451401Y-75926747D01*
X98471107Y-75912132D01*
X98492150Y-75899520D01*
X98514329Y-75889030D01*
X98537428Y-75880765D01*
X98561227Y-75874804D01*
X98585495Y-75871204D01*
X98609999Y-75870000D01*
X99510001Y-75870000D01*
X99534505Y-75871204D01*
G37*
G04 #@! TD.AperFunction*
G04 #@! TA.AperFunction,SMDPad,CuDef*
G36*
X99534505Y-77921204D02*
G01*
X99558773Y-77924804D01*
X99582572Y-77930765D01*
X99605671Y-77939030D01*
X99627850Y-77949520D01*
X99648893Y-77962132D01*
X99668599Y-77976747D01*
X99686777Y-77993223D01*
X99703253Y-78011401D01*
X99717868Y-78031107D01*
X99730480Y-78052150D01*
X99740970Y-78074329D01*
X99749235Y-78097428D01*
X99755196Y-78121227D01*
X99758796Y-78145495D01*
X99760000Y-78169999D01*
X99760000Y-78820001D01*
X99758796Y-78844505D01*
X99755196Y-78868773D01*
X99749235Y-78892572D01*
X99740970Y-78915671D01*
X99730480Y-78937850D01*
X99717868Y-78958893D01*
X99703253Y-78978599D01*
X99686777Y-78996777D01*
X99668599Y-79013253D01*
X99648893Y-79027868D01*
X99627850Y-79040480D01*
X99605671Y-79050970D01*
X99582572Y-79059235D01*
X99558773Y-79065196D01*
X99534505Y-79068796D01*
X99510001Y-79070000D01*
X98609999Y-79070000D01*
X98585495Y-79068796D01*
X98561227Y-79065196D01*
X98537428Y-79059235D01*
X98514329Y-79050970D01*
X98492150Y-79040480D01*
X98471107Y-79027868D01*
X98451401Y-79013253D01*
X98433223Y-78996777D01*
X98416747Y-78978599D01*
X98402132Y-78958893D01*
X98389520Y-78937850D01*
X98379030Y-78915671D01*
X98370765Y-78892572D01*
X98364804Y-78868773D01*
X98361204Y-78844505D01*
X98360000Y-78820001D01*
X98360000Y-78169999D01*
X98361204Y-78145495D01*
X98364804Y-78121227D01*
X98370765Y-78097428D01*
X98379030Y-78074329D01*
X98389520Y-78052150D01*
X98402132Y-78031107D01*
X98416747Y-78011401D01*
X98433223Y-77993223D01*
X98451401Y-77976747D01*
X98471107Y-77962132D01*
X98492150Y-77949520D01*
X98514329Y-77939030D01*
X98537428Y-77930765D01*
X98561227Y-77924804D01*
X98585495Y-77921204D01*
X98609999Y-77920000D01*
X99510001Y-77920000D01*
X99534505Y-77921204D01*
G37*
G04 #@! TD.AperFunction*
D14*
X92710000Y-102870000D03*
X90170000Y-102870000D03*
X87630000Y-102870000D03*
D15*
X85090000Y-102870000D03*
D12*
X81280000Y-115570000D03*
D11*
X81280000Y-113030000D03*
D16*
X88900000Y-74930000D03*
X88900000Y-80010000D03*
X82550000Y-76200000D03*
X96520000Y-73660000D03*
X97790008Y-77470000D03*
X92710000Y-116840000D03*
D17*
X88900000Y-74930000D02*
X88900000Y-80010000D01*
D18*
X82550000Y-76200000D02*
X82550000Y-105410000D01*
X82550000Y-111760000D02*
X81280000Y-113030000D01*
X82550000Y-105410000D02*
X82550000Y-111760000D01*
D17*
X96520000Y-73660000D02*
X97790000Y-73660000D01*
X97790000Y-73660000D02*
X99060000Y-74930000D01*
X99060000Y-74930000D02*
X99060000Y-76445000D01*
X99060000Y-78495000D02*
X98360000Y-78495000D01*
X98360000Y-78495000D02*
X97790008Y-77925008D01*
X97790008Y-77925008D02*
X97790008Y-77470000D01*
X92710000Y-116840000D02*
X92710000Y-106680000D01*
X92710000Y-106680000D02*
X91440000Y-105410000D01*
X91440000Y-105410000D02*
X86360000Y-105410000D01*
X86360000Y-105410000D02*
X85090000Y-104140000D01*
X85090000Y-104140000D02*
X85090000Y-102870000D01*
D19*
G36*
X144653000Y-120523000D02*
G01*
X77597000Y-120523000D01*
X77597000Y-116420000D01*
X79791928Y-116420000D01*
X79804188Y-116544482D01*
X79840498Y-116664180D01*
X79899463Y-116774494D01*
X79978815Y-116871185D01*
X80075506Y-116950537D01*
X80185820Y-117009502D01*
X80305518Y-117045812D01*
X80430000Y-117058072D01*
X80994250Y-117055000D01*
X81153000Y-116896250D01*
X81153000Y-115697000D01*
X81407000Y-115697000D01*
X81407000Y-116896250D01*
X81565750Y-117055000D01*
X82130000Y-117058072D01*
X82254482Y-117045812D01*
X82374180Y-117009502D01*
X82484494Y-116950537D01*
X82581185Y-116871185D01*
X82660537Y-116774494D01*
X82719502Y-116664180D01*
X82755812Y-116544482D01*
X82768072Y-116420000D01*
X82765000Y-115855750D01*
X82606250Y-115697000D01*
X81407000Y-115697000D01*
X81153000Y-115697000D01*
X79953750Y-115697000D01*
X79795000Y-115855750D01*
X79791928Y-116420000D01*
X77597000Y-116420000D01*
X77597000Y-79590000D01*
X78521928Y-79590000D01*
X78534188Y-79714482D01*
X78570498Y-79834180D01*
X78629463Y-79944494D01*
X78708815Y-80041185D01*
X78805506Y-80120537D01*
X78915820Y-80179502D01*
X79035518Y-80215812D01*
X79160000Y-80228072D01*
X79724250Y-80225000D01*
X79883000Y-80066250D01*
X79883000Y-78867000D01*
X78683750Y-78867000D01*
X78525000Y-79025750D01*
X78521928Y-79590000D01*
X77597000Y-79590000D01*
X77597000Y-77890000D01*
X78521928Y-77890000D01*
X78525000Y-78454250D01*
X78683750Y-78613000D01*
X79883000Y-78613000D01*
X79883000Y-78593000D01*
X80137000Y-78593000D01*
X80137000Y-78613000D01*
X80157000Y-78613000D01*
X80157000Y-78867000D01*
X80137000Y-78867000D01*
X80137000Y-80066250D01*
X80295750Y-80225000D01*
X80860000Y-80228072D01*
X80984482Y-80215812D01*
X81104180Y-80179502D01*
X81214494Y-80120537D01*
X81311185Y-80041185D01*
X81390537Y-79944494D01*
X81415000Y-79898727D01*
X81415001Y-105354239D01*
X81415000Y-105354249D01*
X81415001Y-111289867D01*
X81159868Y-111545000D01*
X81133740Y-111545000D01*
X80846842Y-111602068D01*
X80576589Y-111714010D01*
X80333368Y-111876525D01*
X80126525Y-112083368D01*
X79964010Y-112326589D01*
X79852068Y-112596842D01*
X79795000Y-112883740D01*
X79795000Y-113176260D01*
X79852068Y-113463158D01*
X79964010Y-113733411D01*
X80126525Y-113976632D01*
X80258380Y-114108487D01*
X80185820Y-114130498D01*
X80075506Y-114189463D01*
X79978815Y-114268815D01*
X79899463Y-114365506D01*
X79840498Y-114475820D01*
X79804188Y-114595518D01*
X79791928Y-114720000D01*
X79795000Y-115284250D01*
X79953750Y-115443000D01*
X81153000Y-115443000D01*
X81153000Y-115423000D01*
X81407000Y-115423000D01*
X81407000Y-115443000D01*
X82606250Y-115443000D01*
X82765000Y-115284250D01*
X82768072Y-114720000D01*
X82755812Y-114595518D01*
X82719502Y-114475820D01*
X82660537Y-114365506D01*
X82581185Y-114268815D01*
X82484494Y-114189463D01*
X82374180Y-114130498D01*
X82301620Y-114108487D01*
X82433475Y-113976632D01*
X82595990Y-113733411D01*
X82707932Y-113463158D01*
X82765000Y-113176260D01*
X82765000Y-113150132D01*
X83313140Y-112601992D01*
X83356449Y-112566449D01*
X83498284Y-112393623D01*
X83603676Y-112196447D01*
X83668577Y-111982499D01*
X83685000Y-111815752D01*
X83685000Y-111815745D01*
X83690490Y-111760001D01*
X83685000Y-111704257D01*
X83685000Y-104319583D01*
X83686315Y-104321185D01*
X83783006Y-104400537D01*
X83893320Y-104459502D01*
X84013018Y-104495812D01*
X84137500Y-104508072D01*
X84424984Y-104508072D01*
X84455026Y-104564276D01*
X84487259Y-104603551D01*
X84549999Y-104680001D01*
X84579003Y-104703804D01*
X85796200Y-105921002D01*
X85819999Y-105950001D01*
X85935724Y-106044974D01*
X86067753Y-106115546D01*
X86211014Y-106159003D01*
X86322667Y-106170000D01*
X86322676Y-106170000D01*
X86359999Y-106173676D01*
X86397322Y-106170000D01*
X91125199Y-106170000D01*
X91950001Y-106994803D01*
X91950000Y-116136289D01*
X91906063Y-116180226D01*
X91792795Y-116349744D01*
X91714774Y-116538102D01*
X91675000Y-116738061D01*
X91675000Y-116941939D01*
X91714774Y-117141898D01*
X91792795Y-117330256D01*
X91906063Y-117499774D01*
X92050226Y-117643937D01*
X92219744Y-117757205D01*
X92408102Y-117835226D01*
X92608061Y-117875000D01*
X92811939Y-117875000D01*
X93011898Y-117835226D01*
X93200256Y-117757205D01*
X93369774Y-117643937D01*
X93513937Y-117499774D01*
X93627205Y-117330256D01*
X93705226Y-117141898D01*
X93745000Y-116941939D01*
X93745000Y-116738061D01*
X93705226Y-116538102D01*
X93627205Y-116349744D01*
X93513937Y-116180226D01*
X93470000Y-116136289D01*
X93470000Y-106717322D01*
X93473676Y-106679999D01*
X93470000Y-106642676D01*
X93470000Y-106642667D01*
X93459003Y-106531014D01*
X93415546Y-106387753D01*
X93344974Y-106255724D01*
X93250001Y-106139999D01*
X93221003Y-106116201D01*
X92003804Y-104899003D01*
X91980001Y-104869999D01*
X91864276Y-104775026D01*
X91732247Y-104704454D01*
X91588986Y-104660997D01*
X91477333Y-104650000D01*
X91477322Y-104650000D01*
X91440000Y-104646324D01*
X91402678Y-104650000D01*
X86674802Y-104650000D01*
X86412562Y-104387761D01*
X86493685Y-104321185D01*
X86573037Y-104224494D01*
X86617905Y-104140553D01*
X86743766Y-104243845D01*
X87019552Y-104391255D01*
X87318797Y-104482030D01*
X87630000Y-104512681D01*
X87941204Y-104482030D01*
X88240449Y-104391255D01*
X88516235Y-104243845D01*
X88757963Y-104045463D01*
X88905162Y-103866100D01*
X89060563Y-104051315D01*
X89303077Y-104245969D01*
X89578906Y-104389571D01*
X89797020Y-104460563D01*
X90043000Y-104340594D01*
X90043000Y-102997000D01*
X90297000Y-102997000D01*
X90297000Y-104340594D01*
X90542980Y-104460563D01*
X90761094Y-104389571D01*
X91036923Y-104245969D01*
X91279437Y-104051315D01*
X91440000Y-103859948D01*
X91600563Y-104051315D01*
X91843077Y-104245969D01*
X92118906Y-104389571D01*
X92337020Y-104460563D01*
X92583000Y-104340594D01*
X92583000Y-102997000D01*
X92837000Y-102997000D01*
X92837000Y-104340594D01*
X93082980Y-104460563D01*
X93301094Y-104389571D01*
X93576923Y-104245969D01*
X93819437Y-104051315D01*
X94019316Y-103813089D01*
X94168879Y-103540446D01*
X94262378Y-103243863D01*
X94135570Y-102997000D01*
X92837000Y-102997000D01*
X92583000Y-102997000D01*
X90297000Y-102997000D01*
X90043000Y-102997000D01*
X90023000Y-102997000D01*
X90023000Y-102743000D01*
X90043000Y-102743000D01*
X90043000Y-101399406D01*
X90297000Y-101399406D01*
X90297000Y-102743000D01*
X92583000Y-102743000D01*
X92583000Y-101399406D01*
X92837000Y-101399406D01*
X92837000Y-102743000D01*
X94135570Y-102743000D01*
X94262378Y-102496137D01*
X94168879Y-102199554D01*
X94019316Y-101926911D01*
X93819437Y-101688685D01*
X93576923Y-101494031D01*
X93301094Y-101350429D01*
X93082980Y-101279437D01*
X92837000Y-101399406D01*
X92583000Y-101399406D01*
X92337020Y-101279437D01*
X92118906Y-101350429D01*
X91843077Y-101494031D01*
X91600563Y-101688685D01*
X91440000Y-101880052D01*
X91279437Y-101688685D01*
X91036923Y-101494031D01*
X90761094Y-101350429D01*
X90542980Y-101279437D01*
X90297000Y-101399406D01*
X90043000Y-101399406D01*
X89797020Y-101279437D01*
X89578906Y-101350429D01*
X89303077Y-101494031D01*
X89060563Y-101688685D01*
X88905163Y-101873899D01*
X88757963Y-101694537D01*
X88516234Y-101496155D01*
X88240448Y-101348745D01*
X87941203Y-101257970D01*
X87630000Y-101227319D01*
X87318796Y-101257970D01*
X87019551Y-101348745D01*
X86743765Y-101496155D01*
X86617905Y-101599446D01*
X86573037Y-101515506D01*
X86493685Y-101418815D01*
X86396994Y-101339463D01*
X86286680Y-101280498D01*
X86166982Y-101244188D01*
X86042500Y-101231928D01*
X84137500Y-101231928D01*
X84013018Y-101244188D01*
X83893320Y-101280498D01*
X83783006Y-101339463D01*
X83686315Y-101418815D01*
X83685000Y-101420417D01*
X83685000Y-85975098D01*
X86515000Y-85975098D01*
X86515000Y-86444902D01*
X86606654Y-86905679D01*
X86786440Y-87339721D01*
X87047450Y-87730349D01*
X87379651Y-88062550D01*
X87770279Y-88323560D01*
X88204321Y-88503346D01*
X88665098Y-88595000D01*
X89134902Y-88595000D01*
X89595679Y-88503346D01*
X90029721Y-88323560D01*
X90420349Y-88062550D01*
X90752550Y-87730349D01*
X91013560Y-87339721D01*
X91193346Y-86905679D01*
X91285000Y-86444902D01*
X91285000Y-85975098D01*
X91193346Y-85514321D01*
X91013560Y-85080279D01*
X90752550Y-84689651D01*
X90420349Y-84357450D01*
X90029721Y-84096440D01*
X89595679Y-83916654D01*
X89134902Y-83825000D01*
X88665098Y-83825000D01*
X88204321Y-83916654D01*
X87770279Y-84096440D01*
X87379651Y-84357450D01*
X87047450Y-84689651D01*
X86786440Y-85080279D01*
X86606654Y-85514321D01*
X86515000Y-85975098D01*
X83685000Y-85975098D01*
X83685000Y-82420000D01*
X108406087Y-82420000D01*
X108432079Y-82683901D01*
X108509056Y-82937661D01*
X108634060Y-83171527D01*
X108802287Y-83376513D01*
X109007273Y-83544740D01*
X109241139Y-83669744D01*
X109307914Y-83690000D01*
X109241139Y-83710256D01*
X109007273Y-83835260D01*
X108802287Y-84003487D01*
X108634060Y-84208473D01*
X108509056Y-84442339D01*
X108432079Y-84696099D01*
X108406087Y-84960000D01*
X108432079Y-85223901D01*
X108509056Y-85477661D01*
X108634060Y-85711527D01*
X108802287Y-85916513D01*
X109007273Y-86084740D01*
X109241139Y-86209744D01*
X109307914Y-86230000D01*
X109241139Y-86250256D01*
X109007273Y-86375260D01*
X108802287Y-86543487D01*
X108634060Y-86748473D01*
X108509056Y-86982339D01*
X108432079Y-87236099D01*
X108406087Y-87500000D01*
X108432079Y-87763901D01*
X108509056Y-88017661D01*
X108634060Y-88251527D01*
X108802287Y-88456513D01*
X109007273Y-88624740D01*
X109241139Y-88749744D01*
X109307914Y-88770000D01*
X109241139Y-88790256D01*
X109007273Y-88915260D01*
X108802287Y-89083487D01*
X108634060Y-89288473D01*
X108509056Y-89522339D01*
X108432079Y-89776099D01*
X108406087Y-90040000D01*
X108432079Y-90303901D01*
X108509056Y-90557661D01*
X108634060Y-90791527D01*
X108802287Y-90996513D01*
X109007273Y-91164740D01*
X109241139Y-91289744D01*
X109307914Y-91310000D01*
X109241139Y-91330256D01*
X109007273Y-91455260D01*
X108802287Y-91623487D01*
X108634060Y-91828473D01*
X108509056Y-92062339D01*
X108432079Y-92316099D01*
X108406087Y-92580000D01*
X108432079Y-92843901D01*
X108509056Y-93097661D01*
X108634060Y-93331527D01*
X108802287Y-93536513D01*
X109007273Y-93704740D01*
X109241139Y-93829744D01*
X109307914Y-93850000D01*
X109241139Y-93870256D01*
X109007273Y-93995260D01*
X108802287Y-94163487D01*
X108634060Y-94368473D01*
X108509056Y-94602339D01*
X108432079Y-94856099D01*
X108406087Y-95120000D01*
X108432079Y-95383901D01*
X108509056Y-95637661D01*
X108634060Y-95871527D01*
X108802287Y-96076513D01*
X109007273Y-96244740D01*
X109241139Y-96369744D01*
X109494899Y-96446721D01*
X109692672Y-96466200D01*
X111247328Y-96466200D01*
X111445101Y-96446721D01*
X111698861Y-96369744D01*
X111932727Y-96244740D01*
X112137713Y-96076513D01*
X112305940Y-95871527D01*
X112430944Y-95637661D01*
X112486326Y-95455089D01*
X131314971Y-95455089D01*
X131326473Y-95517837D01*
X131428919Y-95762313D01*
X131577091Y-95982105D01*
X131765295Y-96168767D01*
X131986299Y-96315126D01*
X132231610Y-96415557D01*
X132491800Y-96466200D01*
X133203000Y-96466200D01*
X133203000Y-95247000D01*
X133457000Y-95247000D01*
X133457000Y-96466200D01*
X134168200Y-96466200D01*
X134428390Y-96415557D01*
X134673701Y-96315126D01*
X134894705Y-96168767D01*
X135082909Y-95982105D01*
X135104552Y-95950000D01*
X138111928Y-95950000D01*
X138124188Y-96074482D01*
X138160498Y-96194180D01*
X138219463Y-96304494D01*
X138298815Y-96401185D01*
X138395506Y-96480537D01*
X138505820Y-96539502D01*
X138625518Y-96575812D01*
X138750000Y-96588072D01*
X139314250Y-96585000D01*
X139473000Y-96426250D01*
X139473000Y-95227000D01*
X139727000Y-95227000D01*
X139727000Y-96426250D01*
X139885750Y-96585000D01*
X140450000Y-96588072D01*
X140574482Y-96575812D01*
X140694180Y-96539502D01*
X140804494Y-96480537D01*
X140901185Y-96401185D01*
X140980537Y-96304494D01*
X141039502Y-96194180D01*
X141075812Y-96074482D01*
X141088072Y-95950000D01*
X141085000Y-95385750D01*
X140926250Y-95227000D01*
X139727000Y-95227000D01*
X139473000Y-95227000D01*
X138273750Y-95227000D01*
X138115000Y-95385750D01*
X138111928Y-95950000D01*
X135104552Y-95950000D01*
X135231081Y-95762313D01*
X135333527Y-95517837D01*
X135345029Y-95455089D01*
X135221839Y-95247000D01*
X133457000Y-95247000D01*
X133203000Y-95247000D01*
X131438161Y-95247000D01*
X131314971Y-95455089D01*
X112486326Y-95455089D01*
X112507921Y-95383901D01*
X112533913Y-95120000D01*
X112507921Y-94856099D01*
X112430944Y-94602339D01*
X112305940Y-94368473D01*
X112137713Y-94163487D01*
X111932727Y-93995260D01*
X111698861Y-93870256D01*
X111632086Y-93850000D01*
X111698861Y-93829744D01*
X111932727Y-93704740D01*
X112137713Y-93536513D01*
X112305940Y-93331527D01*
X112430944Y-93097661D01*
X112507921Y-92843901D01*
X112533913Y-92580000D01*
X112507921Y-92316099D01*
X112430944Y-92062339D01*
X112305940Y-91828473D01*
X112137713Y-91623487D01*
X111932727Y-91455260D01*
X111698861Y-91330256D01*
X111632086Y-91310000D01*
X111698861Y-91289744D01*
X111932727Y-91164740D01*
X112137713Y-90996513D01*
X112305940Y-90791527D01*
X112430944Y-90557661D01*
X112507921Y-90303901D01*
X112533913Y-90040000D01*
X112507921Y-89776099D01*
X112430944Y-89522339D01*
X112305940Y-89288473D01*
X112137713Y-89083487D01*
X111932727Y-88915260D01*
X111698861Y-88790256D01*
X111632086Y-88770000D01*
X111698861Y-88749744D01*
X111932727Y-88624740D01*
X112137713Y-88456513D01*
X112305940Y-88251527D01*
X112430944Y-88017661D01*
X112507921Y-87763901D01*
X112533913Y-87500000D01*
X112507921Y-87236099D01*
X112430944Y-86982339D01*
X112305940Y-86748473D01*
X112137713Y-86543487D01*
X111932727Y-86375260D01*
X111698861Y-86250256D01*
X111632086Y-86230000D01*
X111698861Y-86209744D01*
X111932727Y-86084740D01*
X112137713Y-85916513D01*
X112305940Y-85711527D01*
X112430944Y-85477661D01*
X112507921Y-85223901D01*
X112533913Y-84960000D01*
X112507921Y-84696099D01*
X112430944Y-84442339D01*
X112305940Y-84208473D01*
X112137713Y-84003487D01*
X111932727Y-83835260D01*
X111698861Y-83710256D01*
X111632086Y-83690000D01*
X111698861Y-83669744D01*
X111932727Y-83544740D01*
X112137713Y-83376513D01*
X112305940Y-83171527D01*
X112430944Y-82937661D01*
X112507921Y-82683901D01*
X112533913Y-82420000D01*
X112507921Y-82156099D01*
X112430944Y-81902339D01*
X112305940Y-81668473D01*
X112137713Y-81463487D01*
X111932727Y-81295260D01*
X111698861Y-81170256D01*
X111631356Y-81149779D01*
X111813701Y-81075126D01*
X112034705Y-80928767D01*
X112222909Y-80742105D01*
X112371081Y-80522313D01*
X112473527Y-80277837D01*
X112485029Y-80215089D01*
X112361839Y-80007000D01*
X110597000Y-80007000D01*
X110597000Y-80027000D01*
X110343000Y-80027000D01*
X110343000Y-80007000D01*
X108578161Y-80007000D01*
X108454971Y-80215089D01*
X108466473Y-80277837D01*
X108568919Y-80522313D01*
X108717091Y-80742105D01*
X108905295Y-80928767D01*
X109126299Y-81075126D01*
X109308644Y-81149779D01*
X109241139Y-81170256D01*
X109007273Y-81295260D01*
X108802287Y-81463487D01*
X108634060Y-81668473D01*
X108509056Y-81902339D01*
X108432079Y-82156099D01*
X108406087Y-82420000D01*
X83685000Y-82420000D01*
X83685000Y-76144248D01*
X83668577Y-75977501D01*
X83603676Y-75763553D01*
X83498284Y-75566377D01*
X83356449Y-75393551D01*
X83183623Y-75251716D01*
X82986446Y-75146324D01*
X82772498Y-75081423D01*
X82550000Y-75059509D01*
X82327501Y-75081423D01*
X82113553Y-75146324D01*
X81916377Y-75251716D01*
X81743551Y-75393551D01*
X81601716Y-75566377D01*
X81496324Y-75763554D01*
X81460662Y-75881114D01*
X81437932Y-75766842D01*
X81325990Y-75496589D01*
X81163475Y-75253368D01*
X80956632Y-75046525D01*
X80713411Y-74884010D01*
X80578338Y-74828061D01*
X87865000Y-74828061D01*
X87865000Y-75031939D01*
X87904774Y-75231898D01*
X87982795Y-75420256D01*
X88096063Y-75589774D01*
X88140000Y-75633711D01*
X88140001Y-79306288D01*
X88096063Y-79350226D01*
X87982795Y-79519744D01*
X87904774Y-79708102D01*
X87865000Y-79908061D01*
X87865000Y-80111939D01*
X87904774Y-80311898D01*
X87982795Y-80500256D01*
X88096063Y-80669774D01*
X88240226Y-80813937D01*
X88409744Y-80927205D01*
X88598102Y-81005226D01*
X88798061Y-81045000D01*
X89001939Y-81045000D01*
X89201898Y-81005226D01*
X89390256Y-80927205D01*
X89559774Y-80813937D01*
X89703937Y-80669774D01*
X89817205Y-80500256D01*
X89895226Y-80311898D01*
X89935000Y-80111939D01*
X89935000Y-79908061D01*
X89895226Y-79708102D01*
X89817205Y-79519744D01*
X89703937Y-79350226D01*
X89660000Y-79306289D01*
X89660000Y-75633711D01*
X89703937Y-75589774D01*
X89817205Y-75420256D01*
X89895226Y-75231898D01*
X89935000Y-75031939D01*
X89935000Y-74828061D01*
X89895226Y-74628102D01*
X89817205Y-74439744D01*
X89703937Y-74270226D01*
X89559774Y-74126063D01*
X89390256Y-74012795D01*
X89201898Y-73934774D01*
X89001939Y-73895000D01*
X88798061Y-73895000D01*
X88598102Y-73934774D01*
X88409744Y-74012795D01*
X88240226Y-74126063D01*
X88096063Y-74270226D01*
X87982795Y-74439744D01*
X87904774Y-74628102D01*
X87865000Y-74828061D01*
X80578338Y-74828061D01*
X80443158Y-74772068D01*
X80156260Y-74715000D01*
X79863740Y-74715000D01*
X79576842Y-74772068D01*
X79306589Y-74884010D01*
X79063368Y-75046525D01*
X78856525Y-75253368D01*
X78694010Y-75496589D01*
X78582068Y-75766842D01*
X78525000Y-76053740D01*
X78525000Y-76346260D01*
X78582068Y-76633158D01*
X78694010Y-76903411D01*
X78856525Y-77146632D01*
X78988380Y-77278487D01*
X78915820Y-77300498D01*
X78805506Y-77359463D01*
X78708815Y-77438815D01*
X78629463Y-77535506D01*
X78570498Y-77645820D01*
X78534188Y-77765518D01*
X78521928Y-77890000D01*
X77597000Y-77890000D01*
X77597000Y-73558061D01*
X95485000Y-73558061D01*
X95485000Y-73761939D01*
X95524774Y-73961898D01*
X95602795Y-74150256D01*
X95716063Y-74319774D01*
X95860226Y-74463937D01*
X96029744Y-74577205D01*
X96218102Y-74655226D01*
X96418061Y-74695000D01*
X96621939Y-74695000D01*
X96821898Y-74655226D01*
X97010256Y-74577205D01*
X97179774Y-74463937D01*
X97223711Y-74420000D01*
X97475199Y-74420000D01*
X98300000Y-75244802D01*
X98300000Y-75290473D01*
X98270149Y-75299528D01*
X98116613Y-75381595D01*
X97982038Y-75492038D01*
X97871595Y-75626613D01*
X97789528Y-75780149D01*
X97738992Y-75946745D01*
X97721928Y-76119999D01*
X97721928Y-76435000D01*
X97688069Y-76435000D01*
X97488110Y-76474774D01*
X97299752Y-76552795D01*
X97130234Y-76666063D01*
X96986071Y-76810226D01*
X96872803Y-76979744D01*
X96794782Y-77168102D01*
X96755008Y-77368061D01*
X96755008Y-77571939D01*
X96794782Y-77771898D01*
X96872803Y-77960256D01*
X96986071Y-78129774D01*
X97096991Y-78240694D01*
X97155034Y-78349284D01*
X97186155Y-78387205D01*
X97250007Y-78465009D01*
X97279010Y-78488811D01*
X97734135Y-78943937D01*
X97738992Y-78993255D01*
X97789528Y-79159851D01*
X97871595Y-79313387D01*
X97982038Y-79447962D01*
X98116613Y-79558405D01*
X98270149Y-79640472D01*
X98436745Y-79691008D01*
X98609999Y-79708072D01*
X99510001Y-79708072D01*
X99683255Y-79691008D01*
X99849851Y-79640472D01*
X100003387Y-79558405D01*
X100137962Y-79447962D01*
X100248405Y-79313387D01*
X100330472Y-79159851D01*
X100381008Y-78993255D01*
X100398072Y-78820001D01*
X100398072Y-78169999D01*
X100381008Y-77996745D01*
X100330472Y-77830149D01*
X100248405Y-77676613D01*
X100137962Y-77542038D01*
X100050184Y-77470000D01*
X100137962Y-77397962D01*
X100185530Y-77340000D01*
X108406087Y-77340000D01*
X108432079Y-77603901D01*
X108509056Y-77857661D01*
X108634060Y-78091527D01*
X108802287Y-78296513D01*
X109007273Y-78464740D01*
X109241139Y-78589744D01*
X109308644Y-78610221D01*
X109126299Y-78684874D01*
X108905295Y-78831233D01*
X108717091Y-79017895D01*
X108568919Y-79237687D01*
X108466473Y-79482163D01*
X108454971Y-79544911D01*
X108578161Y-79753000D01*
X110343000Y-79753000D01*
X110343000Y-79733000D01*
X110597000Y-79733000D01*
X110597000Y-79753000D01*
X112361839Y-79753000D01*
X112485029Y-79544911D01*
X112473527Y-79482163D01*
X112371081Y-79237687D01*
X112222909Y-79017895D01*
X112034705Y-78831233D01*
X111813701Y-78684874D01*
X111631356Y-78610221D01*
X111698861Y-78589744D01*
X111932727Y-78464740D01*
X112137713Y-78296513D01*
X112305940Y-78091527D01*
X112430944Y-77857661D01*
X112507921Y-77603901D01*
X112533913Y-77340000D01*
X131266087Y-77340000D01*
X131292079Y-77603901D01*
X131369056Y-77857661D01*
X131494060Y-78091527D01*
X131662287Y-78296513D01*
X131867273Y-78464740D01*
X132101139Y-78589744D01*
X132167914Y-78610000D01*
X132101139Y-78630256D01*
X131867273Y-78755260D01*
X131662287Y-78923487D01*
X131494060Y-79128473D01*
X131369056Y-79362339D01*
X131292079Y-79616099D01*
X131266087Y-79880000D01*
X131292079Y-80143901D01*
X131369056Y-80397661D01*
X131494060Y-80631527D01*
X131662287Y-80836513D01*
X131867273Y-81004740D01*
X132101139Y-81129744D01*
X132167914Y-81150000D01*
X132101139Y-81170256D01*
X131867273Y-81295260D01*
X131662287Y-81463487D01*
X131494060Y-81668473D01*
X131369056Y-81902339D01*
X131292079Y-82156099D01*
X131266087Y-82420000D01*
X131292079Y-82683901D01*
X131369056Y-82937661D01*
X131494060Y-83171527D01*
X131662287Y-83376513D01*
X131867273Y-83544740D01*
X132101139Y-83669744D01*
X132167914Y-83690000D01*
X132101139Y-83710256D01*
X131867273Y-83835260D01*
X131662287Y-84003487D01*
X131494060Y-84208473D01*
X131369056Y-84442339D01*
X131292079Y-84696099D01*
X131266087Y-84960000D01*
X131292079Y-85223901D01*
X131369056Y-85477661D01*
X131494060Y-85711527D01*
X131662287Y-85916513D01*
X131867273Y-86084740D01*
X132101139Y-86209744D01*
X132167914Y-86230000D01*
X132101139Y-86250256D01*
X131867273Y-86375260D01*
X131662287Y-86543487D01*
X131494060Y-86748473D01*
X131369056Y-86982339D01*
X131292079Y-87236099D01*
X131266087Y-87500000D01*
X131292079Y-87763901D01*
X131369056Y-88017661D01*
X131494060Y-88251527D01*
X131662287Y-88456513D01*
X131867273Y-88624740D01*
X132101139Y-88749744D01*
X132167914Y-88770000D01*
X132101139Y-88790256D01*
X131867273Y-88915260D01*
X131662287Y-89083487D01*
X131494060Y-89288473D01*
X131369056Y-89522339D01*
X131292079Y-89776099D01*
X131266087Y-90040000D01*
X131292079Y-90303901D01*
X131369056Y-90557661D01*
X131494060Y-90791527D01*
X131662287Y-90996513D01*
X131867273Y-91164740D01*
X132101139Y-91289744D01*
X132167914Y-91310000D01*
X132101139Y-91330256D01*
X131867273Y-91455260D01*
X131662287Y-91623487D01*
X131494060Y-91828473D01*
X131369056Y-92062339D01*
X131292079Y-92316099D01*
X131266087Y-92580000D01*
X131292079Y-92843901D01*
X131369056Y-93097661D01*
X131494060Y-93331527D01*
X131662287Y-93536513D01*
X131867273Y-93704740D01*
X132101139Y-93829744D01*
X132168644Y-93850221D01*
X131986299Y-93924874D01*
X131765295Y-94071233D01*
X131577091Y-94257895D01*
X131428919Y-94477687D01*
X131326473Y-94722163D01*
X131314971Y-94784911D01*
X131438161Y-94993000D01*
X133203000Y-94993000D01*
X133203000Y-94973000D01*
X133457000Y-94973000D01*
X133457000Y-94993000D01*
X135221839Y-94993000D01*
X135345029Y-94784911D01*
X135333527Y-94722163D01*
X135231081Y-94477687D01*
X135082909Y-94257895D01*
X135074949Y-94250000D01*
X138111928Y-94250000D01*
X138115000Y-94814250D01*
X138273750Y-94973000D01*
X139473000Y-94973000D01*
X139473000Y-94953000D01*
X139727000Y-94953000D01*
X139727000Y-94973000D01*
X140926250Y-94973000D01*
X141085000Y-94814250D01*
X141088072Y-94250000D01*
X141075812Y-94125518D01*
X141039502Y-94005820D01*
X140980537Y-93895506D01*
X140901185Y-93798815D01*
X140804494Y-93719463D01*
X140694180Y-93660498D01*
X140621620Y-93638487D01*
X140753475Y-93506632D01*
X140915990Y-93263411D01*
X141027932Y-92993158D01*
X141085000Y-92706260D01*
X141085000Y-92413740D01*
X141027932Y-92126842D01*
X140915990Y-91856589D01*
X140753475Y-91613368D01*
X140546632Y-91406525D01*
X140372240Y-91290000D01*
X140546632Y-91173475D01*
X140753475Y-90966632D01*
X140915990Y-90723411D01*
X141027932Y-90453158D01*
X141085000Y-90166260D01*
X141085000Y-89873740D01*
X141027932Y-89586842D01*
X140915990Y-89316589D01*
X140753475Y-89073368D01*
X140546632Y-88866525D01*
X140303411Y-88704010D01*
X140033158Y-88592068D01*
X139746260Y-88535000D01*
X139453740Y-88535000D01*
X139166842Y-88592068D01*
X138896589Y-88704010D01*
X138653368Y-88866525D01*
X138446525Y-89073368D01*
X138284010Y-89316589D01*
X138172068Y-89586842D01*
X138115000Y-89873740D01*
X138115000Y-90166260D01*
X138172068Y-90453158D01*
X138284010Y-90723411D01*
X138446525Y-90966632D01*
X138653368Y-91173475D01*
X138827760Y-91290000D01*
X138653368Y-91406525D01*
X138446525Y-91613368D01*
X138284010Y-91856589D01*
X138172068Y-92126842D01*
X138115000Y-92413740D01*
X138115000Y-92706260D01*
X138172068Y-92993158D01*
X138284010Y-93263411D01*
X138446525Y-93506632D01*
X138578380Y-93638487D01*
X138505820Y-93660498D01*
X138395506Y-93719463D01*
X138298815Y-93798815D01*
X138219463Y-93895506D01*
X138160498Y-94005820D01*
X138124188Y-94125518D01*
X138111928Y-94250000D01*
X135074949Y-94250000D01*
X134894705Y-94071233D01*
X134673701Y-93924874D01*
X134491356Y-93850221D01*
X134558861Y-93829744D01*
X134792727Y-93704740D01*
X134997713Y-93536513D01*
X135165940Y-93331527D01*
X135290944Y-93097661D01*
X135367921Y-92843901D01*
X135393913Y-92580000D01*
X135367921Y-92316099D01*
X135290944Y-92062339D01*
X135165940Y-91828473D01*
X134997713Y-91623487D01*
X134792727Y-91455260D01*
X134558861Y-91330256D01*
X134492086Y-91310000D01*
X134558861Y-91289744D01*
X134792727Y-91164740D01*
X134997713Y-90996513D01*
X135165940Y-90791527D01*
X135290944Y-90557661D01*
X135367921Y-90303901D01*
X135393913Y-90040000D01*
X135367921Y-89776099D01*
X135290944Y-89522339D01*
X135165940Y-89288473D01*
X134997713Y-89083487D01*
X134792727Y-88915260D01*
X134558861Y-88790256D01*
X134492086Y-88770000D01*
X134558861Y-88749744D01*
X134792727Y-88624740D01*
X134997713Y-88456513D01*
X135165940Y-88251527D01*
X135290944Y-88017661D01*
X135367921Y-87763901D01*
X135393913Y-87500000D01*
X135367921Y-87236099D01*
X135290944Y-86982339D01*
X135165940Y-86748473D01*
X134997713Y-86543487D01*
X134792727Y-86375260D01*
X134558861Y-86250256D01*
X134492086Y-86230000D01*
X134558861Y-86209744D01*
X134792727Y-86084740D01*
X134997713Y-85916513D01*
X135165940Y-85711527D01*
X135290944Y-85477661D01*
X135367921Y-85223901D01*
X135393913Y-84960000D01*
X135367921Y-84696099D01*
X135290944Y-84442339D01*
X135165940Y-84208473D01*
X134997713Y-84003487D01*
X134792727Y-83835260D01*
X134558861Y-83710256D01*
X134492086Y-83690000D01*
X134558861Y-83669744D01*
X134792727Y-83544740D01*
X134997713Y-83376513D01*
X135165940Y-83171527D01*
X135290944Y-82937661D01*
X135367921Y-82683901D01*
X135393913Y-82420000D01*
X135367921Y-82156099D01*
X135290944Y-81902339D01*
X135165940Y-81668473D01*
X134997713Y-81463487D01*
X134792727Y-81295260D01*
X134558861Y-81170256D01*
X134492086Y-81150000D01*
X134558861Y-81129744D01*
X134792727Y-81004740D01*
X134997713Y-80836513D01*
X135165940Y-80631527D01*
X135290944Y-80397661D01*
X135367921Y-80143901D01*
X135393913Y-79880000D01*
X135367921Y-79616099D01*
X135290944Y-79362339D01*
X135165940Y-79128473D01*
X134997713Y-78923487D01*
X134792727Y-78755260D01*
X134558861Y-78630256D01*
X134492086Y-78610000D01*
X134558861Y-78589744D01*
X134792727Y-78464740D01*
X134997713Y-78296513D01*
X135165940Y-78091527D01*
X135290944Y-77857661D01*
X135367921Y-77603901D01*
X135393913Y-77340000D01*
X135367921Y-77076099D01*
X135290944Y-76822339D01*
X135165940Y-76588473D01*
X134997713Y-76383487D01*
X134792727Y-76215260D01*
X134558861Y-76090256D01*
X134305101Y-76013279D01*
X134107328Y-75993800D01*
X132552672Y-75993800D01*
X132354899Y-76013279D01*
X132101139Y-76090256D01*
X131867273Y-76215260D01*
X131662287Y-76383487D01*
X131494060Y-76588473D01*
X131369056Y-76822339D01*
X131292079Y-77076099D01*
X131266087Y-77340000D01*
X112533913Y-77340000D01*
X112507921Y-77076099D01*
X112430944Y-76822339D01*
X112305940Y-76588473D01*
X112137713Y-76383487D01*
X111932727Y-76215260D01*
X111698861Y-76090256D01*
X111445101Y-76013279D01*
X111247328Y-75993800D01*
X109692672Y-75993800D01*
X109494899Y-76013279D01*
X109241139Y-76090256D01*
X109007273Y-76215260D01*
X108802287Y-76383487D01*
X108634060Y-76588473D01*
X108509056Y-76822339D01*
X108432079Y-77076099D01*
X108406087Y-77340000D01*
X100185530Y-77340000D01*
X100248405Y-77263387D01*
X100330472Y-77109851D01*
X100381008Y-76943255D01*
X100398072Y-76770001D01*
X100398072Y-76119999D01*
X100381008Y-75946745D01*
X100330472Y-75780149D01*
X100248405Y-75626613D01*
X100137962Y-75492038D01*
X100003387Y-75381595D01*
X99849851Y-75299528D01*
X99820000Y-75290473D01*
X99820000Y-74967322D01*
X99823676Y-74929999D01*
X99820000Y-74892676D01*
X99820000Y-74892667D01*
X99809003Y-74781014D01*
X99765546Y-74637753D01*
X99694974Y-74505724D01*
X99600001Y-74389999D01*
X99571004Y-74366202D01*
X98353804Y-73149003D01*
X98330001Y-73119999D01*
X98214276Y-73025026D01*
X98082247Y-72954454D01*
X97938986Y-72910997D01*
X97827333Y-72900000D01*
X97827322Y-72900000D01*
X97790000Y-72896324D01*
X97752678Y-72900000D01*
X97223711Y-72900000D01*
X97179774Y-72856063D01*
X97010256Y-72742795D01*
X96821898Y-72664774D01*
X96621939Y-72625000D01*
X96418061Y-72625000D01*
X96218102Y-72664774D01*
X96029744Y-72742795D01*
X95860226Y-72856063D01*
X95716063Y-73000226D01*
X95602795Y-73169744D01*
X95524774Y-73358102D01*
X95485000Y-73558061D01*
X77597000Y-73558061D01*
X77597000Y-64897000D01*
X144653000Y-64897000D01*
X144653000Y-120523000D01*
G37*
X144653000Y-120523000D02*
X77597000Y-120523000D01*
X77597000Y-116420000D01*
X79791928Y-116420000D01*
X79804188Y-116544482D01*
X79840498Y-116664180D01*
X79899463Y-116774494D01*
X79978815Y-116871185D01*
X80075506Y-116950537D01*
X80185820Y-117009502D01*
X80305518Y-117045812D01*
X80430000Y-117058072D01*
X80994250Y-117055000D01*
X81153000Y-116896250D01*
X81153000Y-115697000D01*
X81407000Y-115697000D01*
X81407000Y-116896250D01*
X81565750Y-117055000D01*
X82130000Y-117058072D01*
X82254482Y-117045812D01*
X82374180Y-117009502D01*
X82484494Y-116950537D01*
X82581185Y-116871185D01*
X82660537Y-116774494D01*
X82719502Y-116664180D01*
X82755812Y-116544482D01*
X82768072Y-116420000D01*
X82765000Y-115855750D01*
X82606250Y-115697000D01*
X81407000Y-115697000D01*
X81153000Y-115697000D01*
X79953750Y-115697000D01*
X79795000Y-115855750D01*
X79791928Y-116420000D01*
X77597000Y-116420000D01*
X77597000Y-79590000D01*
X78521928Y-79590000D01*
X78534188Y-79714482D01*
X78570498Y-79834180D01*
X78629463Y-79944494D01*
X78708815Y-80041185D01*
X78805506Y-80120537D01*
X78915820Y-80179502D01*
X79035518Y-80215812D01*
X79160000Y-80228072D01*
X79724250Y-80225000D01*
X79883000Y-80066250D01*
X79883000Y-78867000D01*
X78683750Y-78867000D01*
X78525000Y-79025750D01*
X78521928Y-79590000D01*
X77597000Y-79590000D01*
X77597000Y-77890000D01*
X78521928Y-77890000D01*
X78525000Y-78454250D01*
X78683750Y-78613000D01*
X79883000Y-78613000D01*
X79883000Y-78593000D01*
X80137000Y-78593000D01*
X80137000Y-78613000D01*
X80157000Y-78613000D01*
X80157000Y-78867000D01*
X80137000Y-78867000D01*
X80137000Y-80066250D01*
X80295750Y-80225000D01*
X80860000Y-80228072D01*
X80984482Y-80215812D01*
X81104180Y-80179502D01*
X81214494Y-80120537D01*
X81311185Y-80041185D01*
X81390537Y-79944494D01*
X81415000Y-79898727D01*
X81415001Y-105354239D01*
X81415000Y-105354249D01*
X81415001Y-111289867D01*
X81159868Y-111545000D01*
X81133740Y-111545000D01*
X80846842Y-111602068D01*
X80576589Y-111714010D01*
X80333368Y-111876525D01*
X80126525Y-112083368D01*
X79964010Y-112326589D01*
X79852068Y-112596842D01*
X79795000Y-112883740D01*
X79795000Y-113176260D01*
X79852068Y-113463158D01*
X79964010Y-113733411D01*
X80126525Y-113976632D01*
X80258380Y-114108487D01*
X80185820Y-114130498D01*
X80075506Y-114189463D01*
X79978815Y-114268815D01*
X79899463Y-114365506D01*
X79840498Y-114475820D01*
X79804188Y-114595518D01*
X79791928Y-114720000D01*
X79795000Y-115284250D01*
X79953750Y-115443000D01*
X81153000Y-115443000D01*
X81153000Y-115423000D01*
X81407000Y-115423000D01*
X81407000Y-115443000D01*
X82606250Y-115443000D01*
X82765000Y-115284250D01*
X82768072Y-114720000D01*
X82755812Y-114595518D01*
X82719502Y-114475820D01*
X82660537Y-114365506D01*
X82581185Y-114268815D01*
X82484494Y-114189463D01*
X82374180Y-114130498D01*
X82301620Y-114108487D01*
X82433475Y-113976632D01*
X82595990Y-113733411D01*
X82707932Y-113463158D01*
X82765000Y-113176260D01*
X82765000Y-113150132D01*
X83313140Y-112601992D01*
X83356449Y-112566449D01*
X83498284Y-112393623D01*
X83603676Y-112196447D01*
X83668577Y-111982499D01*
X83685000Y-111815752D01*
X83685000Y-111815745D01*
X83690490Y-111760001D01*
X83685000Y-111704257D01*
X83685000Y-104319583D01*
X83686315Y-104321185D01*
X83783006Y-104400537D01*
X83893320Y-104459502D01*
X84013018Y-104495812D01*
X84137500Y-104508072D01*
X84424984Y-104508072D01*
X84455026Y-104564276D01*
X84487259Y-104603551D01*
X84549999Y-104680001D01*
X84579003Y-104703804D01*
X85796200Y-105921002D01*
X85819999Y-105950001D01*
X85935724Y-106044974D01*
X86067753Y-106115546D01*
X86211014Y-106159003D01*
X86322667Y-106170000D01*
X86322676Y-106170000D01*
X86359999Y-106173676D01*
X86397322Y-106170000D01*
X91125199Y-106170000D01*
X91950001Y-106994803D01*
X91950000Y-116136289D01*
X91906063Y-116180226D01*
X91792795Y-116349744D01*
X91714774Y-116538102D01*
X91675000Y-116738061D01*
X91675000Y-116941939D01*
X91714774Y-117141898D01*
X91792795Y-117330256D01*
X91906063Y-117499774D01*
X92050226Y-117643937D01*
X92219744Y-117757205D01*
X92408102Y-117835226D01*
X92608061Y-117875000D01*
X92811939Y-117875000D01*
X93011898Y-117835226D01*
X93200256Y-117757205D01*
X93369774Y-117643937D01*
X93513937Y-117499774D01*
X93627205Y-117330256D01*
X93705226Y-117141898D01*
X93745000Y-116941939D01*
X93745000Y-116738061D01*
X93705226Y-116538102D01*
X93627205Y-116349744D01*
X93513937Y-116180226D01*
X93470000Y-116136289D01*
X93470000Y-106717322D01*
X93473676Y-106679999D01*
X93470000Y-106642676D01*
X93470000Y-106642667D01*
X93459003Y-106531014D01*
X93415546Y-106387753D01*
X93344974Y-106255724D01*
X93250001Y-106139999D01*
X93221003Y-106116201D01*
X92003804Y-104899003D01*
X91980001Y-104869999D01*
X91864276Y-104775026D01*
X91732247Y-104704454D01*
X91588986Y-104660997D01*
X91477333Y-104650000D01*
X91477322Y-104650000D01*
X91440000Y-104646324D01*
X91402678Y-104650000D01*
X86674802Y-104650000D01*
X86412562Y-104387761D01*
X86493685Y-104321185D01*
X86573037Y-104224494D01*
X86617905Y-104140553D01*
X86743766Y-104243845D01*
X87019552Y-104391255D01*
X87318797Y-104482030D01*
X87630000Y-104512681D01*
X87941204Y-104482030D01*
X88240449Y-104391255D01*
X88516235Y-104243845D01*
X88757963Y-104045463D01*
X88905162Y-103866100D01*
X89060563Y-104051315D01*
X89303077Y-104245969D01*
X89578906Y-104389571D01*
X89797020Y-104460563D01*
X90043000Y-104340594D01*
X90043000Y-102997000D01*
X90297000Y-102997000D01*
X90297000Y-104340594D01*
X90542980Y-104460563D01*
X90761094Y-104389571D01*
X91036923Y-104245969D01*
X91279437Y-104051315D01*
X91440000Y-103859948D01*
X91600563Y-104051315D01*
X91843077Y-104245969D01*
X92118906Y-104389571D01*
X92337020Y-104460563D01*
X92583000Y-104340594D01*
X92583000Y-102997000D01*
X92837000Y-102997000D01*
X92837000Y-104340594D01*
X93082980Y-104460563D01*
X93301094Y-104389571D01*
X93576923Y-104245969D01*
X93819437Y-104051315D01*
X94019316Y-103813089D01*
X94168879Y-103540446D01*
X94262378Y-103243863D01*
X94135570Y-102997000D01*
X92837000Y-102997000D01*
X92583000Y-102997000D01*
X90297000Y-102997000D01*
X90043000Y-102997000D01*
X90023000Y-102997000D01*
X90023000Y-102743000D01*
X90043000Y-102743000D01*
X90043000Y-101399406D01*
X90297000Y-101399406D01*
X90297000Y-102743000D01*
X92583000Y-102743000D01*
X92583000Y-101399406D01*
X92837000Y-101399406D01*
X92837000Y-102743000D01*
X94135570Y-102743000D01*
X94262378Y-102496137D01*
X94168879Y-102199554D01*
X94019316Y-101926911D01*
X93819437Y-101688685D01*
X93576923Y-101494031D01*
X93301094Y-101350429D01*
X93082980Y-101279437D01*
X92837000Y-101399406D01*
X92583000Y-101399406D01*
X92337020Y-101279437D01*
X92118906Y-101350429D01*
X91843077Y-101494031D01*
X91600563Y-101688685D01*
X91440000Y-101880052D01*
X91279437Y-101688685D01*
X91036923Y-101494031D01*
X90761094Y-101350429D01*
X90542980Y-101279437D01*
X90297000Y-101399406D01*
X90043000Y-101399406D01*
X89797020Y-101279437D01*
X89578906Y-101350429D01*
X89303077Y-101494031D01*
X89060563Y-101688685D01*
X88905163Y-101873899D01*
X88757963Y-101694537D01*
X88516234Y-101496155D01*
X88240448Y-101348745D01*
X87941203Y-101257970D01*
X87630000Y-101227319D01*
X87318796Y-101257970D01*
X87019551Y-101348745D01*
X86743765Y-101496155D01*
X86617905Y-101599446D01*
X86573037Y-101515506D01*
X86493685Y-101418815D01*
X86396994Y-101339463D01*
X86286680Y-101280498D01*
X86166982Y-101244188D01*
X86042500Y-101231928D01*
X84137500Y-101231928D01*
X84013018Y-101244188D01*
X83893320Y-101280498D01*
X83783006Y-101339463D01*
X83686315Y-101418815D01*
X83685000Y-101420417D01*
X83685000Y-85975098D01*
X86515000Y-85975098D01*
X86515000Y-86444902D01*
X86606654Y-86905679D01*
X86786440Y-87339721D01*
X87047450Y-87730349D01*
X87379651Y-88062550D01*
X87770279Y-88323560D01*
X88204321Y-88503346D01*
X88665098Y-88595000D01*
X89134902Y-88595000D01*
X89595679Y-88503346D01*
X90029721Y-88323560D01*
X90420349Y-88062550D01*
X90752550Y-87730349D01*
X91013560Y-87339721D01*
X91193346Y-86905679D01*
X91285000Y-86444902D01*
X91285000Y-85975098D01*
X91193346Y-85514321D01*
X91013560Y-85080279D01*
X90752550Y-84689651D01*
X90420349Y-84357450D01*
X90029721Y-84096440D01*
X89595679Y-83916654D01*
X89134902Y-83825000D01*
X88665098Y-83825000D01*
X88204321Y-83916654D01*
X87770279Y-84096440D01*
X87379651Y-84357450D01*
X87047450Y-84689651D01*
X86786440Y-85080279D01*
X86606654Y-85514321D01*
X86515000Y-85975098D01*
X83685000Y-85975098D01*
X83685000Y-82420000D01*
X108406087Y-82420000D01*
X108432079Y-82683901D01*
X108509056Y-82937661D01*
X108634060Y-83171527D01*
X108802287Y-83376513D01*
X109007273Y-83544740D01*
X109241139Y-83669744D01*
X109307914Y-83690000D01*
X109241139Y-83710256D01*
X109007273Y-83835260D01*
X108802287Y-84003487D01*
X108634060Y-84208473D01*
X108509056Y-84442339D01*
X108432079Y-84696099D01*
X108406087Y-84960000D01*
X108432079Y-85223901D01*
X108509056Y-85477661D01*
X108634060Y-85711527D01*
X108802287Y-85916513D01*
X109007273Y-86084740D01*
X109241139Y-86209744D01*
X109307914Y-86230000D01*
X109241139Y-86250256D01*
X109007273Y-86375260D01*
X108802287Y-86543487D01*
X108634060Y-86748473D01*
X108509056Y-86982339D01*
X108432079Y-87236099D01*
X108406087Y-87500000D01*
X108432079Y-87763901D01*
X108509056Y-88017661D01*
X108634060Y-88251527D01*
X108802287Y-88456513D01*
X109007273Y-88624740D01*
X109241139Y-88749744D01*
X109307914Y-88770000D01*
X109241139Y-88790256D01*
X109007273Y-88915260D01*
X108802287Y-89083487D01*
X108634060Y-89288473D01*
X108509056Y-89522339D01*
X108432079Y-89776099D01*
X108406087Y-90040000D01*
X108432079Y-90303901D01*
X108509056Y-90557661D01*
X108634060Y-90791527D01*
X108802287Y-90996513D01*
X109007273Y-91164740D01*
X109241139Y-91289744D01*
X109307914Y-91310000D01*
X109241139Y-91330256D01*
X109007273Y-91455260D01*
X108802287Y-91623487D01*
X108634060Y-91828473D01*
X108509056Y-92062339D01*
X108432079Y-92316099D01*
X108406087Y-92580000D01*
X108432079Y-92843901D01*
X108509056Y-93097661D01*
X108634060Y-93331527D01*
X108802287Y-93536513D01*
X109007273Y-93704740D01*
X109241139Y-93829744D01*
X109307914Y-93850000D01*
X109241139Y-93870256D01*
X109007273Y-93995260D01*
X108802287Y-94163487D01*
X108634060Y-94368473D01*
X108509056Y-94602339D01*
X108432079Y-94856099D01*
X108406087Y-95120000D01*
X108432079Y-95383901D01*
X108509056Y-95637661D01*
X108634060Y-95871527D01*
X108802287Y-96076513D01*
X109007273Y-96244740D01*
X109241139Y-96369744D01*
X109494899Y-96446721D01*
X109692672Y-96466200D01*
X111247328Y-96466200D01*
X111445101Y-96446721D01*
X111698861Y-96369744D01*
X111932727Y-96244740D01*
X112137713Y-96076513D01*
X112305940Y-95871527D01*
X112430944Y-95637661D01*
X112486326Y-95455089D01*
X131314971Y-95455089D01*
X131326473Y-95517837D01*
X131428919Y-95762313D01*
X131577091Y-95982105D01*
X131765295Y-96168767D01*
X131986299Y-96315126D01*
X132231610Y-96415557D01*
X132491800Y-96466200D01*
X133203000Y-96466200D01*
X133203000Y-95247000D01*
X133457000Y-95247000D01*
X133457000Y-96466200D01*
X134168200Y-96466200D01*
X134428390Y-96415557D01*
X134673701Y-96315126D01*
X134894705Y-96168767D01*
X135082909Y-95982105D01*
X135104552Y-95950000D01*
X138111928Y-95950000D01*
X138124188Y-96074482D01*
X138160498Y-96194180D01*
X138219463Y-96304494D01*
X138298815Y-96401185D01*
X138395506Y-96480537D01*
X138505820Y-96539502D01*
X138625518Y-96575812D01*
X138750000Y-96588072D01*
X139314250Y-96585000D01*
X139473000Y-96426250D01*
X139473000Y-95227000D01*
X139727000Y-95227000D01*
X139727000Y-96426250D01*
X139885750Y-96585000D01*
X140450000Y-96588072D01*
X140574482Y-96575812D01*
X140694180Y-96539502D01*
X140804494Y-96480537D01*
X140901185Y-96401185D01*
X140980537Y-96304494D01*
X141039502Y-96194180D01*
X141075812Y-96074482D01*
X141088072Y-95950000D01*
X141085000Y-95385750D01*
X140926250Y-95227000D01*
X139727000Y-95227000D01*
X139473000Y-95227000D01*
X138273750Y-95227000D01*
X138115000Y-95385750D01*
X138111928Y-95950000D01*
X135104552Y-95950000D01*
X135231081Y-95762313D01*
X135333527Y-95517837D01*
X135345029Y-95455089D01*
X135221839Y-95247000D01*
X133457000Y-95247000D01*
X133203000Y-95247000D01*
X131438161Y-95247000D01*
X131314971Y-95455089D01*
X112486326Y-95455089D01*
X112507921Y-95383901D01*
X112533913Y-95120000D01*
X112507921Y-94856099D01*
X112430944Y-94602339D01*
X112305940Y-94368473D01*
X112137713Y-94163487D01*
X111932727Y-93995260D01*
X111698861Y-93870256D01*
X111632086Y-93850000D01*
X111698861Y-93829744D01*
X111932727Y-93704740D01*
X112137713Y-93536513D01*
X112305940Y-93331527D01*
X112430944Y-93097661D01*
X112507921Y-92843901D01*
X112533913Y-92580000D01*
X112507921Y-92316099D01*
X112430944Y-92062339D01*
X112305940Y-91828473D01*
X112137713Y-91623487D01*
X111932727Y-91455260D01*
X111698861Y-91330256D01*
X111632086Y-91310000D01*
X111698861Y-91289744D01*
X111932727Y-91164740D01*
X112137713Y-90996513D01*
X112305940Y-90791527D01*
X112430944Y-90557661D01*
X112507921Y-90303901D01*
X112533913Y-90040000D01*
X112507921Y-89776099D01*
X112430944Y-89522339D01*
X112305940Y-89288473D01*
X112137713Y-89083487D01*
X111932727Y-88915260D01*
X111698861Y-88790256D01*
X111632086Y-88770000D01*
X111698861Y-88749744D01*
X111932727Y-88624740D01*
X112137713Y-88456513D01*
X112305940Y-88251527D01*
X112430944Y-88017661D01*
X112507921Y-87763901D01*
X112533913Y-87500000D01*
X112507921Y-87236099D01*
X112430944Y-86982339D01*
X112305940Y-86748473D01*
X112137713Y-86543487D01*
X111932727Y-86375260D01*
X111698861Y-86250256D01*
X111632086Y-86230000D01*
X111698861Y-86209744D01*
X111932727Y-86084740D01*
X112137713Y-85916513D01*
X112305940Y-85711527D01*
X112430944Y-85477661D01*
X112507921Y-85223901D01*
X112533913Y-84960000D01*
X112507921Y-84696099D01*
X112430944Y-84442339D01*
X112305940Y-84208473D01*
X112137713Y-84003487D01*
X111932727Y-83835260D01*
X111698861Y-83710256D01*
X111632086Y-83690000D01*
X111698861Y-83669744D01*
X111932727Y-83544740D01*
X112137713Y-83376513D01*
X112305940Y-83171527D01*
X112430944Y-82937661D01*
X112507921Y-82683901D01*
X112533913Y-82420000D01*
X112507921Y-82156099D01*
X112430944Y-81902339D01*
X112305940Y-81668473D01*
X112137713Y-81463487D01*
X111932727Y-81295260D01*
X111698861Y-81170256D01*
X111631356Y-81149779D01*
X111813701Y-81075126D01*
X112034705Y-80928767D01*
X112222909Y-80742105D01*
X112371081Y-80522313D01*
X112473527Y-80277837D01*
X112485029Y-80215089D01*
X112361839Y-80007000D01*
X110597000Y-80007000D01*
X110597000Y-80027000D01*
X110343000Y-80027000D01*
X110343000Y-80007000D01*
X108578161Y-80007000D01*
X108454971Y-80215089D01*
X108466473Y-80277837D01*
X108568919Y-80522313D01*
X108717091Y-80742105D01*
X108905295Y-80928767D01*
X109126299Y-81075126D01*
X109308644Y-81149779D01*
X109241139Y-81170256D01*
X109007273Y-81295260D01*
X108802287Y-81463487D01*
X108634060Y-81668473D01*
X108509056Y-81902339D01*
X108432079Y-82156099D01*
X108406087Y-82420000D01*
X83685000Y-82420000D01*
X83685000Y-76144248D01*
X83668577Y-75977501D01*
X83603676Y-75763553D01*
X83498284Y-75566377D01*
X83356449Y-75393551D01*
X83183623Y-75251716D01*
X82986446Y-75146324D01*
X82772498Y-75081423D01*
X82550000Y-75059509D01*
X82327501Y-75081423D01*
X82113553Y-75146324D01*
X81916377Y-75251716D01*
X81743551Y-75393551D01*
X81601716Y-75566377D01*
X81496324Y-75763554D01*
X81460662Y-75881114D01*
X81437932Y-75766842D01*
X81325990Y-75496589D01*
X81163475Y-75253368D01*
X80956632Y-75046525D01*
X80713411Y-74884010D01*
X80578338Y-74828061D01*
X87865000Y-74828061D01*
X87865000Y-75031939D01*
X87904774Y-75231898D01*
X87982795Y-75420256D01*
X88096063Y-75589774D01*
X88140000Y-75633711D01*
X88140001Y-79306288D01*
X88096063Y-79350226D01*
X87982795Y-79519744D01*
X87904774Y-79708102D01*
X87865000Y-79908061D01*
X87865000Y-80111939D01*
X87904774Y-80311898D01*
X87982795Y-80500256D01*
X88096063Y-80669774D01*
X88240226Y-80813937D01*
X88409744Y-80927205D01*
X88598102Y-81005226D01*
X88798061Y-81045000D01*
X89001939Y-81045000D01*
X89201898Y-81005226D01*
X89390256Y-80927205D01*
X89559774Y-80813937D01*
X89703937Y-80669774D01*
X89817205Y-80500256D01*
X89895226Y-80311898D01*
X89935000Y-80111939D01*
X89935000Y-79908061D01*
X89895226Y-79708102D01*
X89817205Y-79519744D01*
X89703937Y-79350226D01*
X89660000Y-79306289D01*
X89660000Y-75633711D01*
X89703937Y-75589774D01*
X89817205Y-75420256D01*
X89895226Y-75231898D01*
X89935000Y-75031939D01*
X89935000Y-74828061D01*
X89895226Y-74628102D01*
X89817205Y-74439744D01*
X89703937Y-74270226D01*
X89559774Y-74126063D01*
X89390256Y-74012795D01*
X89201898Y-73934774D01*
X89001939Y-73895000D01*
X88798061Y-73895000D01*
X88598102Y-73934774D01*
X88409744Y-74012795D01*
X88240226Y-74126063D01*
X88096063Y-74270226D01*
X87982795Y-74439744D01*
X87904774Y-74628102D01*
X87865000Y-74828061D01*
X80578338Y-74828061D01*
X80443158Y-74772068D01*
X80156260Y-74715000D01*
X79863740Y-74715000D01*
X79576842Y-74772068D01*
X79306589Y-74884010D01*
X79063368Y-75046525D01*
X78856525Y-75253368D01*
X78694010Y-75496589D01*
X78582068Y-75766842D01*
X78525000Y-76053740D01*
X78525000Y-76346260D01*
X78582068Y-76633158D01*
X78694010Y-76903411D01*
X78856525Y-77146632D01*
X78988380Y-77278487D01*
X78915820Y-77300498D01*
X78805506Y-77359463D01*
X78708815Y-77438815D01*
X78629463Y-77535506D01*
X78570498Y-77645820D01*
X78534188Y-77765518D01*
X78521928Y-77890000D01*
X77597000Y-77890000D01*
X77597000Y-73558061D01*
X95485000Y-73558061D01*
X95485000Y-73761939D01*
X95524774Y-73961898D01*
X95602795Y-74150256D01*
X95716063Y-74319774D01*
X95860226Y-74463937D01*
X96029744Y-74577205D01*
X96218102Y-74655226D01*
X96418061Y-74695000D01*
X96621939Y-74695000D01*
X96821898Y-74655226D01*
X97010256Y-74577205D01*
X97179774Y-74463937D01*
X97223711Y-74420000D01*
X97475199Y-74420000D01*
X98300000Y-75244802D01*
X98300000Y-75290473D01*
X98270149Y-75299528D01*
X98116613Y-75381595D01*
X97982038Y-75492038D01*
X97871595Y-75626613D01*
X97789528Y-75780149D01*
X97738992Y-75946745D01*
X97721928Y-76119999D01*
X97721928Y-76435000D01*
X97688069Y-76435000D01*
X97488110Y-76474774D01*
X97299752Y-76552795D01*
X97130234Y-76666063D01*
X96986071Y-76810226D01*
X96872803Y-76979744D01*
X96794782Y-77168102D01*
X96755008Y-77368061D01*
X96755008Y-77571939D01*
X96794782Y-77771898D01*
X96872803Y-77960256D01*
X96986071Y-78129774D01*
X97096991Y-78240694D01*
X97155034Y-78349284D01*
X97186155Y-78387205D01*
X97250007Y-78465009D01*
X97279010Y-78488811D01*
X97734135Y-78943937D01*
X97738992Y-78993255D01*
X97789528Y-79159851D01*
X97871595Y-79313387D01*
X97982038Y-79447962D01*
X98116613Y-79558405D01*
X98270149Y-79640472D01*
X98436745Y-79691008D01*
X98609999Y-79708072D01*
X99510001Y-79708072D01*
X99683255Y-79691008D01*
X99849851Y-79640472D01*
X100003387Y-79558405D01*
X100137962Y-79447962D01*
X100248405Y-79313387D01*
X100330472Y-79159851D01*
X100381008Y-78993255D01*
X100398072Y-78820001D01*
X100398072Y-78169999D01*
X100381008Y-77996745D01*
X100330472Y-77830149D01*
X100248405Y-77676613D01*
X100137962Y-77542038D01*
X100050184Y-77470000D01*
X100137962Y-77397962D01*
X100185530Y-77340000D01*
X108406087Y-77340000D01*
X108432079Y-77603901D01*
X108509056Y-77857661D01*
X108634060Y-78091527D01*
X108802287Y-78296513D01*
X109007273Y-78464740D01*
X109241139Y-78589744D01*
X109308644Y-78610221D01*
X109126299Y-78684874D01*
X108905295Y-78831233D01*
X108717091Y-79017895D01*
X108568919Y-79237687D01*
X108466473Y-79482163D01*
X108454971Y-79544911D01*
X108578161Y-79753000D01*
X110343000Y-79753000D01*
X110343000Y-79733000D01*
X110597000Y-79733000D01*
X110597000Y-79753000D01*
X112361839Y-79753000D01*
X112485029Y-79544911D01*
X112473527Y-79482163D01*
X112371081Y-79237687D01*
X112222909Y-79017895D01*
X112034705Y-78831233D01*
X111813701Y-78684874D01*
X111631356Y-78610221D01*
X111698861Y-78589744D01*
X111932727Y-78464740D01*
X112137713Y-78296513D01*
X112305940Y-78091527D01*
X112430944Y-77857661D01*
X112507921Y-77603901D01*
X112533913Y-77340000D01*
X131266087Y-77340000D01*
X131292079Y-77603901D01*
X131369056Y-77857661D01*
X131494060Y-78091527D01*
X131662287Y-78296513D01*
X131867273Y-78464740D01*
X132101139Y-78589744D01*
X132167914Y-78610000D01*
X132101139Y-78630256D01*
X131867273Y-78755260D01*
X131662287Y-78923487D01*
X131494060Y-79128473D01*
X131369056Y-79362339D01*
X131292079Y-79616099D01*
X131266087Y-79880000D01*
X131292079Y-80143901D01*
X131369056Y-80397661D01*
X131494060Y-80631527D01*
X131662287Y-80836513D01*
X131867273Y-81004740D01*
X132101139Y-81129744D01*
X132167914Y-81150000D01*
X132101139Y-81170256D01*
X131867273Y-81295260D01*
X131662287Y-81463487D01*
X131494060Y-81668473D01*
X131369056Y-81902339D01*
X131292079Y-82156099D01*
X131266087Y-82420000D01*
X131292079Y-82683901D01*
X131369056Y-82937661D01*
X131494060Y-83171527D01*
X131662287Y-83376513D01*
X131867273Y-83544740D01*
X132101139Y-83669744D01*
X132167914Y-83690000D01*
X132101139Y-83710256D01*
X131867273Y-83835260D01*
X131662287Y-84003487D01*
X131494060Y-84208473D01*
X131369056Y-84442339D01*
X131292079Y-84696099D01*
X131266087Y-84960000D01*
X131292079Y-85223901D01*
X131369056Y-85477661D01*
X131494060Y-85711527D01*
X131662287Y-85916513D01*
X131867273Y-86084740D01*
X132101139Y-86209744D01*
X132167914Y-86230000D01*
X132101139Y-86250256D01*
X131867273Y-86375260D01*
X131662287Y-86543487D01*
X131494060Y-86748473D01*
X131369056Y-86982339D01*
X131292079Y-87236099D01*
X131266087Y-87500000D01*
X131292079Y-87763901D01*
X131369056Y-88017661D01*
X131494060Y-88251527D01*
X131662287Y-88456513D01*
X131867273Y-88624740D01*
X132101139Y-88749744D01*
X132167914Y-88770000D01*
X132101139Y-88790256D01*
X131867273Y-88915260D01*
X131662287Y-89083487D01*
X131494060Y-89288473D01*
X131369056Y-89522339D01*
X131292079Y-89776099D01*
X131266087Y-90040000D01*
X131292079Y-90303901D01*
X131369056Y-90557661D01*
X131494060Y-90791527D01*
X131662287Y-90996513D01*
X131867273Y-91164740D01*
X132101139Y-91289744D01*
X132167914Y-91310000D01*
X132101139Y-91330256D01*
X131867273Y-91455260D01*
X131662287Y-91623487D01*
X131494060Y-91828473D01*
X131369056Y-92062339D01*
X131292079Y-92316099D01*
X131266087Y-92580000D01*
X131292079Y-92843901D01*
X131369056Y-93097661D01*
X131494060Y-93331527D01*
X131662287Y-93536513D01*
X131867273Y-93704740D01*
X132101139Y-93829744D01*
X132168644Y-93850221D01*
X131986299Y-93924874D01*
X131765295Y-94071233D01*
X131577091Y-94257895D01*
X131428919Y-94477687D01*
X131326473Y-94722163D01*
X131314971Y-94784911D01*
X131438161Y-94993000D01*
X133203000Y-94993000D01*
X133203000Y-94973000D01*
X133457000Y-94973000D01*
X133457000Y-94993000D01*
X135221839Y-94993000D01*
X135345029Y-94784911D01*
X135333527Y-94722163D01*
X135231081Y-94477687D01*
X135082909Y-94257895D01*
X135074949Y-94250000D01*
X138111928Y-94250000D01*
X138115000Y-94814250D01*
X138273750Y-94973000D01*
X139473000Y-94973000D01*
X139473000Y-94953000D01*
X139727000Y-94953000D01*
X139727000Y-94973000D01*
X140926250Y-94973000D01*
X141085000Y-94814250D01*
X141088072Y-94250000D01*
X141075812Y-94125518D01*
X141039502Y-94005820D01*
X140980537Y-93895506D01*
X140901185Y-93798815D01*
X140804494Y-93719463D01*
X140694180Y-93660498D01*
X140621620Y-93638487D01*
X140753475Y-93506632D01*
X140915990Y-93263411D01*
X141027932Y-92993158D01*
X141085000Y-92706260D01*
X141085000Y-92413740D01*
X141027932Y-92126842D01*
X140915990Y-91856589D01*
X140753475Y-91613368D01*
X140546632Y-91406525D01*
X140372240Y-91290000D01*
X140546632Y-91173475D01*
X140753475Y-90966632D01*
X140915990Y-90723411D01*
X141027932Y-90453158D01*
X141085000Y-90166260D01*
X141085000Y-89873740D01*
X141027932Y-89586842D01*
X140915990Y-89316589D01*
X140753475Y-89073368D01*
X140546632Y-88866525D01*
X140303411Y-88704010D01*
X140033158Y-88592068D01*
X139746260Y-88535000D01*
X139453740Y-88535000D01*
X139166842Y-88592068D01*
X138896589Y-88704010D01*
X138653368Y-88866525D01*
X138446525Y-89073368D01*
X138284010Y-89316589D01*
X138172068Y-89586842D01*
X138115000Y-89873740D01*
X138115000Y-90166260D01*
X138172068Y-90453158D01*
X138284010Y-90723411D01*
X138446525Y-90966632D01*
X138653368Y-91173475D01*
X138827760Y-91290000D01*
X138653368Y-91406525D01*
X138446525Y-91613368D01*
X138284010Y-91856589D01*
X138172068Y-92126842D01*
X138115000Y-92413740D01*
X138115000Y-92706260D01*
X138172068Y-92993158D01*
X138284010Y-93263411D01*
X138446525Y-93506632D01*
X138578380Y-93638487D01*
X138505820Y-93660498D01*
X138395506Y-93719463D01*
X138298815Y-93798815D01*
X138219463Y-93895506D01*
X138160498Y-94005820D01*
X138124188Y-94125518D01*
X138111928Y-94250000D01*
X135074949Y-94250000D01*
X134894705Y-94071233D01*
X134673701Y-93924874D01*
X134491356Y-93850221D01*
X134558861Y-93829744D01*
X134792727Y-93704740D01*
X134997713Y-93536513D01*
X135165940Y-93331527D01*
X135290944Y-93097661D01*
X135367921Y-92843901D01*
X135393913Y-92580000D01*
X135367921Y-92316099D01*
X135290944Y-92062339D01*
X135165940Y-91828473D01*
X134997713Y-91623487D01*
X134792727Y-91455260D01*
X134558861Y-91330256D01*
X134492086Y-91310000D01*
X134558861Y-91289744D01*
X134792727Y-91164740D01*
X134997713Y-90996513D01*
X135165940Y-90791527D01*
X135290944Y-90557661D01*
X135367921Y-90303901D01*
X135393913Y-90040000D01*
X135367921Y-89776099D01*
X135290944Y-89522339D01*
X135165940Y-89288473D01*
X134997713Y-89083487D01*
X134792727Y-88915260D01*
X134558861Y-88790256D01*
X134492086Y-88770000D01*
X134558861Y-88749744D01*
X134792727Y-88624740D01*
X134997713Y-88456513D01*
X135165940Y-88251527D01*
X135290944Y-88017661D01*
X135367921Y-87763901D01*
X135393913Y-87500000D01*
X135367921Y-87236099D01*
X135290944Y-86982339D01*
X135165940Y-86748473D01*
X134997713Y-86543487D01*
X134792727Y-86375260D01*
X134558861Y-86250256D01*
X134492086Y-86230000D01*
X134558861Y-86209744D01*
X134792727Y-86084740D01*
X134997713Y-85916513D01*
X135165940Y-85711527D01*
X135290944Y-85477661D01*
X135367921Y-85223901D01*
X135393913Y-84960000D01*
X135367921Y-84696099D01*
X135290944Y-84442339D01*
X135165940Y-84208473D01*
X134997713Y-84003487D01*
X134792727Y-83835260D01*
X134558861Y-83710256D01*
X134492086Y-83690000D01*
X134558861Y-83669744D01*
X134792727Y-83544740D01*
X134997713Y-83376513D01*
X135165940Y-83171527D01*
X135290944Y-82937661D01*
X135367921Y-82683901D01*
X135393913Y-82420000D01*
X135367921Y-82156099D01*
X135290944Y-81902339D01*
X135165940Y-81668473D01*
X134997713Y-81463487D01*
X134792727Y-81295260D01*
X134558861Y-81170256D01*
X134492086Y-81150000D01*
X134558861Y-81129744D01*
X134792727Y-81004740D01*
X134997713Y-80836513D01*
X135165940Y-80631527D01*
X135290944Y-80397661D01*
X135367921Y-80143901D01*
X135393913Y-79880000D01*
X135367921Y-79616099D01*
X135290944Y-79362339D01*
X135165940Y-79128473D01*
X134997713Y-78923487D01*
X134792727Y-78755260D01*
X134558861Y-78630256D01*
X134492086Y-78610000D01*
X134558861Y-78589744D01*
X134792727Y-78464740D01*
X134997713Y-78296513D01*
X135165940Y-78091527D01*
X135290944Y-77857661D01*
X135367921Y-77603901D01*
X135393913Y-77340000D01*
X135367921Y-77076099D01*
X135290944Y-76822339D01*
X135165940Y-76588473D01*
X134997713Y-76383487D01*
X134792727Y-76215260D01*
X134558861Y-76090256D01*
X134305101Y-76013279D01*
X134107328Y-75993800D01*
X132552672Y-75993800D01*
X132354899Y-76013279D01*
X132101139Y-76090256D01*
X131867273Y-76215260D01*
X131662287Y-76383487D01*
X131494060Y-76588473D01*
X131369056Y-76822339D01*
X131292079Y-77076099D01*
X131266087Y-77340000D01*
X112533913Y-77340000D01*
X112507921Y-77076099D01*
X112430944Y-76822339D01*
X112305940Y-76588473D01*
X112137713Y-76383487D01*
X111932727Y-76215260D01*
X111698861Y-76090256D01*
X111445101Y-76013279D01*
X111247328Y-75993800D01*
X109692672Y-75993800D01*
X109494899Y-76013279D01*
X109241139Y-76090256D01*
X109007273Y-76215260D01*
X108802287Y-76383487D01*
X108634060Y-76588473D01*
X108509056Y-76822339D01*
X108432079Y-77076099D01*
X108406087Y-77340000D01*
X100185530Y-77340000D01*
X100248405Y-77263387D01*
X100330472Y-77109851D01*
X100381008Y-76943255D01*
X100398072Y-76770001D01*
X100398072Y-76119999D01*
X100381008Y-75946745D01*
X100330472Y-75780149D01*
X100248405Y-75626613D01*
X100137962Y-75492038D01*
X100003387Y-75381595D01*
X99849851Y-75299528D01*
X99820000Y-75290473D01*
X99820000Y-74967322D01*
X99823676Y-74929999D01*
X99820000Y-74892676D01*
X99820000Y-74892667D01*
X99809003Y-74781014D01*
X99765546Y-74637753D01*
X99694974Y-74505724D01*
X99600001Y-74389999D01*
X99571004Y-74366202D01*
X98353804Y-73149003D01*
X98330001Y-73119999D01*
X98214276Y-73025026D01*
X98082247Y-72954454D01*
X97938986Y-72910997D01*
X97827333Y-72900000D01*
X97827322Y-72900000D01*
X97790000Y-72896324D01*
X97752678Y-72900000D01*
X97223711Y-72900000D01*
X97179774Y-72856063D01*
X97010256Y-72742795D01*
X96821898Y-72664774D01*
X96621939Y-72625000D01*
X96418061Y-72625000D01*
X96218102Y-72664774D01*
X96029744Y-72742795D01*
X95860226Y-72856063D01*
X95716063Y-73000226D01*
X95602795Y-73169744D01*
X95524774Y-73358102D01*
X95485000Y-73558061D01*
X77597000Y-73558061D01*
X77597000Y-64897000D01*
X144653000Y-64897000D01*
X144653000Y-120523000D01*
M02*
