G04 #@! TF.GenerationSoftware,KiCad,Pcbnew,5.1.5+dfsg1-2build2*
G04 #@! TF.CreationDate,2021-09-27T21:09:23+08:00*
G04 #@! TF.ProjectId,esp32-cam,65737033-322d-4636-916d-2e6b69636164,rev?*
G04 #@! TF.SameCoordinates,Original*
G04 #@! TF.FileFunction,Copper,L1,Top*
G04 #@! TF.FilePolarity,Positive*
%FSLAX46Y46*%
G04 Gerber Fmt 4.6, Leading zero omitted, Abs format (unit mm)*
G04 Created by KiCad (PCBNEW 5.1.5+dfsg1-2build2) date 2021-09-27 21:09:23*
%MOMM*%
%LPD*%
G04 APERTURE LIST*
%ADD10O,2.844800X1.422400*%
%ADD11C,0.100000*%
%ADD12R,1.333500X0.431800*%
%ADD13R,1.752600X2.946400*%
%ADD14O,1.700000X1.700000*%
%ADD15R,1.700000X1.700000*%
%ADD16R,1.320800X0.406400*%
%ADD17O,1.905000X2.000000*%
%ADD18R,1.905000X2.000000*%
%ADD19C,0.800000*%
%ADD20C,0.250000*%
%ADD21C,0.500000*%
%ADD22C,1.000000*%
%ADD23C,0.254000*%
G04 APERTURE END LIST*
D10*
X110470000Y-77340000D03*
X110470000Y-79880000D03*
X110470000Y-82420000D03*
X110470000Y-84960000D03*
X110470000Y-87500000D03*
X110470000Y-90040000D03*
X110470000Y-92580000D03*
X110470000Y-95120000D03*
X133330000Y-95120000D03*
X133330000Y-92580000D03*
X133330000Y-90040000D03*
X133330000Y-87500000D03*
X133330000Y-84960000D03*
X133330000Y-82420000D03*
X133330000Y-79880000D03*
X133330000Y-77340000D03*
G04 #@! TA.AperFunction,SMDPad,CuDef*
D11*
G36*
X88224505Y-107251204D02*
G01*
X88248773Y-107254804D01*
X88272572Y-107260765D01*
X88295671Y-107269030D01*
X88317850Y-107279520D01*
X88338893Y-107292132D01*
X88358599Y-107306747D01*
X88376777Y-107323223D01*
X88393253Y-107341401D01*
X88407868Y-107361107D01*
X88420480Y-107382150D01*
X88430970Y-107404329D01*
X88439235Y-107427428D01*
X88445196Y-107451227D01*
X88448796Y-107475495D01*
X88450000Y-107499999D01*
X88450000Y-108400001D01*
X88448796Y-108424505D01*
X88445196Y-108448773D01*
X88439235Y-108472572D01*
X88430970Y-108495671D01*
X88420480Y-108517850D01*
X88407868Y-108538893D01*
X88393253Y-108558599D01*
X88376777Y-108576777D01*
X88358599Y-108593253D01*
X88338893Y-108607868D01*
X88317850Y-108620480D01*
X88295671Y-108630970D01*
X88272572Y-108639235D01*
X88248773Y-108645196D01*
X88224505Y-108648796D01*
X88200001Y-108650000D01*
X87549999Y-108650000D01*
X87525495Y-108648796D01*
X87501227Y-108645196D01*
X87477428Y-108639235D01*
X87454329Y-108630970D01*
X87432150Y-108620480D01*
X87411107Y-108607868D01*
X87391401Y-108593253D01*
X87373223Y-108576777D01*
X87356747Y-108558599D01*
X87342132Y-108538893D01*
X87329520Y-108517850D01*
X87319030Y-108495671D01*
X87310765Y-108472572D01*
X87304804Y-108448773D01*
X87301204Y-108424505D01*
X87300000Y-108400001D01*
X87300000Y-107499999D01*
X87301204Y-107475495D01*
X87304804Y-107451227D01*
X87310765Y-107427428D01*
X87319030Y-107404329D01*
X87329520Y-107382150D01*
X87342132Y-107361107D01*
X87356747Y-107341401D01*
X87373223Y-107323223D01*
X87391401Y-107306747D01*
X87411107Y-107292132D01*
X87432150Y-107279520D01*
X87454329Y-107269030D01*
X87477428Y-107260765D01*
X87501227Y-107254804D01*
X87525495Y-107251204D01*
X87549999Y-107250000D01*
X88200001Y-107250000D01*
X88224505Y-107251204D01*
G37*
G04 #@! TD.AperFunction*
G04 #@! TA.AperFunction,SMDPad,CuDef*
G36*
X90274505Y-107251204D02*
G01*
X90298773Y-107254804D01*
X90322572Y-107260765D01*
X90345671Y-107269030D01*
X90367850Y-107279520D01*
X90388893Y-107292132D01*
X90408599Y-107306747D01*
X90426777Y-107323223D01*
X90443253Y-107341401D01*
X90457868Y-107361107D01*
X90470480Y-107382150D01*
X90480970Y-107404329D01*
X90489235Y-107427428D01*
X90495196Y-107451227D01*
X90498796Y-107475495D01*
X90500000Y-107499999D01*
X90500000Y-108400001D01*
X90498796Y-108424505D01*
X90495196Y-108448773D01*
X90489235Y-108472572D01*
X90480970Y-108495671D01*
X90470480Y-108517850D01*
X90457868Y-108538893D01*
X90443253Y-108558599D01*
X90426777Y-108576777D01*
X90408599Y-108593253D01*
X90388893Y-108607868D01*
X90367850Y-108620480D01*
X90345671Y-108630970D01*
X90322572Y-108639235D01*
X90298773Y-108645196D01*
X90274505Y-108648796D01*
X90250001Y-108650000D01*
X89599999Y-108650000D01*
X89575495Y-108648796D01*
X89551227Y-108645196D01*
X89527428Y-108639235D01*
X89504329Y-108630970D01*
X89482150Y-108620480D01*
X89461107Y-108607868D01*
X89441401Y-108593253D01*
X89423223Y-108576777D01*
X89406747Y-108558599D01*
X89392132Y-108538893D01*
X89379520Y-108517850D01*
X89369030Y-108495671D01*
X89360765Y-108472572D01*
X89354804Y-108448773D01*
X89351204Y-108424505D01*
X89350000Y-108400001D01*
X89350000Y-107499999D01*
X89351204Y-107475495D01*
X89354804Y-107451227D01*
X89360765Y-107427428D01*
X89369030Y-107404329D01*
X89379520Y-107382150D01*
X89392132Y-107361107D01*
X89406747Y-107341401D01*
X89423223Y-107323223D01*
X89441401Y-107306747D01*
X89461107Y-107292132D01*
X89482150Y-107279520D01*
X89504329Y-107269030D01*
X89527428Y-107260765D01*
X89551227Y-107254804D01*
X89575495Y-107251204D01*
X89599999Y-107250000D01*
X90250001Y-107250000D01*
X90274505Y-107251204D01*
G37*
G04 #@! TD.AperFunction*
D12*
X90493850Y-75844400D03*
X90493850Y-76494640D03*
X90493850Y-77144880D03*
X90493850Y-77795120D03*
X90493850Y-78445360D03*
X90493850Y-79095600D03*
X94926150Y-79095600D03*
X94926150Y-78445360D03*
X94926150Y-77795120D03*
X94926150Y-77144880D03*
X94926150Y-76494640D03*
X94926150Y-75844400D03*
D13*
X92710000Y-77470000D03*
D14*
X139600000Y-90020000D03*
X139600000Y-92560000D03*
D15*
X139600000Y-95100000D03*
G04 #@! TA.AperFunction,SMDPad,CuDef*
D11*
G36*
X99164505Y-104711204D02*
G01*
X99188773Y-104714804D01*
X99212572Y-104720765D01*
X99235671Y-104729030D01*
X99257850Y-104739520D01*
X99278893Y-104752132D01*
X99298599Y-104766747D01*
X99316777Y-104783223D01*
X99333253Y-104801401D01*
X99347868Y-104821107D01*
X99360480Y-104842150D01*
X99370970Y-104864329D01*
X99379235Y-104887428D01*
X99385196Y-104911227D01*
X99388796Y-104935495D01*
X99390000Y-104959999D01*
X99390000Y-105860001D01*
X99388796Y-105884505D01*
X99385196Y-105908773D01*
X99379235Y-105932572D01*
X99370970Y-105955671D01*
X99360480Y-105977850D01*
X99347868Y-105998893D01*
X99333253Y-106018599D01*
X99316777Y-106036777D01*
X99298599Y-106053253D01*
X99278893Y-106067868D01*
X99257850Y-106080480D01*
X99235671Y-106090970D01*
X99212572Y-106099235D01*
X99188773Y-106105196D01*
X99164505Y-106108796D01*
X99140001Y-106110000D01*
X98489999Y-106110000D01*
X98465495Y-106108796D01*
X98441227Y-106105196D01*
X98417428Y-106099235D01*
X98394329Y-106090970D01*
X98372150Y-106080480D01*
X98351107Y-106067868D01*
X98331401Y-106053253D01*
X98313223Y-106036777D01*
X98296747Y-106018599D01*
X98282132Y-105998893D01*
X98269520Y-105977850D01*
X98259030Y-105955671D01*
X98250765Y-105932572D01*
X98244804Y-105908773D01*
X98241204Y-105884505D01*
X98240000Y-105860001D01*
X98240000Y-104959999D01*
X98241204Y-104935495D01*
X98244804Y-104911227D01*
X98250765Y-104887428D01*
X98259030Y-104864329D01*
X98269520Y-104842150D01*
X98282132Y-104821107D01*
X98296747Y-104801401D01*
X98313223Y-104783223D01*
X98331401Y-104766747D01*
X98351107Y-104752132D01*
X98372150Y-104739520D01*
X98394329Y-104729030D01*
X98417428Y-104720765D01*
X98441227Y-104714804D01*
X98465495Y-104711204D01*
X98489999Y-104710000D01*
X99140001Y-104710000D01*
X99164505Y-104711204D01*
G37*
G04 #@! TD.AperFunction*
G04 #@! TA.AperFunction,SMDPad,CuDef*
G36*
X97114505Y-104711204D02*
G01*
X97138773Y-104714804D01*
X97162572Y-104720765D01*
X97185671Y-104729030D01*
X97207850Y-104739520D01*
X97228893Y-104752132D01*
X97248599Y-104766747D01*
X97266777Y-104783223D01*
X97283253Y-104801401D01*
X97297868Y-104821107D01*
X97310480Y-104842150D01*
X97320970Y-104864329D01*
X97329235Y-104887428D01*
X97335196Y-104911227D01*
X97338796Y-104935495D01*
X97340000Y-104959999D01*
X97340000Y-105860001D01*
X97338796Y-105884505D01*
X97335196Y-105908773D01*
X97329235Y-105932572D01*
X97320970Y-105955671D01*
X97310480Y-105977850D01*
X97297868Y-105998893D01*
X97283253Y-106018599D01*
X97266777Y-106036777D01*
X97248599Y-106053253D01*
X97228893Y-106067868D01*
X97207850Y-106080480D01*
X97185671Y-106090970D01*
X97162572Y-106099235D01*
X97138773Y-106105196D01*
X97114505Y-106108796D01*
X97090001Y-106110000D01*
X96439999Y-106110000D01*
X96415495Y-106108796D01*
X96391227Y-106105196D01*
X96367428Y-106099235D01*
X96344329Y-106090970D01*
X96322150Y-106080480D01*
X96301107Y-106067868D01*
X96281401Y-106053253D01*
X96263223Y-106036777D01*
X96246747Y-106018599D01*
X96232132Y-105998893D01*
X96219520Y-105977850D01*
X96209030Y-105955671D01*
X96200765Y-105932572D01*
X96194804Y-105908773D01*
X96191204Y-105884505D01*
X96190000Y-105860001D01*
X96190000Y-104959999D01*
X96191204Y-104935495D01*
X96194804Y-104911227D01*
X96200765Y-104887428D01*
X96209030Y-104864329D01*
X96219520Y-104842150D01*
X96232132Y-104821107D01*
X96246747Y-104801401D01*
X96263223Y-104783223D01*
X96281401Y-104766747D01*
X96301107Y-104752132D01*
X96322150Y-104739520D01*
X96344329Y-104729030D01*
X96367428Y-104720765D01*
X96391227Y-104714804D01*
X96415495Y-104711204D01*
X96439999Y-104710000D01*
X97090001Y-104710000D01*
X97114505Y-104711204D01*
G37*
G04 #@! TD.AperFunction*
D16*
X99999800Y-111465360D03*
X99999800Y-110815120D03*
X99999800Y-110164880D03*
X99999800Y-109514640D03*
X95580200Y-109514640D03*
X95580200Y-110164880D03*
X95580200Y-110815120D03*
X95580200Y-111465360D03*
G04 #@! TA.AperFunction,SMDPad,CuDef*
D11*
G36*
X105884505Y-77921204D02*
G01*
X105908773Y-77924804D01*
X105932572Y-77930765D01*
X105955671Y-77939030D01*
X105977850Y-77949520D01*
X105998893Y-77962132D01*
X106018599Y-77976747D01*
X106036777Y-77993223D01*
X106053253Y-78011401D01*
X106067868Y-78031107D01*
X106080480Y-78052150D01*
X106090970Y-78074329D01*
X106099235Y-78097428D01*
X106105196Y-78121227D01*
X106108796Y-78145495D01*
X106110000Y-78169999D01*
X106110000Y-78820001D01*
X106108796Y-78844505D01*
X106105196Y-78868773D01*
X106099235Y-78892572D01*
X106090970Y-78915671D01*
X106080480Y-78937850D01*
X106067868Y-78958893D01*
X106053253Y-78978599D01*
X106036777Y-78996777D01*
X106018599Y-79013253D01*
X105998893Y-79027868D01*
X105977850Y-79040480D01*
X105955671Y-79050970D01*
X105932572Y-79059235D01*
X105908773Y-79065196D01*
X105884505Y-79068796D01*
X105860001Y-79070000D01*
X104959999Y-79070000D01*
X104935495Y-79068796D01*
X104911227Y-79065196D01*
X104887428Y-79059235D01*
X104864329Y-79050970D01*
X104842150Y-79040480D01*
X104821107Y-79027868D01*
X104801401Y-79013253D01*
X104783223Y-78996777D01*
X104766747Y-78978599D01*
X104752132Y-78958893D01*
X104739520Y-78937850D01*
X104729030Y-78915671D01*
X104720765Y-78892572D01*
X104714804Y-78868773D01*
X104711204Y-78844505D01*
X104710000Y-78820001D01*
X104710000Y-78169999D01*
X104711204Y-78145495D01*
X104714804Y-78121227D01*
X104720765Y-78097428D01*
X104729030Y-78074329D01*
X104739520Y-78052150D01*
X104752132Y-78031107D01*
X104766747Y-78011401D01*
X104783223Y-77993223D01*
X104801401Y-77976747D01*
X104821107Y-77962132D01*
X104842150Y-77949520D01*
X104864329Y-77939030D01*
X104887428Y-77930765D01*
X104911227Y-77924804D01*
X104935495Y-77921204D01*
X104959999Y-77920000D01*
X105860001Y-77920000D01*
X105884505Y-77921204D01*
G37*
G04 #@! TD.AperFunction*
G04 #@! TA.AperFunction,SMDPad,CuDef*
G36*
X105884505Y-75871204D02*
G01*
X105908773Y-75874804D01*
X105932572Y-75880765D01*
X105955671Y-75889030D01*
X105977850Y-75899520D01*
X105998893Y-75912132D01*
X106018599Y-75926747D01*
X106036777Y-75943223D01*
X106053253Y-75961401D01*
X106067868Y-75981107D01*
X106080480Y-76002150D01*
X106090970Y-76024329D01*
X106099235Y-76047428D01*
X106105196Y-76071227D01*
X106108796Y-76095495D01*
X106110000Y-76119999D01*
X106110000Y-76770001D01*
X106108796Y-76794505D01*
X106105196Y-76818773D01*
X106099235Y-76842572D01*
X106090970Y-76865671D01*
X106080480Y-76887850D01*
X106067868Y-76908893D01*
X106053253Y-76928599D01*
X106036777Y-76946777D01*
X106018599Y-76963253D01*
X105998893Y-76977868D01*
X105977850Y-76990480D01*
X105955671Y-77000970D01*
X105932572Y-77009235D01*
X105908773Y-77015196D01*
X105884505Y-77018796D01*
X105860001Y-77020000D01*
X104959999Y-77020000D01*
X104935495Y-77018796D01*
X104911227Y-77015196D01*
X104887428Y-77009235D01*
X104864329Y-77000970D01*
X104842150Y-76990480D01*
X104821107Y-76977868D01*
X104801401Y-76963253D01*
X104783223Y-76946777D01*
X104766747Y-76928599D01*
X104752132Y-76908893D01*
X104739520Y-76887850D01*
X104729030Y-76865671D01*
X104720765Y-76842572D01*
X104714804Y-76818773D01*
X104711204Y-76794505D01*
X104710000Y-76770001D01*
X104710000Y-76119999D01*
X104711204Y-76095495D01*
X104714804Y-76071227D01*
X104720765Y-76047428D01*
X104729030Y-76024329D01*
X104739520Y-76002150D01*
X104752132Y-75981107D01*
X104766747Y-75961401D01*
X104783223Y-75943223D01*
X104801401Y-75926747D01*
X104821107Y-75912132D01*
X104842150Y-75899520D01*
X104864329Y-75889030D01*
X104887428Y-75880765D01*
X104911227Y-75874804D01*
X104935495Y-75871204D01*
X104959999Y-75870000D01*
X105860001Y-75870000D01*
X105884505Y-75871204D01*
G37*
G04 #@! TD.AperFunction*
G04 #@! TA.AperFunction,SMDPad,CuDef*
G36*
X102074505Y-77921204D02*
G01*
X102098773Y-77924804D01*
X102122572Y-77930765D01*
X102145671Y-77939030D01*
X102167850Y-77949520D01*
X102188893Y-77962132D01*
X102208599Y-77976747D01*
X102226777Y-77993223D01*
X102243253Y-78011401D01*
X102257868Y-78031107D01*
X102270480Y-78052150D01*
X102280970Y-78074329D01*
X102289235Y-78097428D01*
X102295196Y-78121227D01*
X102298796Y-78145495D01*
X102300000Y-78169999D01*
X102300000Y-78820001D01*
X102298796Y-78844505D01*
X102295196Y-78868773D01*
X102289235Y-78892572D01*
X102280970Y-78915671D01*
X102270480Y-78937850D01*
X102257868Y-78958893D01*
X102243253Y-78978599D01*
X102226777Y-78996777D01*
X102208599Y-79013253D01*
X102188893Y-79027868D01*
X102167850Y-79040480D01*
X102145671Y-79050970D01*
X102122572Y-79059235D01*
X102098773Y-79065196D01*
X102074505Y-79068796D01*
X102050001Y-79070000D01*
X101149999Y-79070000D01*
X101125495Y-79068796D01*
X101101227Y-79065196D01*
X101077428Y-79059235D01*
X101054329Y-79050970D01*
X101032150Y-79040480D01*
X101011107Y-79027868D01*
X100991401Y-79013253D01*
X100973223Y-78996777D01*
X100956747Y-78978599D01*
X100942132Y-78958893D01*
X100929520Y-78937850D01*
X100919030Y-78915671D01*
X100910765Y-78892572D01*
X100904804Y-78868773D01*
X100901204Y-78844505D01*
X100900000Y-78820001D01*
X100900000Y-78169999D01*
X100901204Y-78145495D01*
X100904804Y-78121227D01*
X100910765Y-78097428D01*
X100919030Y-78074329D01*
X100929520Y-78052150D01*
X100942132Y-78031107D01*
X100956747Y-78011401D01*
X100973223Y-77993223D01*
X100991401Y-77976747D01*
X101011107Y-77962132D01*
X101032150Y-77949520D01*
X101054329Y-77939030D01*
X101077428Y-77930765D01*
X101101227Y-77924804D01*
X101125495Y-77921204D01*
X101149999Y-77920000D01*
X102050001Y-77920000D01*
X102074505Y-77921204D01*
G37*
G04 #@! TD.AperFunction*
G04 #@! TA.AperFunction,SMDPad,CuDef*
G36*
X102074505Y-75871204D02*
G01*
X102098773Y-75874804D01*
X102122572Y-75880765D01*
X102145671Y-75889030D01*
X102167850Y-75899520D01*
X102188893Y-75912132D01*
X102208599Y-75926747D01*
X102226777Y-75943223D01*
X102243253Y-75961401D01*
X102257868Y-75981107D01*
X102270480Y-76002150D01*
X102280970Y-76024329D01*
X102289235Y-76047428D01*
X102295196Y-76071227D01*
X102298796Y-76095495D01*
X102300000Y-76119999D01*
X102300000Y-76770001D01*
X102298796Y-76794505D01*
X102295196Y-76818773D01*
X102289235Y-76842572D01*
X102280970Y-76865671D01*
X102270480Y-76887850D01*
X102257868Y-76908893D01*
X102243253Y-76928599D01*
X102226777Y-76946777D01*
X102208599Y-76963253D01*
X102188893Y-76977868D01*
X102167850Y-76990480D01*
X102145671Y-77000970D01*
X102122572Y-77009235D01*
X102098773Y-77015196D01*
X102074505Y-77018796D01*
X102050001Y-77020000D01*
X101149999Y-77020000D01*
X101125495Y-77018796D01*
X101101227Y-77015196D01*
X101077428Y-77009235D01*
X101054329Y-77000970D01*
X101032150Y-76990480D01*
X101011107Y-76977868D01*
X100991401Y-76963253D01*
X100973223Y-76946777D01*
X100956747Y-76928599D01*
X100942132Y-76908893D01*
X100929520Y-76887850D01*
X100919030Y-76865671D01*
X100910765Y-76842572D01*
X100904804Y-76818773D01*
X100901204Y-76794505D01*
X100900000Y-76770001D01*
X100900000Y-76119999D01*
X100901204Y-76095495D01*
X100904804Y-76071227D01*
X100910765Y-76047428D01*
X100919030Y-76024329D01*
X100929520Y-76002150D01*
X100942132Y-75981107D01*
X100956747Y-75961401D01*
X100973223Y-75943223D01*
X100991401Y-75926747D01*
X101011107Y-75912132D01*
X101032150Y-75899520D01*
X101054329Y-75889030D01*
X101077428Y-75880765D01*
X101101227Y-75874804D01*
X101125495Y-75871204D01*
X101149999Y-75870000D01*
X102050001Y-75870000D01*
X102074505Y-75871204D01*
G37*
G04 #@! TD.AperFunction*
G04 #@! TA.AperFunction,SMDPad,CuDef*
G36*
X89004505Y-116141204D02*
G01*
X89028773Y-116144804D01*
X89052572Y-116150765D01*
X89075671Y-116159030D01*
X89097850Y-116169520D01*
X89118893Y-116182132D01*
X89138599Y-116196747D01*
X89156777Y-116213223D01*
X89173253Y-116231401D01*
X89187868Y-116251107D01*
X89200480Y-116272150D01*
X89210970Y-116294329D01*
X89219235Y-116317428D01*
X89225196Y-116341227D01*
X89228796Y-116365495D01*
X89230000Y-116389999D01*
X89230000Y-117290001D01*
X89228796Y-117314505D01*
X89225196Y-117338773D01*
X89219235Y-117362572D01*
X89210970Y-117385671D01*
X89200480Y-117407850D01*
X89187868Y-117428893D01*
X89173253Y-117448599D01*
X89156777Y-117466777D01*
X89138599Y-117483253D01*
X89118893Y-117497868D01*
X89097850Y-117510480D01*
X89075671Y-117520970D01*
X89052572Y-117529235D01*
X89028773Y-117535196D01*
X89004505Y-117538796D01*
X88980001Y-117540000D01*
X88329999Y-117540000D01*
X88305495Y-117538796D01*
X88281227Y-117535196D01*
X88257428Y-117529235D01*
X88234329Y-117520970D01*
X88212150Y-117510480D01*
X88191107Y-117497868D01*
X88171401Y-117483253D01*
X88153223Y-117466777D01*
X88136747Y-117448599D01*
X88122132Y-117428893D01*
X88109520Y-117407850D01*
X88099030Y-117385671D01*
X88090765Y-117362572D01*
X88084804Y-117338773D01*
X88081204Y-117314505D01*
X88080000Y-117290001D01*
X88080000Y-116389999D01*
X88081204Y-116365495D01*
X88084804Y-116341227D01*
X88090765Y-116317428D01*
X88099030Y-116294329D01*
X88109520Y-116272150D01*
X88122132Y-116251107D01*
X88136747Y-116231401D01*
X88153223Y-116213223D01*
X88171401Y-116196747D01*
X88191107Y-116182132D01*
X88212150Y-116169520D01*
X88234329Y-116159030D01*
X88257428Y-116150765D01*
X88281227Y-116144804D01*
X88305495Y-116141204D01*
X88329999Y-116140000D01*
X88980001Y-116140000D01*
X89004505Y-116141204D01*
G37*
G04 #@! TD.AperFunction*
G04 #@! TA.AperFunction,SMDPad,CuDef*
G36*
X86954505Y-116141204D02*
G01*
X86978773Y-116144804D01*
X87002572Y-116150765D01*
X87025671Y-116159030D01*
X87047850Y-116169520D01*
X87068893Y-116182132D01*
X87088599Y-116196747D01*
X87106777Y-116213223D01*
X87123253Y-116231401D01*
X87137868Y-116251107D01*
X87150480Y-116272150D01*
X87160970Y-116294329D01*
X87169235Y-116317428D01*
X87175196Y-116341227D01*
X87178796Y-116365495D01*
X87180000Y-116389999D01*
X87180000Y-117290001D01*
X87178796Y-117314505D01*
X87175196Y-117338773D01*
X87169235Y-117362572D01*
X87160970Y-117385671D01*
X87150480Y-117407850D01*
X87137868Y-117428893D01*
X87123253Y-117448599D01*
X87106777Y-117466777D01*
X87088599Y-117483253D01*
X87068893Y-117497868D01*
X87047850Y-117510480D01*
X87025671Y-117520970D01*
X87002572Y-117529235D01*
X86978773Y-117535196D01*
X86954505Y-117538796D01*
X86930001Y-117540000D01*
X86279999Y-117540000D01*
X86255495Y-117538796D01*
X86231227Y-117535196D01*
X86207428Y-117529235D01*
X86184329Y-117520970D01*
X86162150Y-117510480D01*
X86141107Y-117497868D01*
X86121401Y-117483253D01*
X86103223Y-117466777D01*
X86086747Y-117448599D01*
X86072132Y-117428893D01*
X86059520Y-117407850D01*
X86049030Y-117385671D01*
X86040765Y-117362572D01*
X86034804Y-117338773D01*
X86031204Y-117314505D01*
X86030000Y-117290001D01*
X86030000Y-116389999D01*
X86031204Y-116365495D01*
X86034804Y-116341227D01*
X86040765Y-116317428D01*
X86049030Y-116294329D01*
X86059520Y-116272150D01*
X86072132Y-116251107D01*
X86086747Y-116231401D01*
X86103223Y-116213223D01*
X86121401Y-116196747D01*
X86141107Y-116182132D01*
X86162150Y-116169520D01*
X86184329Y-116159030D01*
X86207428Y-116150765D01*
X86231227Y-116144804D01*
X86255495Y-116141204D01*
X86279999Y-116140000D01*
X86930001Y-116140000D01*
X86954505Y-116141204D01*
G37*
G04 #@! TD.AperFunction*
D14*
X80010000Y-76200000D03*
D15*
X80010000Y-78740000D03*
G04 #@! TA.AperFunction,SMDPad,CuDef*
D11*
G36*
X105774505Y-82551204D02*
G01*
X105798773Y-82554804D01*
X105822572Y-82560765D01*
X105845671Y-82569030D01*
X105867850Y-82579520D01*
X105888893Y-82592132D01*
X105908599Y-82606747D01*
X105926777Y-82623223D01*
X105943253Y-82641401D01*
X105957868Y-82661107D01*
X105970480Y-82682150D01*
X105980970Y-82704329D01*
X105989235Y-82727428D01*
X105995196Y-82751227D01*
X105998796Y-82775495D01*
X106000000Y-82799999D01*
X106000000Y-83450001D01*
X105998796Y-83474505D01*
X105995196Y-83498773D01*
X105989235Y-83522572D01*
X105980970Y-83545671D01*
X105970480Y-83567850D01*
X105957868Y-83588893D01*
X105943253Y-83608599D01*
X105926777Y-83626777D01*
X105908599Y-83643253D01*
X105888893Y-83657868D01*
X105867850Y-83670480D01*
X105845671Y-83680970D01*
X105822572Y-83689235D01*
X105798773Y-83695196D01*
X105774505Y-83698796D01*
X105750001Y-83700000D01*
X104849999Y-83700000D01*
X104825495Y-83698796D01*
X104801227Y-83695196D01*
X104777428Y-83689235D01*
X104754329Y-83680970D01*
X104732150Y-83670480D01*
X104711107Y-83657868D01*
X104691401Y-83643253D01*
X104673223Y-83626777D01*
X104656747Y-83608599D01*
X104642132Y-83588893D01*
X104629520Y-83567850D01*
X104619030Y-83545671D01*
X104610765Y-83522572D01*
X104604804Y-83498773D01*
X104601204Y-83474505D01*
X104600000Y-83450001D01*
X104600000Y-82799999D01*
X104601204Y-82775495D01*
X104604804Y-82751227D01*
X104610765Y-82727428D01*
X104619030Y-82704329D01*
X104629520Y-82682150D01*
X104642132Y-82661107D01*
X104656747Y-82641401D01*
X104673223Y-82623223D01*
X104691401Y-82606747D01*
X104711107Y-82592132D01*
X104732150Y-82579520D01*
X104754329Y-82569030D01*
X104777428Y-82560765D01*
X104801227Y-82554804D01*
X104825495Y-82551204D01*
X104849999Y-82550000D01*
X105750001Y-82550000D01*
X105774505Y-82551204D01*
G37*
G04 #@! TD.AperFunction*
G04 #@! TA.AperFunction,SMDPad,CuDef*
G36*
X105774505Y-80501204D02*
G01*
X105798773Y-80504804D01*
X105822572Y-80510765D01*
X105845671Y-80519030D01*
X105867850Y-80529520D01*
X105888893Y-80542132D01*
X105908599Y-80556747D01*
X105926777Y-80573223D01*
X105943253Y-80591401D01*
X105957868Y-80611107D01*
X105970480Y-80632150D01*
X105980970Y-80654329D01*
X105989235Y-80677428D01*
X105995196Y-80701227D01*
X105998796Y-80725495D01*
X106000000Y-80749999D01*
X106000000Y-81400001D01*
X105998796Y-81424505D01*
X105995196Y-81448773D01*
X105989235Y-81472572D01*
X105980970Y-81495671D01*
X105970480Y-81517850D01*
X105957868Y-81538893D01*
X105943253Y-81558599D01*
X105926777Y-81576777D01*
X105908599Y-81593253D01*
X105888893Y-81607868D01*
X105867850Y-81620480D01*
X105845671Y-81630970D01*
X105822572Y-81639235D01*
X105798773Y-81645196D01*
X105774505Y-81648796D01*
X105750001Y-81650000D01*
X104849999Y-81650000D01*
X104825495Y-81648796D01*
X104801227Y-81645196D01*
X104777428Y-81639235D01*
X104754329Y-81630970D01*
X104732150Y-81620480D01*
X104711107Y-81607868D01*
X104691401Y-81593253D01*
X104673223Y-81576777D01*
X104656747Y-81558599D01*
X104642132Y-81538893D01*
X104629520Y-81517850D01*
X104619030Y-81495671D01*
X104610765Y-81472572D01*
X104604804Y-81448773D01*
X104601204Y-81424505D01*
X104600000Y-81400001D01*
X104600000Y-80749999D01*
X104601204Y-80725495D01*
X104604804Y-80701227D01*
X104610765Y-80677428D01*
X104619030Y-80654329D01*
X104629520Y-80632150D01*
X104642132Y-80611107D01*
X104656747Y-80591401D01*
X104673223Y-80573223D01*
X104691401Y-80556747D01*
X104711107Y-80542132D01*
X104732150Y-80529520D01*
X104754329Y-80519030D01*
X104777428Y-80510765D01*
X104801227Y-80504804D01*
X104825495Y-80501204D01*
X104849999Y-80500000D01*
X105750001Y-80500000D01*
X105774505Y-80501204D01*
G37*
G04 #@! TD.AperFunction*
G04 #@! TA.AperFunction,SMDPad,CuDef*
G36*
X91914505Y-111431204D02*
G01*
X91938773Y-111434804D01*
X91962572Y-111440765D01*
X91985671Y-111449030D01*
X92007850Y-111459520D01*
X92028893Y-111472132D01*
X92048599Y-111486747D01*
X92066777Y-111503223D01*
X92083253Y-111521401D01*
X92097868Y-111541107D01*
X92110480Y-111562150D01*
X92120970Y-111584329D01*
X92129235Y-111607428D01*
X92135196Y-111631227D01*
X92138796Y-111655495D01*
X92140000Y-111679999D01*
X92140000Y-112330001D01*
X92138796Y-112354505D01*
X92135196Y-112378773D01*
X92129235Y-112402572D01*
X92120970Y-112425671D01*
X92110480Y-112447850D01*
X92097868Y-112468893D01*
X92083253Y-112488599D01*
X92066777Y-112506777D01*
X92048599Y-112523253D01*
X92028893Y-112537868D01*
X92007850Y-112550480D01*
X91985671Y-112560970D01*
X91962572Y-112569235D01*
X91938773Y-112575196D01*
X91914505Y-112578796D01*
X91890001Y-112580000D01*
X90989999Y-112580000D01*
X90965495Y-112578796D01*
X90941227Y-112575196D01*
X90917428Y-112569235D01*
X90894329Y-112560970D01*
X90872150Y-112550480D01*
X90851107Y-112537868D01*
X90831401Y-112523253D01*
X90813223Y-112506777D01*
X90796747Y-112488599D01*
X90782132Y-112468893D01*
X90769520Y-112447850D01*
X90759030Y-112425671D01*
X90750765Y-112402572D01*
X90744804Y-112378773D01*
X90741204Y-112354505D01*
X90740000Y-112330001D01*
X90740000Y-111679999D01*
X90741204Y-111655495D01*
X90744804Y-111631227D01*
X90750765Y-111607428D01*
X90759030Y-111584329D01*
X90769520Y-111562150D01*
X90782132Y-111541107D01*
X90796747Y-111521401D01*
X90813223Y-111503223D01*
X90831401Y-111486747D01*
X90851107Y-111472132D01*
X90872150Y-111459520D01*
X90894329Y-111449030D01*
X90917428Y-111440765D01*
X90941227Y-111434804D01*
X90965495Y-111431204D01*
X90989999Y-111430000D01*
X91890001Y-111430000D01*
X91914505Y-111431204D01*
G37*
G04 #@! TD.AperFunction*
G04 #@! TA.AperFunction,SMDPad,CuDef*
G36*
X91914505Y-113481204D02*
G01*
X91938773Y-113484804D01*
X91962572Y-113490765D01*
X91985671Y-113499030D01*
X92007850Y-113509520D01*
X92028893Y-113522132D01*
X92048599Y-113536747D01*
X92066777Y-113553223D01*
X92083253Y-113571401D01*
X92097868Y-113591107D01*
X92110480Y-113612150D01*
X92120970Y-113634329D01*
X92129235Y-113657428D01*
X92135196Y-113681227D01*
X92138796Y-113705495D01*
X92140000Y-113729999D01*
X92140000Y-114380001D01*
X92138796Y-114404505D01*
X92135196Y-114428773D01*
X92129235Y-114452572D01*
X92120970Y-114475671D01*
X92110480Y-114497850D01*
X92097868Y-114518893D01*
X92083253Y-114538599D01*
X92066777Y-114556777D01*
X92048599Y-114573253D01*
X92028893Y-114587868D01*
X92007850Y-114600480D01*
X91985671Y-114610970D01*
X91962572Y-114619235D01*
X91938773Y-114625196D01*
X91914505Y-114628796D01*
X91890001Y-114630000D01*
X90989999Y-114630000D01*
X90965495Y-114628796D01*
X90941227Y-114625196D01*
X90917428Y-114619235D01*
X90894329Y-114610970D01*
X90872150Y-114600480D01*
X90851107Y-114587868D01*
X90831401Y-114573253D01*
X90813223Y-114556777D01*
X90796747Y-114538599D01*
X90782132Y-114518893D01*
X90769520Y-114497850D01*
X90759030Y-114475671D01*
X90750765Y-114452572D01*
X90744804Y-114428773D01*
X90741204Y-114404505D01*
X90740000Y-114380001D01*
X90740000Y-113729999D01*
X90741204Y-113705495D01*
X90744804Y-113681227D01*
X90750765Y-113657428D01*
X90759030Y-113634329D01*
X90769520Y-113612150D01*
X90782132Y-113591107D01*
X90796747Y-113571401D01*
X90813223Y-113553223D01*
X90831401Y-113536747D01*
X90851107Y-113522132D01*
X90872150Y-113509520D01*
X90894329Y-113499030D01*
X90917428Y-113490765D01*
X90941227Y-113484804D01*
X90965495Y-113481204D01*
X90989999Y-113480000D01*
X91890001Y-113480000D01*
X91914505Y-113481204D01*
G37*
G04 #@! TD.AperFunction*
D17*
X92710000Y-102870000D03*
X90170000Y-102870000D03*
X87630000Y-102870000D03*
D18*
X85090000Y-102870000D03*
G04 #@! TA.AperFunction,SMDPad,CuDef*
D11*
G36*
X85564505Y-77921204D02*
G01*
X85588773Y-77924804D01*
X85612572Y-77930765D01*
X85635671Y-77939030D01*
X85657850Y-77949520D01*
X85678893Y-77962132D01*
X85698599Y-77976747D01*
X85716777Y-77993223D01*
X85733253Y-78011401D01*
X85747868Y-78031107D01*
X85760480Y-78052150D01*
X85770970Y-78074329D01*
X85779235Y-78097428D01*
X85785196Y-78121227D01*
X85788796Y-78145495D01*
X85790000Y-78169999D01*
X85790000Y-78820001D01*
X85788796Y-78844505D01*
X85785196Y-78868773D01*
X85779235Y-78892572D01*
X85770970Y-78915671D01*
X85760480Y-78937850D01*
X85747868Y-78958893D01*
X85733253Y-78978599D01*
X85716777Y-78996777D01*
X85698599Y-79013253D01*
X85678893Y-79027868D01*
X85657850Y-79040480D01*
X85635671Y-79050970D01*
X85612572Y-79059235D01*
X85588773Y-79065196D01*
X85564505Y-79068796D01*
X85540001Y-79070000D01*
X84639999Y-79070000D01*
X84615495Y-79068796D01*
X84591227Y-79065196D01*
X84567428Y-79059235D01*
X84544329Y-79050970D01*
X84522150Y-79040480D01*
X84501107Y-79027868D01*
X84481401Y-79013253D01*
X84463223Y-78996777D01*
X84446747Y-78978599D01*
X84432132Y-78958893D01*
X84419520Y-78937850D01*
X84409030Y-78915671D01*
X84400765Y-78892572D01*
X84394804Y-78868773D01*
X84391204Y-78844505D01*
X84390000Y-78820001D01*
X84390000Y-78169999D01*
X84391204Y-78145495D01*
X84394804Y-78121227D01*
X84400765Y-78097428D01*
X84409030Y-78074329D01*
X84419520Y-78052150D01*
X84432132Y-78031107D01*
X84446747Y-78011401D01*
X84463223Y-77993223D01*
X84481401Y-77976747D01*
X84501107Y-77962132D01*
X84522150Y-77949520D01*
X84544329Y-77939030D01*
X84567428Y-77930765D01*
X84591227Y-77924804D01*
X84615495Y-77921204D01*
X84639999Y-77920000D01*
X85540001Y-77920000D01*
X85564505Y-77921204D01*
G37*
G04 #@! TD.AperFunction*
G04 #@! TA.AperFunction,SMDPad,CuDef*
G36*
X85564505Y-75871204D02*
G01*
X85588773Y-75874804D01*
X85612572Y-75880765D01*
X85635671Y-75889030D01*
X85657850Y-75899520D01*
X85678893Y-75912132D01*
X85698599Y-75926747D01*
X85716777Y-75943223D01*
X85733253Y-75961401D01*
X85747868Y-75981107D01*
X85760480Y-76002150D01*
X85770970Y-76024329D01*
X85779235Y-76047428D01*
X85785196Y-76071227D01*
X85788796Y-76095495D01*
X85790000Y-76119999D01*
X85790000Y-76770001D01*
X85788796Y-76794505D01*
X85785196Y-76818773D01*
X85779235Y-76842572D01*
X85770970Y-76865671D01*
X85760480Y-76887850D01*
X85747868Y-76908893D01*
X85733253Y-76928599D01*
X85716777Y-76946777D01*
X85698599Y-76963253D01*
X85678893Y-76977868D01*
X85657850Y-76990480D01*
X85635671Y-77000970D01*
X85612572Y-77009235D01*
X85588773Y-77015196D01*
X85564505Y-77018796D01*
X85540001Y-77020000D01*
X84639999Y-77020000D01*
X84615495Y-77018796D01*
X84591227Y-77015196D01*
X84567428Y-77009235D01*
X84544329Y-77000970D01*
X84522150Y-76990480D01*
X84501107Y-76977868D01*
X84481401Y-76963253D01*
X84463223Y-76946777D01*
X84446747Y-76928599D01*
X84432132Y-76908893D01*
X84419520Y-76887850D01*
X84409030Y-76865671D01*
X84400765Y-76842572D01*
X84394804Y-76818773D01*
X84391204Y-76794505D01*
X84390000Y-76770001D01*
X84390000Y-76119999D01*
X84391204Y-76095495D01*
X84394804Y-76071227D01*
X84400765Y-76047428D01*
X84409030Y-76024329D01*
X84419520Y-76002150D01*
X84432132Y-75981107D01*
X84446747Y-75961401D01*
X84463223Y-75943223D01*
X84481401Y-75926747D01*
X84501107Y-75912132D01*
X84522150Y-75899520D01*
X84544329Y-75889030D01*
X84567428Y-75880765D01*
X84591227Y-75874804D01*
X84615495Y-75871204D01*
X84639999Y-75870000D01*
X85540001Y-75870000D01*
X85564505Y-75871204D01*
G37*
G04 #@! TD.AperFunction*
G04 #@! TA.AperFunction,SMDPad,CuDef*
G36*
X86834505Y-113481204D02*
G01*
X86858773Y-113484804D01*
X86882572Y-113490765D01*
X86905671Y-113499030D01*
X86927850Y-113509520D01*
X86948893Y-113522132D01*
X86968599Y-113536747D01*
X86986777Y-113553223D01*
X87003253Y-113571401D01*
X87017868Y-113591107D01*
X87030480Y-113612150D01*
X87040970Y-113634329D01*
X87049235Y-113657428D01*
X87055196Y-113681227D01*
X87058796Y-113705495D01*
X87060000Y-113729999D01*
X87060000Y-114380001D01*
X87058796Y-114404505D01*
X87055196Y-114428773D01*
X87049235Y-114452572D01*
X87040970Y-114475671D01*
X87030480Y-114497850D01*
X87017868Y-114518893D01*
X87003253Y-114538599D01*
X86986777Y-114556777D01*
X86968599Y-114573253D01*
X86948893Y-114587868D01*
X86927850Y-114600480D01*
X86905671Y-114610970D01*
X86882572Y-114619235D01*
X86858773Y-114625196D01*
X86834505Y-114628796D01*
X86810001Y-114630000D01*
X85909999Y-114630000D01*
X85885495Y-114628796D01*
X85861227Y-114625196D01*
X85837428Y-114619235D01*
X85814329Y-114610970D01*
X85792150Y-114600480D01*
X85771107Y-114587868D01*
X85751401Y-114573253D01*
X85733223Y-114556777D01*
X85716747Y-114538599D01*
X85702132Y-114518893D01*
X85689520Y-114497850D01*
X85679030Y-114475671D01*
X85670765Y-114452572D01*
X85664804Y-114428773D01*
X85661204Y-114404505D01*
X85660000Y-114380001D01*
X85660000Y-113729999D01*
X85661204Y-113705495D01*
X85664804Y-113681227D01*
X85670765Y-113657428D01*
X85679030Y-113634329D01*
X85689520Y-113612150D01*
X85702132Y-113591107D01*
X85716747Y-113571401D01*
X85733223Y-113553223D01*
X85751401Y-113536747D01*
X85771107Y-113522132D01*
X85792150Y-113509520D01*
X85814329Y-113499030D01*
X85837428Y-113490765D01*
X85861227Y-113484804D01*
X85885495Y-113481204D01*
X85909999Y-113480000D01*
X86810001Y-113480000D01*
X86834505Y-113481204D01*
G37*
G04 #@! TD.AperFunction*
G04 #@! TA.AperFunction,SMDPad,CuDef*
G36*
X86834505Y-111431204D02*
G01*
X86858773Y-111434804D01*
X86882572Y-111440765D01*
X86905671Y-111449030D01*
X86927850Y-111459520D01*
X86948893Y-111472132D01*
X86968599Y-111486747D01*
X86986777Y-111503223D01*
X87003253Y-111521401D01*
X87017868Y-111541107D01*
X87030480Y-111562150D01*
X87040970Y-111584329D01*
X87049235Y-111607428D01*
X87055196Y-111631227D01*
X87058796Y-111655495D01*
X87060000Y-111679999D01*
X87060000Y-112330001D01*
X87058796Y-112354505D01*
X87055196Y-112378773D01*
X87049235Y-112402572D01*
X87040970Y-112425671D01*
X87030480Y-112447850D01*
X87017868Y-112468893D01*
X87003253Y-112488599D01*
X86986777Y-112506777D01*
X86968599Y-112523253D01*
X86948893Y-112537868D01*
X86927850Y-112550480D01*
X86905671Y-112560970D01*
X86882572Y-112569235D01*
X86858773Y-112575196D01*
X86834505Y-112578796D01*
X86810001Y-112580000D01*
X85909999Y-112580000D01*
X85885495Y-112578796D01*
X85861227Y-112575196D01*
X85837428Y-112569235D01*
X85814329Y-112560970D01*
X85792150Y-112550480D01*
X85771107Y-112537868D01*
X85751401Y-112523253D01*
X85733223Y-112506777D01*
X85716747Y-112488599D01*
X85702132Y-112468893D01*
X85689520Y-112447850D01*
X85679030Y-112425671D01*
X85670765Y-112402572D01*
X85664804Y-112378773D01*
X85661204Y-112354505D01*
X85660000Y-112330001D01*
X85660000Y-111679999D01*
X85661204Y-111655495D01*
X85664804Y-111631227D01*
X85670765Y-111607428D01*
X85679030Y-111584329D01*
X85689520Y-111562150D01*
X85702132Y-111541107D01*
X85716747Y-111521401D01*
X85733223Y-111503223D01*
X85751401Y-111486747D01*
X85771107Y-111472132D01*
X85792150Y-111459520D01*
X85814329Y-111449030D01*
X85837428Y-111440765D01*
X85861227Y-111434804D01*
X85885495Y-111431204D01*
X85909999Y-111430000D01*
X86810001Y-111430000D01*
X86834505Y-111431204D01*
G37*
G04 #@! TD.AperFunction*
D15*
X81280000Y-115570000D03*
D14*
X81280000Y-113030000D03*
G04 #@! TA.AperFunction,SMDPad,CuDef*
D11*
G36*
X89374505Y-113481204D02*
G01*
X89398773Y-113484804D01*
X89422572Y-113490765D01*
X89445671Y-113499030D01*
X89467850Y-113509520D01*
X89488893Y-113522132D01*
X89508599Y-113536747D01*
X89526777Y-113553223D01*
X89543253Y-113571401D01*
X89557868Y-113591107D01*
X89570480Y-113612150D01*
X89580970Y-113634329D01*
X89589235Y-113657428D01*
X89595196Y-113681227D01*
X89598796Y-113705495D01*
X89600000Y-113729999D01*
X89600000Y-114380001D01*
X89598796Y-114404505D01*
X89595196Y-114428773D01*
X89589235Y-114452572D01*
X89580970Y-114475671D01*
X89570480Y-114497850D01*
X89557868Y-114518893D01*
X89543253Y-114538599D01*
X89526777Y-114556777D01*
X89508599Y-114573253D01*
X89488893Y-114587868D01*
X89467850Y-114600480D01*
X89445671Y-114610970D01*
X89422572Y-114619235D01*
X89398773Y-114625196D01*
X89374505Y-114628796D01*
X89350001Y-114630000D01*
X88449999Y-114630000D01*
X88425495Y-114628796D01*
X88401227Y-114625196D01*
X88377428Y-114619235D01*
X88354329Y-114610970D01*
X88332150Y-114600480D01*
X88311107Y-114587868D01*
X88291401Y-114573253D01*
X88273223Y-114556777D01*
X88256747Y-114538599D01*
X88242132Y-114518893D01*
X88229520Y-114497850D01*
X88219030Y-114475671D01*
X88210765Y-114452572D01*
X88204804Y-114428773D01*
X88201204Y-114404505D01*
X88200000Y-114380001D01*
X88200000Y-113729999D01*
X88201204Y-113705495D01*
X88204804Y-113681227D01*
X88210765Y-113657428D01*
X88219030Y-113634329D01*
X88229520Y-113612150D01*
X88242132Y-113591107D01*
X88256747Y-113571401D01*
X88273223Y-113553223D01*
X88291401Y-113536747D01*
X88311107Y-113522132D01*
X88332150Y-113509520D01*
X88354329Y-113499030D01*
X88377428Y-113490765D01*
X88401227Y-113484804D01*
X88425495Y-113481204D01*
X88449999Y-113480000D01*
X89350001Y-113480000D01*
X89374505Y-113481204D01*
G37*
G04 #@! TD.AperFunction*
G04 #@! TA.AperFunction,SMDPad,CuDef*
G36*
X89374505Y-111431204D02*
G01*
X89398773Y-111434804D01*
X89422572Y-111440765D01*
X89445671Y-111449030D01*
X89467850Y-111459520D01*
X89488893Y-111472132D01*
X89508599Y-111486747D01*
X89526777Y-111503223D01*
X89543253Y-111521401D01*
X89557868Y-111541107D01*
X89570480Y-111562150D01*
X89580970Y-111584329D01*
X89589235Y-111607428D01*
X89595196Y-111631227D01*
X89598796Y-111655495D01*
X89600000Y-111679999D01*
X89600000Y-112330001D01*
X89598796Y-112354505D01*
X89595196Y-112378773D01*
X89589235Y-112402572D01*
X89580970Y-112425671D01*
X89570480Y-112447850D01*
X89557868Y-112468893D01*
X89543253Y-112488599D01*
X89526777Y-112506777D01*
X89508599Y-112523253D01*
X89488893Y-112537868D01*
X89467850Y-112550480D01*
X89445671Y-112560970D01*
X89422572Y-112569235D01*
X89398773Y-112575196D01*
X89374505Y-112578796D01*
X89350001Y-112580000D01*
X88449999Y-112580000D01*
X88425495Y-112578796D01*
X88401227Y-112575196D01*
X88377428Y-112569235D01*
X88354329Y-112560970D01*
X88332150Y-112550480D01*
X88311107Y-112537868D01*
X88291401Y-112523253D01*
X88273223Y-112506777D01*
X88256747Y-112488599D01*
X88242132Y-112468893D01*
X88229520Y-112447850D01*
X88219030Y-112425671D01*
X88210765Y-112402572D01*
X88204804Y-112378773D01*
X88201204Y-112354505D01*
X88200000Y-112330001D01*
X88200000Y-111679999D01*
X88201204Y-111655495D01*
X88204804Y-111631227D01*
X88210765Y-111607428D01*
X88219030Y-111584329D01*
X88229520Y-111562150D01*
X88242132Y-111541107D01*
X88256747Y-111521401D01*
X88273223Y-111503223D01*
X88291401Y-111486747D01*
X88311107Y-111472132D01*
X88332150Y-111459520D01*
X88354329Y-111449030D01*
X88377428Y-111440765D01*
X88401227Y-111434804D01*
X88425495Y-111431204D01*
X88449999Y-111430000D01*
X89350001Y-111430000D01*
X89374505Y-111431204D01*
G37*
G04 #@! TD.AperFunction*
D19*
X88900000Y-74930000D03*
X88900000Y-80010000D03*
X82550000Y-76200000D03*
X96520000Y-73660000D03*
X97790008Y-77470000D03*
X92710000Y-116840000D03*
D20*
X84845000Y-76200000D02*
X85090000Y-76445000D01*
X89577100Y-75844400D02*
X90493850Y-75844400D01*
D21*
X86390600Y-75844400D02*
X89577100Y-75844400D01*
D22*
X85790000Y-76445000D02*
X86390600Y-75844400D01*
D20*
X85090000Y-76445000D02*
X85790000Y-76445000D01*
X90493850Y-75378500D02*
X90045350Y-74930000D01*
X90493850Y-75844400D02*
X90493850Y-75378500D01*
X90045350Y-74930000D02*
X88900000Y-74930000D01*
X89579450Y-80010000D02*
X90493850Y-79095600D01*
X88900000Y-80010000D02*
X89579450Y-80010000D01*
X90493850Y-79095600D02*
X90493850Y-78445360D01*
X82795000Y-76445000D02*
X82550000Y-76200000D01*
X85090000Y-76445000D02*
X82795000Y-76445000D01*
D22*
X82550000Y-76200000D02*
X84845000Y-76200000D01*
X80010000Y-76200000D02*
X82550000Y-76200000D01*
D20*
X91979640Y-111465360D02*
X91440000Y-112005000D01*
X95580200Y-111465360D02*
X91979640Y-111465360D01*
X91440000Y-112005000D02*
X88900000Y-112005000D01*
X88900000Y-112005000D02*
X86360000Y-112005000D01*
X82305000Y-112005000D02*
X81280000Y-113030000D01*
X86360000Y-112005000D02*
X82305000Y-112005000D01*
X86605000Y-114300000D02*
X86360000Y-114055000D01*
X86605000Y-116840000D02*
X86605000Y-114300000D01*
X89925000Y-108650000D02*
X89925000Y-107950000D01*
X92090120Y-110815120D02*
X89925000Y-108650000D01*
X95580200Y-110815120D02*
X92090120Y-110815120D01*
X95842900Y-76494640D02*
X96520000Y-75817540D01*
X96520000Y-75817540D02*
X96520000Y-73660000D01*
X94926150Y-76494640D02*
X95842900Y-76494640D01*
X94926150Y-77795120D02*
X97464888Y-77795120D01*
X97464888Y-77795120D02*
X97790008Y-77470000D01*
X101550360Y-78445360D02*
X101600000Y-78495000D01*
X94926150Y-78445360D02*
X101550360Y-78445360D01*
X101600000Y-80010000D02*
X101600000Y-78495000D01*
X102665000Y-81075000D02*
X101600000Y-80010000D01*
X105300000Y-81075000D02*
X102665000Y-81075000D01*
X88655000Y-114300000D02*
X88900000Y-114055000D01*
X88655000Y-116840000D02*
X88655000Y-114300000D01*
X88655000Y-116840000D02*
X91440000Y-116840000D01*
X91440000Y-116840000D02*
X92710000Y-116840000D01*
X139580000Y-90040000D02*
X139600000Y-90020000D01*
X133330000Y-90040000D02*
X139580000Y-90040000D01*
X139580000Y-92580000D02*
X139600000Y-92560000D01*
X133330000Y-92580000D02*
X139580000Y-92580000D01*
X95580200Y-110164880D02*
X93654880Y-110164880D01*
X93654880Y-110164880D02*
X91440000Y-107950000D01*
X87630000Y-102917500D02*
X87630000Y-102870000D01*
X91440000Y-106727500D02*
X87630000Y-102917500D01*
X91440000Y-107950000D02*
X91440000Y-106727500D01*
D21*
X96900000Y-77100000D02*
X97624993Y-76375007D01*
D20*
X94926150Y-77144880D02*
X97065007Y-77144880D01*
D22*
X101600000Y-76445000D02*
X105410000Y-76445000D01*
D21*
X97815113Y-76445000D02*
X101600000Y-76445000D01*
D20*
X97790000Y-76419887D02*
X97815113Y-76445000D01*
D22*
X106110000Y-76445000D02*
X107950000Y-74605000D01*
D20*
X105410000Y-76445000D02*
X106110000Y-76445000D01*
D22*
X133330000Y-76378800D02*
X133330000Y-77340000D01*
X131556200Y-74605000D02*
X133330000Y-76378800D01*
X107950000Y-74605000D02*
X131556200Y-74605000D01*
X139700000Y-86360000D02*
X138560000Y-87500000D01*
X139700000Y-78740000D02*
X139700000Y-86360000D01*
X138560000Y-87500000D02*
X133330000Y-87500000D01*
X138300000Y-77340000D02*
X139700000Y-78740000D01*
X133330000Y-77340000D02*
X138300000Y-77340000D01*
D20*
X98815000Y-105410000D02*
X99810000Y-105410000D01*
X99999800Y-105599800D02*
X99999800Y-109514640D01*
X99810000Y-105410000D02*
X99999800Y-105599800D01*
X106974640Y-111465360D02*
X99999800Y-111465360D01*
X110470000Y-107970000D02*
X106974640Y-111465360D01*
X110470000Y-95120000D02*
X110470000Y-107970000D01*
X105206919Y-110693081D02*
X100121839Y-110693081D01*
X107950000Y-107950000D02*
X105206919Y-110693081D01*
X107950000Y-93427600D02*
X107950000Y-107950000D01*
X100121839Y-110693081D02*
X99999800Y-110815120D01*
X108797600Y-92580000D02*
X107950000Y-93427600D01*
X110470000Y-92580000D02*
X108797600Y-92580000D01*
X84845000Y-78740000D02*
X85090000Y-78495000D01*
X80010000Y-78740000D02*
X84845000Y-78740000D01*
X86489880Y-77795120D02*
X89577100Y-77795120D01*
X89577100Y-77795120D02*
X90493850Y-77795120D01*
X85790000Y-78495000D02*
X86489880Y-77795120D01*
X85090000Y-78495000D02*
X85790000Y-78495000D01*
X92710000Y-76873100D02*
X92710000Y-77470000D01*
X93738700Y-75844400D02*
X92710000Y-76873100D01*
X94926150Y-75844400D02*
X93738700Y-75844400D01*
X96190000Y-105410000D02*
X96765000Y-105410000D01*
X95580200Y-106019800D02*
X96190000Y-105410000D01*
X95580200Y-109514640D02*
X95580200Y-106019800D01*
D23*
G36*
X144653000Y-120523000D02*
G01*
X77597000Y-120523000D01*
X77597000Y-116420000D01*
X79791928Y-116420000D01*
X79804188Y-116544482D01*
X79840498Y-116664180D01*
X79899463Y-116774494D01*
X79978815Y-116871185D01*
X80075506Y-116950537D01*
X80185820Y-117009502D01*
X80305518Y-117045812D01*
X80430000Y-117058072D01*
X80994250Y-117055000D01*
X81153000Y-116896250D01*
X81153000Y-115697000D01*
X81407000Y-115697000D01*
X81407000Y-116896250D01*
X81565750Y-117055000D01*
X82130000Y-117058072D01*
X82254482Y-117045812D01*
X82374180Y-117009502D01*
X82484494Y-116950537D01*
X82581185Y-116871185D01*
X82660537Y-116774494D01*
X82719502Y-116664180D01*
X82755812Y-116544482D01*
X82768072Y-116420000D01*
X82765000Y-115855750D01*
X82606250Y-115697000D01*
X81407000Y-115697000D01*
X81153000Y-115697000D01*
X79953750Y-115697000D01*
X79795000Y-115855750D01*
X79791928Y-116420000D01*
X77597000Y-116420000D01*
X77597000Y-114720000D01*
X79791928Y-114720000D01*
X79795000Y-115284250D01*
X79953750Y-115443000D01*
X81153000Y-115443000D01*
X81153000Y-115423000D01*
X81407000Y-115423000D01*
X81407000Y-115443000D01*
X82606250Y-115443000D01*
X82765000Y-115284250D01*
X82768072Y-114720000D01*
X82755812Y-114595518D01*
X82719502Y-114475820D01*
X82660537Y-114365506D01*
X82581185Y-114268815D01*
X82484494Y-114189463D01*
X82374180Y-114130498D01*
X82301620Y-114108487D01*
X82433475Y-113976632D01*
X82595990Y-113733411D01*
X82707932Y-113463158D01*
X82765000Y-113176260D01*
X82765000Y-112883740D01*
X82741381Y-112765000D01*
X85140386Y-112765000D01*
X85171595Y-112823387D01*
X85282038Y-112957962D01*
X85369816Y-113030000D01*
X85282038Y-113102038D01*
X85171595Y-113236613D01*
X85089528Y-113390149D01*
X85038992Y-113556745D01*
X85021928Y-113729999D01*
X85021928Y-114380001D01*
X85038992Y-114553255D01*
X85089528Y-114719851D01*
X85171595Y-114873387D01*
X85282038Y-115007962D01*
X85416613Y-115118405D01*
X85570149Y-115200472D01*
X85736745Y-115251008D01*
X85845001Y-115261670D01*
X85845000Y-115620386D01*
X85786613Y-115651595D01*
X85652038Y-115762038D01*
X85541595Y-115896613D01*
X85459528Y-116050149D01*
X85408992Y-116216745D01*
X85391928Y-116389999D01*
X85391928Y-117290001D01*
X85408992Y-117463255D01*
X85459528Y-117629851D01*
X85541595Y-117783387D01*
X85652038Y-117917962D01*
X85786613Y-118028405D01*
X85940149Y-118110472D01*
X86106745Y-118161008D01*
X86279999Y-118178072D01*
X86930001Y-118178072D01*
X87103255Y-118161008D01*
X87269851Y-118110472D01*
X87423387Y-118028405D01*
X87557962Y-117917962D01*
X87630000Y-117830184D01*
X87702038Y-117917962D01*
X87836613Y-118028405D01*
X87990149Y-118110472D01*
X88156745Y-118161008D01*
X88329999Y-118178072D01*
X88980001Y-118178072D01*
X89153255Y-118161008D01*
X89319851Y-118110472D01*
X89473387Y-118028405D01*
X89607962Y-117917962D01*
X89718405Y-117783387D01*
X89800472Y-117629851D01*
X89809527Y-117600000D01*
X92006289Y-117600000D01*
X92050226Y-117643937D01*
X92219744Y-117757205D01*
X92408102Y-117835226D01*
X92608061Y-117875000D01*
X92811939Y-117875000D01*
X93011898Y-117835226D01*
X93200256Y-117757205D01*
X93369774Y-117643937D01*
X93513937Y-117499774D01*
X93627205Y-117330256D01*
X93705226Y-117141898D01*
X93745000Y-116941939D01*
X93745000Y-116738061D01*
X93705226Y-116538102D01*
X93627205Y-116349744D01*
X93513937Y-116180226D01*
X93369774Y-116036063D01*
X93200256Y-115922795D01*
X93011898Y-115844774D01*
X92811939Y-115805000D01*
X92608061Y-115805000D01*
X92408102Y-115844774D01*
X92219744Y-115922795D01*
X92050226Y-116036063D01*
X92006289Y-116080000D01*
X89809527Y-116080000D01*
X89800472Y-116050149D01*
X89718405Y-115896613D01*
X89607962Y-115762038D01*
X89473387Y-115651595D01*
X89415000Y-115620386D01*
X89415000Y-115261670D01*
X89523255Y-115251008D01*
X89689851Y-115200472D01*
X89843387Y-115118405D01*
X89977962Y-115007962D01*
X90088405Y-114873387D01*
X90127864Y-114799565D01*
X90150498Y-114874180D01*
X90209463Y-114984494D01*
X90288815Y-115081185D01*
X90385506Y-115160537D01*
X90495820Y-115219502D01*
X90615518Y-115255812D01*
X90740000Y-115268072D01*
X91154250Y-115265000D01*
X91313000Y-115106250D01*
X91313000Y-114182000D01*
X91567000Y-114182000D01*
X91567000Y-115106250D01*
X91725750Y-115265000D01*
X92140000Y-115268072D01*
X92264482Y-115255812D01*
X92384180Y-115219502D01*
X92494494Y-115160537D01*
X92591185Y-115081185D01*
X92670537Y-114984494D01*
X92729502Y-114874180D01*
X92765812Y-114754482D01*
X92778072Y-114630000D01*
X92775000Y-114340750D01*
X92616250Y-114182000D01*
X91567000Y-114182000D01*
X91313000Y-114182000D01*
X91293000Y-114182000D01*
X91293000Y-113928000D01*
X91313000Y-113928000D01*
X91313000Y-113908000D01*
X91567000Y-113908000D01*
X91567000Y-113928000D01*
X92616250Y-113928000D01*
X92775000Y-113769250D01*
X92778072Y-113480000D01*
X92765812Y-113355518D01*
X92729502Y-113235820D01*
X92670537Y-113125506D01*
X92591185Y-113028815D01*
X92511406Y-112963342D01*
X92517962Y-112957962D01*
X92628405Y-112823387D01*
X92710472Y-112669851D01*
X92761008Y-112503255D01*
X92778072Y-112330001D01*
X92778072Y-112225360D01*
X94614440Y-112225360D01*
X94675620Y-112258062D01*
X94795318Y-112294372D01*
X94919800Y-112306632D01*
X96240600Y-112306632D01*
X96365082Y-112294372D01*
X96484780Y-112258062D01*
X96595094Y-112199097D01*
X96691785Y-112119745D01*
X96771137Y-112023054D01*
X96830102Y-111912740D01*
X96866412Y-111793042D01*
X96878672Y-111668560D01*
X96878672Y-111262160D01*
X96866664Y-111140240D01*
X96878672Y-111018320D01*
X96878672Y-110611920D01*
X96866664Y-110490000D01*
X96878672Y-110368080D01*
X96878672Y-109961680D01*
X96866412Y-109837198D01*
X96866098Y-109836163D01*
X96875600Y-109749590D01*
X96814705Y-109688695D01*
X96771137Y-109607186D01*
X96691785Y-109510495D01*
X96603985Y-109438440D01*
X96716850Y-109438440D01*
X96875600Y-109279690D01*
X96864309Y-109176817D01*
X96826061Y-109057724D01*
X96765314Y-108948381D01*
X96684402Y-108852991D01*
X96586436Y-108775218D01*
X96475179Y-108718053D01*
X96354907Y-108683690D01*
X96230243Y-108673452D01*
X95865950Y-108676440D01*
X95707200Y-108835190D01*
X95707200Y-109323608D01*
X95453200Y-109323608D01*
X95453200Y-108835190D01*
X95294450Y-108676440D01*
X94930157Y-108673452D01*
X94805493Y-108683690D01*
X94685221Y-108718053D01*
X94573964Y-108775218D01*
X94475998Y-108852991D01*
X94395086Y-108948381D01*
X94334339Y-109057724D01*
X94296091Y-109176817D01*
X94284800Y-109279690D01*
X94392748Y-109387638D01*
X94284800Y-109387638D01*
X94284800Y-109404880D01*
X93969682Y-109404880D01*
X92200000Y-107635199D01*
X92200000Y-106764825D01*
X92203676Y-106727500D01*
X92200000Y-106690175D01*
X92200000Y-106690167D01*
X92189003Y-106578514D01*
X92145546Y-106435253D01*
X92074974Y-106303224D01*
X91980001Y-106187499D01*
X91951003Y-106163701D01*
X91897302Y-106110000D01*
X95551928Y-106110000D01*
X95564188Y-106234482D01*
X95600498Y-106354180D01*
X95659463Y-106464494D01*
X95738815Y-106561185D01*
X95835506Y-106640537D01*
X95945820Y-106699502D01*
X96065518Y-106735812D01*
X96190000Y-106748072D01*
X96479250Y-106745000D01*
X96638000Y-106586250D01*
X96638000Y-105537000D01*
X95713750Y-105537000D01*
X95555000Y-105695750D01*
X95551928Y-106110000D01*
X91897302Y-106110000D01*
X90497302Y-104710000D01*
X95551928Y-104710000D01*
X95555000Y-105124250D01*
X95713750Y-105283000D01*
X96638000Y-105283000D01*
X96638000Y-104233750D01*
X96892000Y-104233750D01*
X96892000Y-105283000D01*
X96912000Y-105283000D01*
X96912000Y-105537000D01*
X96892000Y-105537000D01*
X96892000Y-106586250D01*
X97050750Y-106745000D01*
X97340000Y-106748072D01*
X97464482Y-106735812D01*
X97584180Y-106699502D01*
X97694494Y-106640537D01*
X97791185Y-106561185D01*
X97856658Y-106481406D01*
X97862038Y-106487962D01*
X97996613Y-106598405D01*
X98150149Y-106680472D01*
X98316745Y-106731008D01*
X98489999Y-106748072D01*
X99140001Y-106748072D01*
X99239800Y-106738243D01*
X99239801Y-108683177D01*
X99214918Y-108685628D01*
X99095220Y-108721938D01*
X98984906Y-108780903D01*
X98888215Y-108860255D01*
X98808863Y-108956946D01*
X98749898Y-109067260D01*
X98713588Y-109186958D01*
X98701328Y-109311440D01*
X98701328Y-109717840D01*
X98713336Y-109839760D01*
X98701328Y-109961680D01*
X98701328Y-110368080D01*
X98713336Y-110490000D01*
X98701328Y-110611920D01*
X98701328Y-111018320D01*
X98713336Y-111140240D01*
X98701328Y-111262160D01*
X98701328Y-111668560D01*
X98713588Y-111793042D01*
X98749898Y-111912740D01*
X98808863Y-112023054D01*
X98888215Y-112119745D01*
X98984906Y-112199097D01*
X99095220Y-112258062D01*
X99214918Y-112294372D01*
X99339400Y-112306632D01*
X100660200Y-112306632D01*
X100784682Y-112294372D01*
X100904380Y-112258062D01*
X100965560Y-112225360D01*
X106937318Y-112225360D01*
X106974640Y-112229036D01*
X107011962Y-112225360D01*
X107011973Y-112225360D01*
X107123626Y-112214363D01*
X107266887Y-112170906D01*
X107398916Y-112100334D01*
X107514641Y-112005361D01*
X107538444Y-111976357D01*
X110981003Y-108533799D01*
X111010001Y-108510001D01*
X111104974Y-108394276D01*
X111175546Y-108262247D01*
X111219003Y-108118986D01*
X111230000Y-108007333D01*
X111233677Y-107970000D01*
X111230000Y-107932667D01*
X111230000Y-96466200D01*
X111247328Y-96466200D01*
X111445101Y-96446721D01*
X111698861Y-96369744D01*
X111932727Y-96244740D01*
X112137713Y-96076513D01*
X112305940Y-95871527D01*
X112430944Y-95637661D01*
X112486326Y-95455089D01*
X131314971Y-95455089D01*
X131326473Y-95517837D01*
X131428919Y-95762313D01*
X131577091Y-95982105D01*
X131765295Y-96168767D01*
X131986299Y-96315126D01*
X132231610Y-96415557D01*
X132491800Y-96466200D01*
X133203000Y-96466200D01*
X133203000Y-95247000D01*
X133457000Y-95247000D01*
X133457000Y-96466200D01*
X134168200Y-96466200D01*
X134428390Y-96415557D01*
X134673701Y-96315126D01*
X134894705Y-96168767D01*
X135082909Y-95982105D01*
X135104552Y-95950000D01*
X138111928Y-95950000D01*
X138124188Y-96074482D01*
X138160498Y-96194180D01*
X138219463Y-96304494D01*
X138298815Y-96401185D01*
X138395506Y-96480537D01*
X138505820Y-96539502D01*
X138625518Y-96575812D01*
X138750000Y-96588072D01*
X139314250Y-96585000D01*
X139473000Y-96426250D01*
X139473000Y-95227000D01*
X139727000Y-95227000D01*
X139727000Y-96426250D01*
X139885750Y-96585000D01*
X140450000Y-96588072D01*
X140574482Y-96575812D01*
X140694180Y-96539502D01*
X140804494Y-96480537D01*
X140901185Y-96401185D01*
X140980537Y-96304494D01*
X141039502Y-96194180D01*
X141075812Y-96074482D01*
X141088072Y-95950000D01*
X141085000Y-95385750D01*
X140926250Y-95227000D01*
X139727000Y-95227000D01*
X139473000Y-95227000D01*
X138273750Y-95227000D01*
X138115000Y-95385750D01*
X138111928Y-95950000D01*
X135104552Y-95950000D01*
X135231081Y-95762313D01*
X135333527Y-95517837D01*
X135345029Y-95455089D01*
X135221839Y-95247000D01*
X133457000Y-95247000D01*
X133203000Y-95247000D01*
X131438161Y-95247000D01*
X131314971Y-95455089D01*
X112486326Y-95455089D01*
X112507921Y-95383901D01*
X112533913Y-95120000D01*
X112507921Y-94856099D01*
X112430944Y-94602339D01*
X112305940Y-94368473D01*
X112137713Y-94163487D01*
X111932727Y-93995260D01*
X111698861Y-93870256D01*
X111632086Y-93850000D01*
X111698861Y-93829744D01*
X111932727Y-93704740D01*
X112137713Y-93536513D01*
X112305940Y-93331527D01*
X112430944Y-93097661D01*
X112507921Y-92843901D01*
X112533913Y-92580000D01*
X112507921Y-92316099D01*
X112430944Y-92062339D01*
X112305940Y-91828473D01*
X112137713Y-91623487D01*
X111932727Y-91455260D01*
X111698861Y-91330256D01*
X111632086Y-91310000D01*
X111698861Y-91289744D01*
X111932727Y-91164740D01*
X112137713Y-90996513D01*
X112305940Y-90791527D01*
X112430944Y-90557661D01*
X112507921Y-90303901D01*
X112533913Y-90040000D01*
X112507921Y-89776099D01*
X112430944Y-89522339D01*
X112305940Y-89288473D01*
X112137713Y-89083487D01*
X111932727Y-88915260D01*
X111698861Y-88790256D01*
X111632086Y-88770000D01*
X111698861Y-88749744D01*
X111932727Y-88624740D01*
X112137713Y-88456513D01*
X112305940Y-88251527D01*
X112430944Y-88017661D01*
X112507921Y-87763901D01*
X112533913Y-87500000D01*
X112507921Y-87236099D01*
X112430944Y-86982339D01*
X112305940Y-86748473D01*
X112137713Y-86543487D01*
X111932727Y-86375260D01*
X111698861Y-86250256D01*
X111632086Y-86230000D01*
X111698861Y-86209744D01*
X111932727Y-86084740D01*
X112137713Y-85916513D01*
X112305940Y-85711527D01*
X112430944Y-85477661D01*
X112507921Y-85223901D01*
X112533913Y-84960000D01*
X112507921Y-84696099D01*
X112430944Y-84442339D01*
X112305940Y-84208473D01*
X112137713Y-84003487D01*
X111932727Y-83835260D01*
X111698861Y-83710256D01*
X111632086Y-83690000D01*
X111698861Y-83669744D01*
X111932727Y-83544740D01*
X112137713Y-83376513D01*
X112305940Y-83171527D01*
X112430944Y-82937661D01*
X112507921Y-82683901D01*
X112533913Y-82420000D01*
X112507921Y-82156099D01*
X112430944Y-81902339D01*
X112305940Y-81668473D01*
X112137713Y-81463487D01*
X111932727Y-81295260D01*
X111698861Y-81170256D01*
X111631356Y-81149779D01*
X111813701Y-81075126D01*
X112034705Y-80928767D01*
X112222909Y-80742105D01*
X112371081Y-80522313D01*
X112473527Y-80277837D01*
X112485029Y-80215089D01*
X112361839Y-80007000D01*
X110597000Y-80007000D01*
X110597000Y-80027000D01*
X110343000Y-80027000D01*
X110343000Y-80007000D01*
X108578161Y-80007000D01*
X108454971Y-80215089D01*
X108466473Y-80277837D01*
X108568919Y-80522313D01*
X108717091Y-80742105D01*
X108905295Y-80928767D01*
X109126299Y-81075126D01*
X109308644Y-81149779D01*
X109241139Y-81170256D01*
X109007273Y-81295260D01*
X108802287Y-81463487D01*
X108634060Y-81668473D01*
X108509056Y-81902339D01*
X108432079Y-82156099D01*
X108406087Y-82420000D01*
X108432079Y-82683901D01*
X108509056Y-82937661D01*
X108634060Y-83171527D01*
X108802287Y-83376513D01*
X109007273Y-83544740D01*
X109241139Y-83669744D01*
X109307914Y-83690000D01*
X109241139Y-83710256D01*
X109007273Y-83835260D01*
X108802287Y-84003487D01*
X108634060Y-84208473D01*
X108509056Y-84442339D01*
X108432079Y-84696099D01*
X108406087Y-84960000D01*
X108432079Y-85223901D01*
X108509056Y-85477661D01*
X108634060Y-85711527D01*
X108802287Y-85916513D01*
X109007273Y-86084740D01*
X109241139Y-86209744D01*
X109307914Y-86230000D01*
X109241139Y-86250256D01*
X109007273Y-86375260D01*
X108802287Y-86543487D01*
X108634060Y-86748473D01*
X108509056Y-86982339D01*
X108432079Y-87236099D01*
X108406087Y-87500000D01*
X108432079Y-87763901D01*
X108509056Y-88017661D01*
X108634060Y-88251527D01*
X108802287Y-88456513D01*
X109007273Y-88624740D01*
X109241139Y-88749744D01*
X109307914Y-88770000D01*
X109241139Y-88790256D01*
X109007273Y-88915260D01*
X108802287Y-89083487D01*
X108634060Y-89288473D01*
X108509056Y-89522339D01*
X108432079Y-89776099D01*
X108406087Y-90040000D01*
X108432079Y-90303901D01*
X108509056Y-90557661D01*
X108634060Y-90791527D01*
X108802287Y-90996513D01*
X109007273Y-91164740D01*
X109241139Y-91289744D01*
X109307914Y-91310000D01*
X109241139Y-91330256D01*
X109007273Y-91455260D01*
X108802287Y-91623487D01*
X108634060Y-91828473D01*
X108629633Y-91836755D01*
X108505353Y-91874454D01*
X108373324Y-91945026D01*
X108373322Y-91945027D01*
X108373323Y-91945027D01*
X108286596Y-92016201D01*
X108286592Y-92016205D01*
X108257599Y-92039999D01*
X108233805Y-92068992D01*
X107439002Y-92863797D01*
X107409999Y-92887599D01*
X107354871Y-92954774D01*
X107315026Y-93003324D01*
X107252660Y-93120001D01*
X107244454Y-93135354D01*
X107200997Y-93278615D01*
X107190000Y-93390268D01*
X107190000Y-93390278D01*
X107186324Y-93427600D01*
X107190000Y-93464922D01*
X107190001Y-107635197D01*
X104892118Y-109933081D01*
X101295455Y-109933081D01*
X101286264Y-109839760D01*
X101298272Y-109717840D01*
X101298272Y-109311440D01*
X101286012Y-109186958D01*
X101249702Y-109067260D01*
X101190737Y-108956946D01*
X101111385Y-108860255D01*
X101014694Y-108780903D01*
X100904380Y-108721938D01*
X100784682Y-108685628D01*
X100759800Y-108683177D01*
X100759800Y-105637125D01*
X100763476Y-105599800D01*
X100759800Y-105562475D01*
X100759800Y-105562467D01*
X100748803Y-105450814D01*
X100705346Y-105307553D01*
X100634774Y-105175524D01*
X100539801Y-105059799D01*
X100510798Y-105035997D01*
X100373804Y-104899003D01*
X100350001Y-104869999D01*
X100234276Y-104775026D01*
X100102247Y-104704454D01*
X99974269Y-104665633D01*
X99960472Y-104620149D01*
X99878405Y-104466613D01*
X99767962Y-104332038D01*
X99633387Y-104221595D01*
X99479851Y-104139528D01*
X99313255Y-104088992D01*
X99140001Y-104071928D01*
X98489999Y-104071928D01*
X98316745Y-104088992D01*
X98150149Y-104139528D01*
X97996613Y-104221595D01*
X97862038Y-104332038D01*
X97856658Y-104338594D01*
X97791185Y-104258815D01*
X97694494Y-104179463D01*
X97584180Y-104120498D01*
X97464482Y-104084188D01*
X97340000Y-104071928D01*
X97050750Y-104075000D01*
X96892000Y-104233750D01*
X96638000Y-104233750D01*
X96479250Y-104075000D01*
X96190000Y-104071928D01*
X96065518Y-104084188D01*
X95945820Y-104120498D01*
X95835506Y-104179463D01*
X95738815Y-104258815D01*
X95659463Y-104355506D01*
X95600498Y-104465820D01*
X95564188Y-104585518D01*
X95551928Y-104710000D01*
X90497302Y-104710000D01*
X90292301Y-104505000D01*
X90297002Y-104505000D01*
X90297002Y-104340595D01*
X90542980Y-104460563D01*
X90761094Y-104389571D01*
X91036923Y-104245969D01*
X91279437Y-104051315D01*
X91440000Y-103859948D01*
X91600563Y-104051315D01*
X91843077Y-104245969D01*
X92118906Y-104389571D01*
X92337020Y-104460563D01*
X92583000Y-104340594D01*
X92583000Y-102997000D01*
X92837000Y-102997000D01*
X92837000Y-104340594D01*
X93082980Y-104460563D01*
X93301094Y-104389571D01*
X93576923Y-104245969D01*
X93819437Y-104051315D01*
X94019316Y-103813089D01*
X94168879Y-103540446D01*
X94262378Y-103243863D01*
X94135570Y-102997000D01*
X92837000Y-102997000D01*
X92583000Y-102997000D01*
X90297000Y-102997000D01*
X90297000Y-103017000D01*
X90043000Y-103017000D01*
X90043000Y-102997000D01*
X90023000Y-102997000D01*
X90023000Y-102743000D01*
X90043000Y-102743000D01*
X90043000Y-101399406D01*
X90297000Y-101399406D01*
X90297000Y-102743000D01*
X92583000Y-102743000D01*
X92583000Y-101399406D01*
X92837000Y-101399406D01*
X92837000Y-102743000D01*
X94135570Y-102743000D01*
X94262378Y-102496137D01*
X94168879Y-102199554D01*
X94019316Y-101926911D01*
X93819437Y-101688685D01*
X93576923Y-101494031D01*
X93301094Y-101350429D01*
X93082980Y-101279437D01*
X92837000Y-101399406D01*
X92583000Y-101399406D01*
X92337020Y-101279437D01*
X92118906Y-101350429D01*
X91843077Y-101494031D01*
X91600563Y-101688685D01*
X91440000Y-101880052D01*
X91279437Y-101688685D01*
X91036923Y-101494031D01*
X90761094Y-101350429D01*
X90542980Y-101279437D01*
X90297000Y-101399406D01*
X90043000Y-101399406D01*
X89797020Y-101279437D01*
X89578906Y-101350429D01*
X89303077Y-101494031D01*
X89060563Y-101688685D01*
X88905163Y-101873899D01*
X88757963Y-101694537D01*
X88516234Y-101496155D01*
X88240448Y-101348745D01*
X87941203Y-101257970D01*
X87630000Y-101227319D01*
X87318796Y-101257970D01*
X87019551Y-101348745D01*
X86743765Y-101496155D01*
X86617905Y-101599446D01*
X86573037Y-101515506D01*
X86493685Y-101418815D01*
X86396994Y-101339463D01*
X86286680Y-101280498D01*
X86166982Y-101244188D01*
X86042500Y-101231928D01*
X84137500Y-101231928D01*
X84013018Y-101244188D01*
X83893320Y-101280498D01*
X83783006Y-101339463D01*
X83686315Y-101418815D01*
X83606963Y-101515506D01*
X83547998Y-101625820D01*
X83511688Y-101745518D01*
X83499428Y-101870000D01*
X83499428Y-103870000D01*
X83511688Y-103994482D01*
X83547998Y-104114180D01*
X83606963Y-104224494D01*
X83686315Y-104321185D01*
X83783006Y-104400537D01*
X83893320Y-104459502D01*
X84013018Y-104495812D01*
X84137500Y-104508072D01*
X86042500Y-104508072D01*
X86166982Y-104495812D01*
X86286680Y-104459502D01*
X86396994Y-104400537D01*
X86493685Y-104321185D01*
X86573037Y-104224494D01*
X86617905Y-104140553D01*
X86743766Y-104243845D01*
X87019552Y-104391255D01*
X87318797Y-104482030D01*
X87630000Y-104512681D01*
X87941204Y-104482030D01*
X88078178Y-104440479D01*
X90249626Y-106611928D01*
X89599999Y-106611928D01*
X89426745Y-106628992D01*
X89260149Y-106679528D01*
X89106613Y-106761595D01*
X88972038Y-106872038D01*
X88966658Y-106878594D01*
X88901185Y-106798815D01*
X88804494Y-106719463D01*
X88694180Y-106660498D01*
X88574482Y-106624188D01*
X88450000Y-106611928D01*
X88160750Y-106615000D01*
X88002000Y-106773750D01*
X88002000Y-107823000D01*
X88022000Y-107823000D01*
X88022000Y-108077000D01*
X88002000Y-108077000D01*
X88002000Y-109126250D01*
X88160750Y-109285000D01*
X88450000Y-109288072D01*
X88574482Y-109275812D01*
X88694180Y-109239502D01*
X88804494Y-109180537D01*
X88901185Y-109101185D01*
X88966658Y-109021406D01*
X88972038Y-109027962D01*
X89106613Y-109138405D01*
X89260149Y-109220472D01*
X89426745Y-109271008D01*
X89476064Y-109275866D01*
X90992126Y-110791928D01*
X90989999Y-110791928D01*
X90816745Y-110808992D01*
X90650149Y-110859528D01*
X90496613Y-110941595D01*
X90362038Y-111052038D01*
X90251595Y-111186613D01*
X90220386Y-111245000D01*
X90119614Y-111245000D01*
X90088405Y-111186613D01*
X89977962Y-111052038D01*
X89843387Y-110941595D01*
X89689851Y-110859528D01*
X89523255Y-110808992D01*
X89350001Y-110791928D01*
X88449999Y-110791928D01*
X88276745Y-110808992D01*
X88110149Y-110859528D01*
X87956613Y-110941595D01*
X87822038Y-111052038D01*
X87711595Y-111186613D01*
X87680386Y-111245000D01*
X87579614Y-111245000D01*
X87548405Y-111186613D01*
X87437962Y-111052038D01*
X87303387Y-110941595D01*
X87149851Y-110859528D01*
X86983255Y-110808992D01*
X86810001Y-110791928D01*
X85909999Y-110791928D01*
X85736745Y-110808992D01*
X85570149Y-110859528D01*
X85416613Y-110941595D01*
X85282038Y-111052038D01*
X85171595Y-111186613D01*
X85140386Y-111245000D01*
X82342323Y-111245000D01*
X82305000Y-111241324D01*
X82267677Y-111245000D01*
X82267667Y-111245000D01*
X82156014Y-111255997D01*
X82012753Y-111299454D01*
X81880723Y-111370026D01*
X81797083Y-111438668D01*
X81764999Y-111464999D01*
X81741201Y-111493997D01*
X81646408Y-111588790D01*
X81426260Y-111545000D01*
X81133740Y-111545000D01*
X80846842Y-111602068D01*
X80576589Y-111714010D01*
X80333368Y-111876525D01*
X80126525Y-112083368D01*
X79964010Y-112326589D01*
X79852068Y-112596842D01*
X79795000Y-112883740D01*
X79795000Y-113176260D01*
X79852068Y-113463158D01*
X79964010Y-113733411D01*
X80126525Y-113976632D01*
X80258380Y-114108487D01*
X80185820Y-114130498D01*
X80075506Y-114189463D01*
X79978815Y-114268815D01*
X79899463Y-114365506D01*
X79840498Y-114475820D01*
X79804188Y-114595518D01*
X79791928Y-114720000D01*
X77597000Y-114720000D01*
X77597000Y-108650000D01*
X86661928Y-108650000D01*
X86674188Y-108774482D01*
X86710498Y-108894180D01*
X86769463Y-109004494D01*
X86848815Y-109101185D01*
X86945506Y-109180537D01*
X87055820Y-109239502D01*
X87175518Y-109275812D01*
X87300000Y-109288072D01*
X87589250Y-109285000D01*
X87748000Y-109126250D01*
X87748000Y-108077000D01*
X86823750Y-108077000D01*
X86665000Y-108235750D01*
X86661928Y-108650000D01*
X77597000Y-108650000D01*
X77597000Y-107250000D01*
X86661928Y-107250000D01*
X86665000Y-107664250D01*
X86823750Y-107823000D01*
X87748000Y-107823000D01*
X87748000Y-106773750D01*
X87589250Y-106615000D01*
X87300000Y-106611928D01*
X87175518Y-106624188D01*
X87055820Y-106660498D01*
X86945506Y-106719463D01*
X86848815Y-106798815D01*
X86769463Y-106895506D01*
X86710498Y-107005820D01*
X86674188Y-107125518D01*
X86661928Y-107250000D01*
X77597000Y-107250000D01*
X77597000Y-85975098D01*
X86515000Y-85975098D01*
X86515000Y-86444902D01*
X86606654Y-86905679D01*
X86786440Y-87339721D01*
X87047450Y-87730349D01*
X87379651Y-88062550D01*
X87770279Y-88323560D01*
X88204321Y-88503346D01*
X88665098Y-88595000D01*
X89134902Y-88595000D01*
X89595679Y-88503346D01*
X90029721Y-88323560D01*
X90420349Y-88062550D01*
X90752550Y-87730349D01*
X91013560Y-87339721D01*
X91193346Y-86905679D01*
X91285000Y-86444902D01*
X91285000Y-85975098D01*
X91193346Y-85514321D01*
X91013560Y-85080279D01*
X90752550Y-84689651D01*
X90420349Y-84357450D01*
X90029721Y-84096440D01*
X89595679Y-83916654D01*
X89134902Y-83825000D01*
X88665098Y-83825000D01*
X88204321Y-83916654D01*
X87770279Y-84096440D01*
X87379651Y-84357450D01*
X87047450Y-84689651D01*
X86786440Y-85080279D01*
X86606654Y-85514321D01*
X86515000Y-85975098D01*
X77597000Y-85975098D01*
X77597000Y-83700000D01*
X103961928Y-83700000D01*
X103974188Y-83824482D01*
X104010498Y-83944180D01*
X104069463Y-84054494D01*
X104148815Y-84151185D01*
X104245506Y-84230537D01*
X104355820Y-84289502D01*
X104475518Y-84325812D01*
X104600000Y-84338072D01*
X105014250Y-84335000D01*
X105173000Y-84176250D01*
X105173000Y-83252000D01*
X105427000Y-83252000D01*
X105427000Y-84176250D01*
X105585750Y-84335000D01*
X106000000Y-84338072D01*
X106124482Y-84325812D01*
X106244180Y-84289502D01*
X106354494Y-84230537D01*
X106451185Y-84151185D01*
X106530537Y-84054494D01*
X106589502Y-83944180D01*
X106625812Y-83824482D01*
X106638072Y-83700000D01*
X106635000Y-83410750D01*
X106476250Y-83252000D01*
X105427000Y-83252000D01*
X105173000Y-83252000D01*
X104123750Y-83252000D01*
X103965000Y-83410750D01*
X103961928Y-83700000D01*
X77597000Y-83700000D01*
X77597000Y-79590000D01*
X78521928Y-79590000D01*
X78534188Y-79714482D01*
X78570498Y-79834180D01*
X78629463Y-79944494D01*
X78708815Y-80041185D01*
X78805506Y-80120537D01*
X78915820Y-80179502D01*
X79035518Y-80215812D01*
X79160000Y-80228072D01*
X79724250Y-80225000D01*
X79883000Y-80066250D01*
X79883000Y-78867000D01*
X80137000Y-78867000D01*
X80137000Y-80066250D01*
X80295750Y-80225000D01*
X80860000Y-80228072D01*
X80984482Y-80215812D01*
X81104180Y-80179502D01*
X81214494Y-80120537D01*
X81311185Y-80041185D01*
X81390537Y-79944494D01*
X81449502Y-79834180D01*
X81485812Y-79714482D01*
X81498072Y-79590000D01*
X81495241Y-79070000D01*
X83751928Y-79070000D01*
X83764188Y-79194482D01*
X83800498Y-79314180D01*
X83859463Y-79424494D01*
X83938815Y-79521185D01*
X84035506Y-79600537D01*
X84145820Y-79659502D01*
X84265518Y-79695812D01*
X84390000Y-79708072D01*
X84804250Y-79705000D01*
X84963000Y-79546250D01*
X84963000Y-78622000D01*
X85217000Y-78622000D01*
X85217000Y-79546250D01*
X85375750Y-79705000D01*
X85790000Y-79708072D01*
X85914482Y-79695812D01*
X86034180Y-79659502D01*
X86144494Y-79600537D01*
X86241185Y-79521185D01*
X86320537Y-79424494D01*
X86379502Y-79314180D01*
X86415812Y-79194482D01*
X86428072Y-79070000D01*
X86425000Y-78780750D01*
X86266250Y-78622000D01*
X85217000Y-78622000D01*
X84963000Y-78622000D01*
X83913750Y-78622000D01*
X83755000Y-78780750D01*
X83751928Y-79070000D01*
X81495241Y-79070000D01*
X81495000Y-79025750D01*
X81336250Y-78867000D01*
X80137000Y-78867000D01*
X79883000Y-78867000D01*
X78683750Y-78867000D01*
X78525000Y-79025750D01*
X78521928Y-79590000D01*
X77597000Y-79590000D01*
X77597000Y-77890000D01*
X78521928Y-77890000D01*
X78525000Y-78454250D01*
X78683750Y-78613000D01*
X79883000Y-78613000D01*
X79883000Y-78593000D01*
X80137000Y-78593000D01*
X80137000Y-78613000D01*
X81336250Y-78613000D01*
X81495000Y-78454250D01*
X81498072Y-77890000D01*
X81485812Y-77765518D01*
X81449502Y-77645820D01*
X81390537Y-77535506D01*
X81311185Y-77438815D01*
X81214494Y-77359463D01*
X81168728Y-77335000D01*
X83960366Y-77335000D01*
X84012038Y-77397962D01*
X84018594Y-77403342D01*
X83938815Y-77468815D01*
X83859463Y-77565506D01*
X83800498Y-77675820D01*
X83764188Y-77795518D01*
X83751928Y-77920000D01*
X83755000Y-78209250D01*
X83913750Y-78368000D01*
X84963000Y-78368000D01*
X84963000Y-78348000D01*
X85217000Y-78348000D01*
X85217000Y-78368000D01*
X86266250Y-78368000D01*
X86425000Y-78209250D01*
X86428072Y-77920000D01*
X86415812Y-77795518D01*
X86379502Y-77675820D01*
X86320537Y-77565506D01*
X86253725Y-77484095D01*
X86423622Y-77393283D01*
X86553143Y-77286988D01*
X87110732Y-76729400D01*
X89190885Y-76729400D01*
X89199785Y-76819760D01*
X89189028Y-76928980D01*
X89189028Y-77360780D01*
X89200169Y-77473904D01*
X89192100Y-77547470D01*
X89232376Y-77587746D01*
X89237598Y-77604960D01*
X89296563Y-77715274D01*
X89362091Y-77795120D01*
X89296563Y-77874966D01*
X89237598Y-77985280D01*
X89232376Y-78002494D01*
X89192100Y-78042770D01*
X89200169Y-78116336D01*
X89189028Y-78229460D01*
X89189028Y-78661260D01*
X89199785Y-78770480D01*
X89189028Y-78879700D01*
X89189028Y-79012214D01*
X89001939Y-78975000D01*
X88798061Y-78975000D01*
X88598102Y-79014774D01*
X88409744Y-79092795D01*
X88240226Y-79206063D01*
X88096063Y-79350226D01*
X87982795Y-79519744D01*
X87904774Y-79708102D01*
X87865000Y-79908061D01*
X87865000Y-80111939D01*
X87904774Y-80311898D01*
X87982795Y-80500256D01*
X88096063Y-80669774D01*
X88240226Y-80813937D01*
X88409744Y-80927205D01*
X88598102Y-81005226D01*
X88798061Y-81045000D01*
X89001939Y-81045000D01*
X89201898Y-81005226D01*
X89390256Y-80927205D01*
X89559774Y-80813937D01*
X89602284Y-80771427D01*
X89616772Y-80770000D01*
X89616783Y-80770000D01*
X89728436Y-80759003D01*
X89871697Y-80715546D01*
X90003726Y-80644974D01*
X90119451Y-80550001D01*
X90143253Y-80520998D01*
X90714680Y-79949572D01*
X91160600Y-79949572D01*
X91285082Y-79937312D01*
X91404780Y-79901002D01*
X91515094Y-79842037D01*
X91611785Y-79762685D01*
X91691137Y-79665994D01*
X91741288Y-79572170D01*
X91833700Y-79581272D01*
X92424250Y-79578200D01*
X92583000Y-79419450D01*
X92583000Y-77597000D01*
X92563000Y-77597000D01*
X92563000Y-77343000D01*
X92583000Y-77343000D01*
X92583000Y-75520550D01*
X92837000Y-75520550D01*
X92837000Y-77343000D01*
X92857000Y-77343000D01*
X92857000Y-77597000D01*
X92837000Y-77597000D01*
X92837000Y-79419450D01*
X92995750Y-79578200D01*
X93586300Y-79581272D01*
X93678712Y-79572170D01*
X93728863Y-79665994D01*
X93808215Y-79762685D01*
X93904906Y-79842037D01*
X94015220Y-79901002D01*
X94134918Y-79937312D01*
X94259400Y-79949572D01*
X95592900Y-79949572D01*
X95717382Y-79937312D01*
X95837080Y-79901002D01*
X95947394Y-79842037D01*
X96044085Y-79762685D01*
X96123437Y-79665994D01*
X96182402Y-79555680D01*
X96218712Y-79435982D01*
X96230972Y-79311500D01*
X96230972Y-79205360D01*
X100353853Y-79205360D01*
X100411595Y-79313387D01*
X100522038Y-79447962D01*
X100656613Y-79558405D01*
X100810149Y-79640472D01*
X100840000Y-79649527D01*
X100840000Y-79972677D01*
X100836324Y-80010000D01*
X100840000Y-80047322D01*
X100840000Y-80047332D01*
X100850997Y-80158985D01*
X100871954Y-80228072D01*
X100894454Y-80302246D01*
X100965026Y-80434276D01*
X101004871Y-80482826D01*
X101059999Y-80550001D01*
X101089002Y-80573803D01*
X102101205Y-81586008D01*
X102124999Y-81615001D01*
X102153992Y-81638795D01*
X102153996Y-81638799D01*
X102224685Y-81696811D01*
X102240724Y-81709974D01*
X102372753Y-81780546D01*
X102516014Y-81824003D01*
X102627667Y-81835000D01*
X102627676Y-81835000D01*
X102664999Y-81838676D01*
X102702322Y-81835000D01*
X104080386Y-81835000D01*
X104111595Y-81893387D01*
X104222038Y-82027962D01*
X104228594Y-82033342D01*
X104148815Y-82098815D01*
X104069463Y-82195506D01*
X104010498Y-82305820D01*
X103974188Y-82425518D01*
X103961928Y-82550000D01*
X103965000Y-82839250D01*
X104123750Y-82998000D01*
X105173000Y-82998000D01*
X105173000Y-82978000D01*
X105427000Y-82978000D01*
X105427000Y-82998000D01*
X106476250Y-82998000D01*
X106635000Y-82839250D01*
X106638072Y-82550000D01*
X106625812Y-82425518D01*
X106589502Y-82305820D01*
X106530537Y-82195506D01*
X106451185Y-82098815D01*
X106371406Y-82033342D01*
X106377962Y-82027962D01*
X106488405Y-81893387D01*
X106570472Y-81739851D01*
X106621008Y-81573255D01*
X106638072Y-81400001D01*
X106638072Y-80749999D01*
X106621008Y-80576745D01*
X106570472Y-80410149D01*
X106488405Y-80256613D01*
X106377962Y-80122038D01*
X106243387Y-80011595D01*
X106089851Y-79929528D01*
X105923255Y-79878992D01*
X105750001Y-79861928D01*
X104849999Y-79861928D01*
X104676745Y-79878992D01*
X104510149Y-79929528D01*
X104356613Y-80011595D01*
X104222038Y-80122038D01*
X104111595Y-80256613D01*
X104080386Y-80315000D01*
X102979803Y-80315000D01*
X102360000Y-79695199D01*
X102360000Y-79649527D01*
X102389851Y-79640472D01*
X102543387Y-79558405D01*
X102677962Y-79447962D01*
X102788405Y-79313387D01*
X102870472Y-79159851D01*
X102897727Y-79070000D01*
X104071928Y-79070000D01*
X104084188Y-79194482D01*
X104120498Y-79314180D01*
X104179463Y-79424494D01*
X104258815Y-79521185D01*
X104355506Y-79600537D01*
X104465820Y-79659502D01*
X104585518Y-79695812D01*
X104710000Y-79708072D01*
X105124250Y-79705000D01*
X105283000Y-79546250D01*
X105283000Y-78622000D01*
X105537000Y-78622000D01*
X105537000Y-79546250D01*
X105695750Y-79705000D01*
X106110000Y-79708072D01*
X106234482Y-79695812D01*
X106354180Y-79659502D01*
X106464494Y-79600537D01*
X106561185Y-79521185D01*
X106640537Y-79424494D01*
X106699502Y-79314180D01*
X106735812Y-79194482D01*
X106748072Y-79070000D01*
X106745000Y-78780750D01*
X106586250Y-78622000D01*
X105537000Y-78622000D01*
X105283000Y-78622000D01*
X104233750Y-78622000D01*
X104075000Y-78780750D01*
X104071928Y-79070000D01*
X102897727Y-79070000D01*
X102921008Y-78993255D01*
X102938072Y-78820001D01*
X102938072Y-78169999D01*
X102921008Y-77996745D01*
X102870472Y-77830149D01*
X102788405Y-77676613D01*
X102709117Y-77580000D01*
X104171716Y-77580000D01*
X104120498Y-77675820D01*
X104084188Y-77795518D01*
X104071928Y-77920000D01*
X104075000Y-78209250D01*
X104233750Y-78368000D01*
X105283000Y-78368000D01*
X105283000Y-78348000D01*
X105537000Y-78348000D01*
X105537000Y-78368000D01*
X106586250Y-78368000D01*
X106745000Y-78209250D01*
X106748072Y-77920000D01*
X106735812Y-77795518D01*
X106699502Y-77675820D01*
X106640537Y-77565506D01*
X106573725Y-77484095D01*
X106743622Y-77393283D01*
X106808547Y-77340000D01*
X108406087Y-77340000D01*
X108432079Y-77603901D01*
X108509056Y-77857661D01*
X108634060Y-78091527D01*
X108802287Y-78296513D01*
X109007273Y-78464740D01*
X109241139Y-78589744D01*
X109308644Y-78610221D01*
X109126299Y-78684874D01*
X108905295Y-78831233D01*
X108717091Y-79017895D01*
X108568919Y-79237687D01*
X108466473Y-79482163D01*
X108454971Y-79544911D01*
X108578161Y-79753000D01*
X110343000Y-79753000D01*
X110343000Y-79733000D01*
X110597000Y-79733000D01*
X110597000Y-79753000D01*
X112361839Y-79753000D01*
X112485029Y-79544911D01*
X112473527Y-79482163D01*
X112371081Y-79237687D01*
X112222909Y-79017895D01*
X112034705Y-78831233D01*
X111813701Y-78684874D01*
X111631356Y-78610221D01*
X111698861Y-78589744D01*
X111932727Y-78464740D01*
X112137713Y-78296513D01*
X112305940Y-78091527D01*
X112430944Y-77857661D01*
X112507921Y-77603901D01*
X112533913Y-77340000D01*
X112507921Y-77076099D01*
X112430944Y-76822339D01*
X112305940Y-76588473D01*
X112137713Y-76383487D01*
X111932727Y-76215260D01*
X111698861Y-76090256D01*
X111445101Y-76013279D01*
X111247328Y-75993800D01*
X109692672Y-75993800D01*
X109494899Y-76013279D01*
X109241139Y-76090256D01*
X109007273Y-76215260D01*
X108802287Y-76383487D01*
X108634060Y-76588473D01*
X108509056Y-76822339D01*
X108432079Y-77076099D01*
X108406087Y-77340000D01*
X106808547Y-77340000D01*
X106873143Y-77286988D01*
X108420132Y-75740000D01*
X131086069Y-75740000D01*
X131699234Y-76353166D01*
X131662287Y-76383487D01*
X131494060Y-76588473D01*
X131369056Y-76822339D01*
X131292079Y-77076099D01*
X131266087Y-77340000D01*
X131292079Y-77603901D01*
X131369056Y-77857661D01*
X131494060Y-78091527D01*
X131662287Y-78296513D01*
X131867273Y-78464740D01*
X132101139Y-78589744D01*
X132167914Y-78610000D01*
X132101139Y-78630256D01*
X131867273Y-78755260D01*
X131662287Y-78923487D01*
X131494060Y-79128473D01*
X131369056Y-79362339D01*
X131292079Y-79616099D01*
X131266087Y-79880000D01*
X131292079Y-80143901D01*
X131369056Y-80397661D01*
X131494060Y-80631527D01*
X131662287Y-80836513D01*
X131867273Y-81004740D01*
X132101139Y-81129744D01*
X132167914Y-81150000D01*
X132101139Y-81170256D01*
X131867273Y-81295260D01*
X131662287Y-81463487D01*
X131494060Y-81668473D01*
X131369056Y-81902339D01*
X131292079Y-82156099D01*
X131266087Y-82420000D01*
X131292079Y-82683901D01*
X131369056Y-82937661D01*
X131494060Y-83171527D01*
X131662287Y-83376513D01*
X131867273Y-83544740D01*
X132101139Y-83669744D01*
X132167914Y-83690000D01*
X132101139Y-83710256D01*
X131867273Y-83835260D01*
X131662287Y-84003487D01*
X131494060Y-84208473D01*
X131369056Y-84442339D01*
X131292079Y-84696099D01*
X131266087Y-84960000D01*
X131292079Y-85223901D01*
X131369056Y-85477661D01*
X131494060Y-85711527D01*
X131662287Y-85916513D01*
X131867273Y-86084740D01*
X132101139Y-86209744D01*
X132167914Y-86230000D01*
X132101139Y-86250256D01*
X131867273Y-86375260D01*
X131662287Y-86543487D01*
X131494060Y-86748473D01*
X131369056Y-86982339D01*
X131292079Y-87236099D01*
X131266087Y-87500000D01*
X131292079Y-87763901D01*
X131369056Y-88017661D01*
X131494060Y-88251527D01*
X131662287Y-88456513D01*
X131867273Y-88624740D01*
X132101139Y-88749744D01*
X132167914Y-88770000D01*
X132101139Y-88790256D01*
X131867273Y-88915260D01*
X131662287Y-89083487D01*
X131494060Y-89288473D01*
X131369056Y-89522339D01*
X131292079Y-89776099D01*
X131266087Y-90040000D01*
X131292079Y-90303901D01*
X131369056Y-90557661D01*
X131494060Y-90791527D01*
X131662287Y-90996513D01*
X131867273Y-91164740D01*
X132101139Y-91289744D01*
X132167914Y-91310000D01*
X132101139Y-91330256D01*
X131867273Y-91455260D01*
X131662287Y-91623487D01*
X131494060Y-91828473D01*
X131369056Y-92062339D01*
X131292079Y-92316099D01*
X131266087Y-92580000D01*
X131292079Y-92843901D01*
X131369056Y-93097661D01*
X131494060Y-93331527D01*
X131662287Y-93536513D01*
X131867273Y-93704740D01*
X132101139Y-93829744D01*
X132168644Y-93850221D01*
X131986299Y-93924874D01*
X131765295Y-94071233D01*
X131577091Y-94257895D01*
X131428919Y-94477687D01*
X131326473Y-94722163D01*
X131314971Y-94784911D01*
X131438161Y-94993000D01*
X133203000Y-94993000D01*
X133203000Y-94973000D01*
X133457000Y-94973000D01*
X133457000Y-94993000D01*
X135221839Y-94993000D01*
X135345029Y-94784911D01*
X135333527Y-94722163D01*
X135231081Y-94477687D01*
X135082909Y-94257895D01*
X134894705Y-94071233D01*
X134673701Y-93924874D01*
X134491356Y-93850221D01*
X134558861Y-93829744D01*
X134792727Y-93704740D01*
X134997713Y-93536513D01*
X135158986Y-93340000D01*
X138335185Y-93340000D01*
X138446525Y-93506632D01*
X138578380Y-93638487D01*
X138505820Y-93660498D01*
X138395506Y-93719463D01*
X138298815Y-93798815D01*
X138219463Y-93895506D01*
X138160498Y-94005820D01*
X138124188Y-94125518D01*
X138111928Y-94250000D01*
X138115000Y-94814250D01*
X138273750Y-94973000D01*
X139473000Y-94973000D01*
X139473000Y-94953000D01*
X139727000Y-94953000D01*
X139727000Y-94973000D01*
X140926250Y-94973000D01*
X141085000Y-94814250D01*
X141088072Y-94250000D01*
X141075812Y-94125518D01*
X141039502Y-94005820D01*
X140980537Y-93895506D01*
X140901185Y-93798815D01*
X140804494Y-93719463D01*
X140694180Y-93660498D01*
X140621620Y-93638487D01*
X140753475Y-93506632D01*
X140915990Y-93263411D01*
X141027932Y-92993158D01*
X141085000Y-92706260D01*
X141085000Y-92413740D01*
X141027932Y-92126842D01*
X140915990Y-91856589D01*
X140753475Y-91613368D01*
X140546632Y-91406525D01*
X140372240Y-91290000D01*
X140546632Y-91173475D01*
X140753475Y-90966632D01*
X140915990Y-90723411D01*
X141027932Y-90453158D01*
X141085000Y-90166260D01*
X141085000Y-89873740D01*
X141027932Y-89586842D01*
X140915990Y-89316589D01*
X140753475Y-89073368D01*
X140546632Y-88866525D01*
X140303411Y-88704010D01*
X140033158Y-88592068D01*
X139746260Y-88535000D01*
X139453740Y-88535000D01*
X139166842Y-88592068D01*
X138896589Y-88704010D01*
X138653368Y-88866525D01*
X138446525Y-89073368D01*
X138308458Y-89280000D01*
X135158986Y-89280000D01*
X134997713Y-89083487D01*
X134792727Y-88915260D01*
X134558861Y-88790256D01*
X134492086Y-88770000D01*
X134558861Y-88749744D01*
X134773532Y-88635000D01*
X138504249Y-88635000D01*
X138560000Y-88640491D01*
X138615751Y-88635000D01*
X138615752Y-88635000D01*
X138782499Y-88618577D01*
X138996447Y-88553676D01*
X139193623Y-88448284D01*
X139366449Y-88306449D01*
X139401996Y-88263136D01*
X140463140Y-87201992D01*
X140506449Y-87166449D01*
X140648284Y-86993623D01*
X140753676Y-86796447D01*
X140818577Y-86582499D01*
X140835000Y-86415752D01*
X140835000Y-86415743D01*
X140840490Y-86360001D01*
X140835000Y-86304259D01*
X140835000Y-78795751D01*
X140840491Y-78740000D01*
X140826146Y-78594346D01*
X140818577Y-78517501D01*
X140753676Y-78303553D01*
X140648284Y-78106377D01*
X140506449Y-77933551D01*
X140463140Y-77898008D01*
X139141996Y-76576865D01*
X139106449Y-76533551D01*
X138933623Y-76391716D01*
X138736447Y-76286324D01*
X138522499Y-76221423D01*
X138355752Y-76205000D01*
X138355751Y-76205000D01*
X138300000Y-76199509D01*
X138244249Y-76205000D01*
X134773532Y-76205000D01*
X134558861Y-76090256D01*
X134415335Y-76046718D01*
X134383676Y-75942353D01*
X134370927Y-75918501D01*
X134278284Y-75745177D01*
X134136449Y-75572351D01*
X134093140Y-75536809D01*
X132398196Y-73841865D01*
X132362649Y-73798551D01*
X132189823Y-73656716D01*
X131992647Y-73551324D01*
X131778699Y-73486423D01*
X131611952Y-73470000D01*
X131611951Y-73470000D01*
X131556200Y-73464509D01*
X131500449Y-73470000D01*
X108005751Y-73470000D01*
X107950000Y-73464509D01*
X107894248Y-73470000D01*
X107727501Y-73486423D01*
X107513553Y-73551324D01*
X107316377Y-73656716D01*
X107143551Y-73798551D01*
X107108009Y-73841860D01*
X105717941Y-75231928D01*
X104959999Y-75231928D01*
X104786745Y-75248992D01*
X104620149Y-75299528D01*
X104600557Y-75310000D01*
X102409443Y-75310000D01*
X102389851Y-75299528D01*
X102223255Y-75248992D01*
X102050001Y-75231928D01*
X101149999Y-75231928D01*
X100976745Y-75248992D01*
X100810149Y-75299528D01*
X100656613Y-75381595D01*
X100522038Y-75492038D01*
X100466263Y-75560000D01*
X97977618Y-75560000D01*
X97965306Y-75553419D01*
X97798483Y-75502812D01*
X97624993Y-75485726D01*
X97451502Y-75502812D01*
X97284679Y-75553419D01*
X97280000Y-75555920D01*
X97280000Y-74363711D01*
X97323937Y-74319774D01*
X97437205Y-74150256D01*
X97515226Y-73961898D01*
X97555000Y-73761939D01*
X97555000Y-73558061D01*
X97515226Y-73358102D01*
X97437205Y-73169744D01*
X97323937Y-73000226D01*
X97179774Y-72856063D01*
X97010256Y-72742795D01*
X96821898Y-72664774D01*
X96621939Y-72625000D01*
X96418061Y-72625000D01*
X96218102Y-72664774D01*
X96029744Y-72742795D01*
X95860226Y-72856063D01*
X95716063Y-73000226D01*
X95602795Y-73169744D01*
X95524774Y-73358102D01*
X95485000Y-73558061D01*
X95485000Y-73761939D01*
X95524774Y-73961898D01*
X95602795Y-74150256D01*
X95716063Y-74319774D01*
X95760001Y-74363712D01*
X95760000Y-75015833D01*
X95707273Y-75000762D01*
X95582610Y-74990511D01*
X95211900Y-74993500D01*
X95053150Y-75152250D01*
X95053150Y-75640668D01*
X94799150Y-75640668D01*
X94799150Y-75152250D01*
X94640400Y-74993500D01*
X94269690Y-74990511D01*
X94145027Y-75000762D01*
X94024759Y-75035137D01*
X93913508Y-75092315D01*
X93815550Y-75170097D01*
X93734648Y-75265496D01*
X93677856Y-75367745D01*
X93586300Y-75358728D01*
X92995750Y-75361800D01*
X92837000Y-75520550D01*
X92583000Y-75520550D01*
X92424250Y-75361800D01*
X91833700Y-75358728D01*
X91741288Y-75367830D01*
X91691137Y-75274006D01*
X91611785Y-75177315D01*
X91515094Y-75097963D01*
X91404780Y-75038998D01*
X91285082Y-75002688D01*
X91160600Y-74990428D01*
X91148176Y-74990428D01*
X91128824Y-74954224D01*
X91033851Y-74838499D01*
X91004847Y-74814696D01*
X90609154Y-74419003D01*
X90585351Y-74389999D01*
X90469626Y-74295026D01*
X90337597Y-74224454D01*
X90194336Y-74180997D01*
X90082683Y-74170000D01*
X90082672Y-74170000D01*
X90045350Y-74166324D01*
X90008028Y-74170000D01*
X89603711Y-74170000D01*
X89559774Y-74126063D01*
X89390256Y-74012795D01*
X89201898Y-73934774D01*
X89001939Y-73895000D01*
X88798061Y-73895000D01*
X88598102Y-73934774D01*
X88409744Y-74012795D01*
X88240226Y-74126063D01*
X88096063Y-74270226D01*
X87982795Y-74439744D01*
X87904774Y-74628102D01*
X87865000Y-74828061D01*
X87865000Y-74959400D01*
X87101335Y-74959400D01*
X87024223Y-74896116D01*
X86827047Y-74790724D01*
X86613099Y-74725823D01*
X86390600Y-74703909D01*
X86168101Y-74725823D01*
X85954153Y-74790724D01*
X85756978Y-74896116D01*
X85627457Y-75002411D01*
X85413149Y-75216720D01*
X85281447Y-75146324D01*
X85067499Y-75081423D01*
X84900752Y-75065000D01*
X80975107Y-75065000D01*
X80956632Y-75046525D01*
X80713411Y-74884010D01*
X80443158Y-74772068D01*
X80156260Y-74715000D01*
X79863740Y-74715000D01*
X79576842Y-74772068D01*
X79306589Y-74884010D01*
X79063368Y-75046525D01*
X78856525Y-75253368D01*
X78694010Y-75496589D01*
X78582068Y-75766842D01*
X78525000Y-76053740D01*
X78525000Y-76346260D01*
X78582068Y-76633158D01*
X78694010Y-76903411D01*
X78856525Y-77146632D01*
X78988380Y-77278487D01*
X78915820Y-77300498D01*
X78805506Y-77359463D01*
X78708815Y-77438815D01*
X78629463Y-77535506D01*
X78570498Y-77645820D01*
X78534188Y-77765518D01*
X78521928Y-77890000D01*
X77597000Y-77890000D01*
X77597000Y-64897000D01*
X144653000Y-64897000D01*
X144653000Y-120523000D01*
G37*
X144653000Y-120523000D02*
X77597000Y-120523000D01*
X77597000Y-116420000D01*
X79791928Y-116420000D01*
X79804188Y-116544482D01*
X79840498Y-116664180D01*
X79899463Y-116774494D01*
X79978815Y-116871185D01*
X80075506Y-116950537D01*
X80185820Y-117009502D01*
X80305518Y-117045812D01*
X80430000Y-117058072D01*
X80994250Y-117055000D01*
X81153000Y-116896250D01*
X81153000Y-115697000D01*
X81407000Y-115697000D01*
X81407000Y-116896250D01*
X81565750Y-117055000D01*
X82130000Y-117058072D01*
X82254482Y-117045812D01*
X82374180Y-117009502D01*
X82484494Y-116950537D01*
X82581185Y-116871185D01*
X82660537Y-116774494D01*
X82719502Y-116664180D01*
X82755812Y-116544482D01*
X82768072Y-116420000D01*
X82765000Y-115855750D01*
X82606250Y-115697000D01*
X81407000Y-115697000D01*
X81153000Y-115697000D01*
X79953750Y-115697000D01*
X79795000Y-115855750D01*
X79791928Y-116420000D01*
X77597000Y-116420000D01*
X77597000Y-114720000D01*
X79791928Y-114720000D01*
X79795000Y-115284250D01*
X79953750Y-115443000D01*
X81153000Y-115443000D01*
X81153000Y-115423000D01*
X81407000Y-115423000D01*
X81407000Y-115443000D01*
X82606250Y-115443000D01*
X82765000Y-115284250D01*
X82768072Y-114720000D01*
X82755812Y-114595518D01*
X82719502Y-114475820D01*
X82660537Y-114365506D01*
X82581185Y-114268815D01*
X82484494Y-114189463D01*
X82374180Y-114130498D01*
X82301620Y-114108487D01*
X82433475Y-113976632D01*
X82595990Y-113733411D01*
X82707932Y-113463158D01*
X82765000Y-113176260D01*
X82765000Y-112883740D01*
X82741381Y-112765000D01*
X85140386Y-112765000D01*
X85171595Y-112823387D01*
X85282038Y-112957962D01*
X85369816Y-113030000D01*
X85282038Y-113102038D01*
X85171595Y-113236613D01*
X85089528Y-113390149D01*
X85038992Y-113556745D01*
X85021928Y-113729999D01*
X85021928Y-114380001D01*
X85038992Y-114553255D01*
X85089528Y-114719851D01*
X85171595Y-114873387D01*
X85282038Y-115007962D01*
X85416613Y-115118405D01*
X85570149Y-115200472D01*
X85736745Y-115251008D01*
X85845001Y-115261670D01*
X85845000Y-115620386D01*
X85786613Y-115651595D01*
X85652038Y-115762038D01*
X85541595Y-115896613D01*
X85459528Y-116050149D01*
X85408992Y-116216745D01*
X85391928Y-116389999D01*
X85391928Y-117290001D01*
X85408992Y-117463255D01*
X85459528Y-117629851D01*
X85541595Y-117783387D01*
X85652038Y-117917962D01*
X85786613Y-118028405D01*
X85940149Y-118110472D01*
X86106745Y-118161008D01*
X86279999Y-118178072D01*
X86930001Y-118178072D01*
X87103255Y-118161008D01*
X87269851Y-118110472D01*
X87423387Y-118028405D01*
X87557962Y-117917962D01*
X87630000Y-117830184D01*
X87702038Y-117917962D01*
X87836613Y-118028405D01*
X87990149Y-118110472D01*
X88156745Y-118161008D01*
X88329999Y-118178072D01*
X88980001Y-118178072D01*
X89153255Y-118161008D01*
X89319851Y-118110472D01*
X89473387Y-118028405D01*
X89607962Y-117917962D01*
X89718405Y-117783387D01*
X89800472Y-117629851D01*
X89809527Y-117600000D01*
X92006289Y-117600000D01*
X92050226Y-117643937D01*
X92219744Y-117757205D01*
X92408102Y-117835226D01*
X92608061Y-117875000D01*
X92811939Y-117875000D01*
X93011898Y-117835226D01*
X93200256Y-117757205D01*
X93369774Y-117643937D01*
X93513937Y-117499774D01*
X93627205Y-117330256D01*
X93705226Y-117141898D01*
X93745000Y-116941939D01*
X93745000Y-116738061D01*
X93705226Y-116538102D01*
X93627205Y-116349744D01*
X93513937Y-116180226D01*
X93369774Y-116036063D01*
X93200256Y-115922795D01*
X93011898Y-115844774D01*
X92811939Y-115805000D01*
X92608061Y-115805000D01*
X92408102Y-115844774D01*
X92219744Y-115922795D01*
X92050226Y-116036063D01*
X92006289Y-116080000D01*
X89809527Y-116080000D01*
X89800472Y-116050149D01*
X89718405Y-115896613D01*
X89607962Y-115762038D01*
X89473387Y-115651595D01*
X89415000Y-115620386D01*
X89415000Y-115261670D01*
X89523255Y-115251008D01*
X89689851Y-115200472D01*
X89843387Y-115118405D01*
X89977962Y-115007962D01*
X90088405Y-114873387D01*
X90127864Y-114799565D01*
X90150498Y-114874180D01*
X90209463Y-114984494D01*
X90288815Y-115081185D01*
X90385506Y-115160537D01*
X90495820Y-115219502D01*
X90615518Y-115255812D01*
X90740000Y-115268072D01*
X91154250Y-115265000D01*
X91313000Y-115106250D01*
X91313000Y-114182000D01*
X91567000Y-114182000D01*
X91567000Y-115106250D01*
X91725750Y-115265000D01*
X92140000Y-115268072D01*
X92264482Y-115255812D01*
X92384180Y-115219502D01*
X92494494Y-115160537D01*
X92591185Y-115081185D01*
X92670537Y-114984494D01*
X92729502Y-114874180D01*
X92765812Y-114754482D01*
X92778072Y-114630000D01*
X92775000Y-114340750D01*
X92616250Y-114182000D01*
X91567000Y-114182000D01*
X91313000Y-114182000D01*
X91293000Y-114182000D01*
X91293000Y-113928000D01*
X91313000Y-113928000D01*
X91313000Y-113908000D01*
X91567000Y-113908000D01*
X91567000Y-113928000D01*
X92616250Y-113928000D01*
X92775000Y-113769250D01*
X92778072Y-113480000D01*
X92765812Y-113355518D01*
X92729502Y-113235820D01*
X92670537Y-113125506D01*
X92591185Y-113028815D01*
X92511406Y-112963342D01*
X92517962Y-112957962D01*
X92628405Y-112823387D01*
X92710472Y-112669851D01*
X92761008Y-112503255D01*
X92778072Y-112330001D01*
X92778072Y-112225360D01*
X94614440Y-112225360D01*
X94675620Y-112258062D01*
X94795318Y-112294372D01*
X94919800Y-112306632D01*
X96240600Y-112306632D01*
X96365082Y-112294372D01*
X96484780Y-112258062D01*
X96595094Y-112199097D01*
X96691785Y-112119745D01*
X96771137Y-112023054D01*
X96830102Y-111912740D01*
X96866412Y-111793042D01*
X96878672Y-111668560D01*
X96878672Y-111262160D01*
X96866664Y-111140240D01*
X96878672Y-111018320D01*
X96878672Y-110611920D01*
X96866664Y-110490000D01*
X96878672Y-110368080D01*
X96878672Y-109961680D01*
X96866412Y-109837198D01*
X96866098Y-109836163D01*
X96875600Y-109749590D01*
X96814705Y-109688695D01*
X96771137Y-109607186D01*
X96691785Y-109510495D01*
X96603985Y-109438440D01*
X96716850Y-109438440D01*
X96875600Y-109279690D01*
X96864309Y-109176817D01*
X96826061Y-109057724D01*
X96765314Y-108948381D01*
X96684402Y-108852991D01*
X96586436Y-108775218D01*
X96475179Y-108718053D01*
X96354907Y-108683690D01*
X96230243Y-108673452D01*
X95865950Y-108676440D01*
X95707200Y-108835190D01*
X95707200Y-109323608D01*
X95453200Y-109323608D01*
X95453200Y-108835190D01*
X95294450Y-108676440D01*
X94930157Y-108673452D01*
X94805493Y-108683690D01*
X94685221Y-108718053D01*
X94573964Y-108775218D01*
X94475998Y-108852991D01*
X94395086Y-108948381D01*
X94334339Y-109057724D01*
X94296091Y-109176817D01*
X94284800Y-109279690D01*
X94392748Y-109387638D01*
X94284800Y-109387638D01*
X94284800Y-109404880D01*
X93969682Y-109404880D01*
X92200000Y-107635199D01*
X92200000Y-106764825D01*
X92203676Y-106727500D01*
X92200000Y-106690175D01*
X92200000Y-106690167D01*
X92189003Y-106578514D01*
X92145546Y-106435253D01*
X92074974Y-106303224D01*
X91980001Y-106187499D01*
X91951003Y-106163701D01*
X91897302Y-106110000D01*
X95551928Y-106110000D01*
X95564188Y-106234482D01*
X95600498Y-106354180D01*
X95659463Y-106464494D01*
X95738815Y-106561185D01*
X95835506Y-106640537D01*
X95945820Y-106699502D01*
X96065518Y-106735812D01*
X96190000Y-106748072D01*
X96479250Y-106745000D01*
X96638000Y-106586250D01*
X96638000Y-105537000D01*
X95713750Y-105537000D01*
X95555000Y-105695750D01*
X95551928Y-106110000D01*
X91897302Y-106110000D01*
X90497302Y-104710000D01*
X95551928Y-104710000D01*
X95555000Y-105124250D01*
X95713750Y-105283000D01*
X96638000Y-105283000D01*
X96638000Y-104233750D01*
X96892000Y-104233750D01*
X96892000Y-105283000D01*
X96912000Y-105283000D01*
X96912000Y-105537000D01*
X96892000Y-105537000D01*
X96892000Y-106586250D01*
X97050750Y-106745000D01*
X97340000Y-106748072D01*
X97464482Y-106735812D01*
X97584180Y-106699502D01*
X97694494Y-106640537D01*
X97791185Y-106561185D01*
X97856658Y-106481406D01*
X97862038Y-106487962D01*
X97996613Y-106598405D01*
X98150149Y-106680472D01*
X98316745Y-106731008D01*
X98489999Y-106748072D01*
X99140001Y-106748072D01*
X99239800Y-106738243D01*
X99239801Y-108683177D01*
X99214918Y-108685628D01*
X99095220Y-108721938D01*
X98984906Y-108780903D01*
X98888215Y-108860255D01*
X98808863Y-108956946D01*
X98749898Y-109067260D01*
X98713588Y-109186958D01*
X98701328Y-109311440D01*
X98701328Y-109717840D01*
X98713336Y-109839760D01*
X98701328Y-109961680D01*
X98701328Y-110368080D01*
X98713336Y-110490000D01*
X98701328Y-110611920D01*
X98701328Y-111018320D01*
X98713336Y-111140240D01*
X98701328Y-111262160D01*
X98701328Y-111668560D01*
X98713588Y-111793042D01*
X98749898Y-111912740D01*
X98808863Y-112023054D01*
X98888215Y-112119745D01*
X98984906Y-112199097D01*
X99095220Y-112258062D01*
X99214918Y-112294372D01*
X99339400Y-112306632D01*
X100660200Y-112306632D01*
X100784682Y-112294372D01*
X100904380Y-112258062D01*
X100965560Y-112225360D01*
X106937318Y-112225360D01*
X106974640Y-112229036D01*
X107011962Y-112225360D01*
X107011973Y-112225360D01*
X107123626Y-112214363D01*
X107266887Y-112170906D01*
X107398916Y-112100334D01*
X107514641Y-112005361D01*
X107538444Y-111976357D01*
X110981003Y-108533799D01*
X111010001Y-108510001D01*
X111104974Y-108394276D01*
X111175546Y-108262247D01*
X111219003Y-108118986D01*
X111230000Y-108007333D01*
X111233677Y-107970000D01*
X111230000Y-107932667D01*
X111230000Y-96466200D01*
X111247328Y-96466200D01*
X111445101Y-96446721D01*
X111698861Y-96369744D01*
X111932727Y-96244740D01*
X112137713Y-96076513D01*
X112305940Y-95871527D01*
X112430944Y-95637661D01*
X112486326Y-95455089D01*
X131314971Y-95455089D01*
X131326473Y-95517837D01*
X131428919Y-95762313D01*
X131577091Y-95982105D01*
X131765295Y-96168767D01*
X131986299Y-96315126D01*
X132231610Y-96415557D01*
X132491800Y-96466200D01*
X133203000Y-96466200D01*
X133203000Y-95247000D01*
X133457000Y-95247000D01*
X133457000Y-96466200D01*
X134168200Y-96466200D01*
X134428390Y-96415557D01*
X134673701Y-96315126D01*
X134894705Y-96168767D01*
X135082909Y-95982105D01*
X135104552Y-95950000D01*
X138111928Y-95950000D01*
X138124188Y-96074482D01*
X138160498Y-96194180D01*
X138219463Y-96304494D01*
X138298815Y-96401185D01*
X138395506Y-96480537D01*
X138505820Y-96539502D01*
X138625518Y-96575812D01*
X138750000Y-96588072D01*
X139314250Y-96585000D01*
X139473000Y-96426250D01*
X139473000Y-95227000D01*
X139727000Y-95227000D01*
X139727000Y-96426250D01*
X139885750Y-96585000D01*
X140450000Y-96588072D01*
X140574482Y-96575812D01*
X140694180Y-96539502D01*
X140804494Y-96480537D01*
X140901185Y-96401185D01*
X140980537Y-96304494D01*
X141039502Y-96194180D01*
X141075812Y-96074482D01*
X141088072Y-95950000D01*
X141085000Y-95385750D01*
X140926250Y-95227000D01*
X139727000Y-95227000D01*
X139473000Y-95227000D01*
X138273750Y-95227000D01*
X138115000Y-95385750D01*
X138111928Y-95950000D01*
X135104552Y-95950000D01*
X135231081Y-95762313D01*
X135333527Y-95517837D01*
X135345029Y-95455089D01*
X135221839Y-95247000D01*
X133457000Y-95247000D01*
X133203000Y-95247000D01*
X131438161Y-95247000D01*
X131314971Y-95455089D01*
X112486326Y-95455089D01*
X112507921Y-95383901D01*
X112533913Y-95120000D01*
X112507921Y-94856099D01*
X112430944Y-94602339D01*
X112305940Y-94368473D01*
X112137713Y-94163487D01*
X111932727Y-93995260D01*
X111698861Y-93870256D01*
X111632086Y-93850000D01*
X111698861Y-93829744D01*
X111932727Y-93704740D01*
X112137713Y-93536513D01*
X112305940Y-93331527D01*
X112430944Y-93097661D01*
X112507921Y-92843901D01*
X112533913Y-92580000D01*
X112507921Y-92316099D01*
X112430944Y-92062339D01*
X112305940Y-91828473D01*
X112137713Y-91623487D01*
X111932727Y-91455260D01*
X111698861Y-91330256D01*
X111632086Y-91310000D01*
X111698861Y-91289744D01*
X111932727Y-91164740D01*
X112137713Y-90996513D01*
X112305940Y-90791527D01*
X112430944Y-90557661D01*
X112507921Y-90303901D01*
X112533913Y-90040000D01*
X112507921Y-89776099D01*
X112430944Y-89522339D01*
X112305940Y-89288473D01*
X112137713Y-89083487D01*
X111932727Y-88915260D01*
X111698861Y-88790256D01*
X111632086Y-88770000D01*
X111698861Y-88749744D01*
X111932727Y-88624740D01*
X112137713Y-88456513D01*
X112305940Y-88251527D01*
X112430944Y-88017661D01*
X112507921Y-87763901D01*
X112533913Y-87500000D01*
X112507921Y-87236099D01*
X112430944Y-86982339D01*
X112305940Y-86748473D01*
X112137713Y-86543487D01*
X111932727Y-86375260D01*
X111698861Y-86250256D01*
X111632086Y-86230000D01*
X111698861Y-86209744D01*
X111932727Y-86084740D01*
X112137713Y-85916513D01*
X112305940Y-85711527D01*
X112430944Y-85477661D01*
X112507921Y-85223901D01*
X112533913Y-84960000D01*
X112507921Y-84696099D01*
X112430944Y-84442339D01*
X112305940Y-84208473D01*
X112137713Y-84003487D01*
X111932727Y-83835260D01*
X111698861Y-83710256D01*
X111632086Y-83690000D01*
X111698861Y-83669744D01*
X111932727Y-83544740D01*
X112137713Y-83376513D01*
X112305940Y-83171527D01*
X112430944Y-82937661D01*
X112507921Y-82683901D01*
X112533913Y-82420000D01*
X112507921Y-82156099D01*
X112430944Y-81902339D01*
X112305940Y-81668473D01*
X112137713Y-81463487D01*
X111932727Y-81295260D01*
X111698861Y-81170256D01*
X111631356Y-81149779D01*
X111813701Y-81075126D01*
X112034705Y-80928767D01*
X112222909Y-80742105D01*
X112371081Y-80522313D01*
X112473527Y-80277837D01*
X112485029Y-80215089D01*
X112361839Y-80007000D01*
X110597000Y-80007000D01*
X110597000Y-80027000D01*
X110343000Y-80027000D01*
X110343000Y-80007000D01*
X108578161Y-80007000D01*
X108454971Y-80215089D01*
X108466473Y-80277837D01*
X108568919Y-80522313D01*
X108717091Y-80742105D01*
X108905295Y-80928767D01*
X109126299Y-81075126D01*
X109308644Y-81149779D01*
X109241139Y-81170256D01*
X109007273Y-81295260D01*
X108802287Y-81463487D01*
X108634060Y-81668473D01*
X108509056Y-81902339D01*
X108432079Y-82156099D01*
X108406087Y-82420000D01*
X108432079Y-82683901D01*
X108509056Y-82937661D01*
X108634060Y-83171527D01*
X108802287Y-83376513D01*
X109007273Y-83544740D01*
X109241139Y-83669744D01*
X109307914Y-83690000D01*
X109241139Y-83710256D01*
X109007273Y-83835260D01*
X108802287Y-84003487D01*
X108634060Y-84208473D01*
X108509056Y-84442339D01*
X108432079Y-84696099D01*
X108406087Y-84960000D01*
X108432079Y-85223901D01*
X108509056Y-85477661D01*
X108634060Y-85711527D01*
X108802287Y-85916513D01*
X109007273Y-86084740D01*
X109241139Y-86209744D01*
X109307914Y-86230000D01*
X109241139Y-86250256D01*
X109007273Y-86375260D01*
X108802287Y-86543487D01*
X108634060Y-86748473D01*
X108509056Y-86982339D01*
X108432079Y-87236099D01*
X108406087Y-87500000D01*
X108432079Y-87763901D01*
X108509056Y-88017661D01*
X108634060Y-88251527D01*
X108802287Y-88456513D01*
X109007273Y-88624740D01*
X109241139Y-88749744D01*
X109307914Y-88770000D01*
X109241139Y-88790256D01*
X109007273Y-88915260D01*
X108802287Y-89083487D01*
X108634060Y-89288473D01*
X108509056Y-89522339D01*
X108432079Y-89776099D01*
X108406087Y-90040000D01*
X108432079Y-90303901D01*
X108509056Y-90557661D01*
X108634060Y-90791527D01*
X108802287Y-90996513D01*
X109007273Y-91164740D01*
X109241139Y-91289744D01*
X109307914Y-91310000D01*
X109241139Y-91330256D01*
X109007273Y-91455260D01*
X108802287Y-91623487D01*
X108634060Y-91828473D01*
X108629633Y-91836755D01*
X108505353Y-91874454D01*
X108373324Y-91945026D01*
X108373322Y-91945027D01*
X108373323Y-91945027D01*
X108286596Y-92016201D01*
X108286592Y-92016205D01*
X108257599Y-92039999D01*
X108233805Y-92068992D01*
X107439002Y-92863797D01*
X107409999Y-92887599D01*
X107354871Y-92954774D01*
X107315026Y-93003324D01*
X107252660Y-93120001D01*
X107244454Y-93135354D01*
X107200997Y-93278615D01*
X107190000Y-93390268D01*
X107190000Y-93390278D01*
X107186324Y-93427600D01*
X107190000Y-93464922D01*
X107190001Y-107635197D01*
X104892118Y-109933081D01*
X101295455Y-109933081D01*
X101286264Y-109839760D01*
X101298272Y-109717840D01*
X101298272Y-109311440D01*
X101286012Y-109186958D01*
X101249702Y-109067260D01*
X101190737Y-108956946D01*
X101111385Y-108860255D01*
X101014694Y-108780903D01*
X100904380Y-108721938D01*
X100784682Y-108685628D01*
X100759800Y-108683177D01*
X100759800Y-105637125D01*
X100763476Y-105599800D01*
X100759800Y-105562475D01*
X100759800Y-105562467D01*
X100748803Y-105450814D01*
X100705346Y-105307553D01*
X100634774Y-105175524D01*
X100539801Y-105059799D01*
X100510798Y-105035997D01*
X100373804Y-104899003D01*
X100350001Y-104869999D01*
X100234276Y-104775026D01*
X100102247Y-104704454D01*
X99974269Y-104665633D01*
X99960472Y-104620149D01*
X99878405Y-104466613D01*
X99767962Y-104332038D01*
X99633387Y-104221595D01*
X99479851Y-104139528D01*
X99313255Y-104088992D01*
X99140001Y-104071928D01*
X98489999Y-104071928D01*
X98316745Y-104088992D01*
X98150149Y-104139528D01*
X97996613Y-104221595D01*
X97862038Y-104332038D01*
X97856658Y-104338594D01*
X97791185Y-104258815D01*
X97694494Y-104179463D01*
X97584180Y-104120498D01*
X97464482Y-104084188D01*
X97340000Y-104071928D01*
X97050750Y-104075000D01*
X96892000Y-104233750D01*
X96638000Y-104233750D01*
X96479250Y-104075000D01*
X96190000Y-104071928D01*
X96065518Y-104084188D01*
X95945820Y-104120498D01*
X95835506Y-104179463D01*
X95738815Y-104258815D01*
X95659463Y-104355506D01*
X95600498Y-104465820D01*
X95564188Y-104585518D01*
X95551928Y-104710000D01*
X90497302Y-104710000D01*
X90292301Y-104505000D01*
X90297002Y-104505000D01*
X90297002Y-104340595D01*
X90542980Y-104460563D01*
X90761094Y-104389571D01*
X91036923Y-104245969D01*
X91279437Y-104051315D01*
X91440000Y-103859948D01*
X91600563Y-104051315D01*
X91843077Y-104245969D01*
X92118906Y-104389571D01*
X92337020Y-104460563D01*
X92583000Y-104340594D01*
X92583000Y-102997000D01*
X92837000Y-102997000D01*
X92837000Y-104340594D01*
X93082980Y-104460563D01*
X93301094Y-104389571D01*
X93576923Y-104245969D01*
X93819437Y-104051315D01*
X94019316Y-103813089D01*
X94168879Y-103540446D01*
X94262378Y-103243863D01*
X94135570Y-102997000D01*
X92837000Y-102997000D01*
X92583000Y-102997000D01*
X90297000Y-102997000D01*
X90297000Y-103017000D01*
X90043000Y-103017000D01*
X90043000Y-102997000D01*
X90023000Y-102997000D01*
X90023000Y-102743000D01*
X90043000Y-102743000D01*
X90043000Y-101399406D01*
X90297000Y-101399406D01*
X90297000Y-102743000D01*
X92583000Y-102743000D01*
X92583000Y-101399406D01*
X92837000Y-101399406D01*
X92837000Y-102743000D01*
X94135570Y-102743000D01*
X94262378Y-102496137D01*
X94168879Y-102199554D01*
X94019316Y-101926911D01*
X93819437Y-101688685D01*
X93576923Y-101494031D01*
X93301094Y-101350429D01*
X93082980Y-101279437D01*
X92837000Y-101399406D01*
X92583000Y-101399406D01*
X92337020Y-101279437D01*
X92118906Y-101350429D01*
X91843077Y-101494031D01*
X91600563Y-101688685D01*
X91440000Y-101880052D01*
X91279437Y-101688685D01*
X91036923Y-101494031D01*
X90761094Y-101350429D01*
X90542980Y-101279437D01*
X90297000Y-101399406D01*
X90043000Y-101399406D01*
X89797020Y-101279437D01*
X89578906Y-101350429D01*
X89303077Y-101494031D01*
X89060563Y-101688685D01*
X88905163Y-101873899D01*
X88757963Y-101694537D01*
X88516234Y-101496155D01*
X88240448Y-101348745D01*
X87941203Y-101257970D01*
X87630000Y-101227319D01*
X87318796Y-101257970D01*
X87019551Y-101348745D01*
X86743765Y-101496155D01*
X86617905Y-101599446D01*
X86573037Y-101515506D01*
X86493685Y-101418815D01*
X86396994Y-101339463D01*
X86286680Y-101280498D01*
X86166982Y-101244188D01*
X86042500Y-101231928D01*
X84137500Y-101231928D01*
X84013018Y-101244188D01*
X83893320Y-101280498D01*
X83783006Y-101339463D01*
X83686315Y-101418815D01*
X83606963Y-101515506D01*
X83547998Y-101625820D01*
X83511688Y-101745518D01*
X83499428Y-101870000D01*
X83499428Y-103870000D01*
X83511688Y-103994482D01*
X83547998Y-104114180D01*
X83606963Y-104224494D01*
X83686315Y-104321185D01*
X83783006Y-104400537D01*
X83893320Y-104459502D01*
X84013018Y-104495812D01*
X84137500Y-104508072D01*
X86042500Y-104508072D01*
X86166982Y-104495812D01*
X86286680Y-104459502D01*
X86396994Y-104400537D01*
X86493685Y-104321185D01*
X86573037Y-104224494D01*
X86617905Y-104140553D01*
X86743766Y-104243845D01*
X87019552Y-104391255D01*
X87318797Y-104482030D01*
X87630000Y-104512681D01*
X87941204Y-104482030D01*
X88078178Y-104440479D01*
X90249626Y-106611928D01*
X89599999Y-106611928D01*
X89426745Y-106628992D01*
X89260149Y-106679528D01*
X89106613Y-106761595D01*
X88972038Y-106872038D01*
X88966658Y-106878594D01*
X88901185Y-106798815D01*
X88804494Y-106719463D01*
X88694180Y-106660498D01*
X88574482Y-106624188D01*
X88450000Y-106611928D01*
X88160750Y-106615000D01*
X88002000Y-106773750D01*
X88002000Y-107823000D01*
X88022000Y-107823000D01*
X88022000Y-108077000D01*
X88002000Y-108077000D01*
X88002000Y-109126250D01*
X88160750Y-109285000D01*
X88450000Y-109288072D01*
X88574482Y-109275812D01*
X88694180Y-109239502D01*
X88804494Y-109180537D01*
X88901185Y-109101185D01*
X88966658Y-109021406D01*
X88972038Y-109027962D01*
X89106613Y-109138405D01*
X89260149Y-109220472D01*
X89426745Y-109271008D01*
X89476064Y-109275866D01*
X90992126Y-110791928D01*
X90989999Y-110791928D01*
X90816745Y-110808992D01*
X90650149Y-110859528D01*
X90496613Y-110941595D01*
X90362038Y-111052038D01*
X90251595Y-111186613D01*
X90220386Y-111245000D01*
X90119614Y-111245000D01*
X90088405Y-111186613D01*
X89977962Y-111052038D01*
X89843387Y-110941595D01*
X89689851Y-110859528D01*
X89523255Y-110808992D01*
X89350001Y-110791928D01*
X88449999Y-110791928D01*
X88276745Y-110808992D01*
X88110149Y-110859528D01*
X87956613Y-110941595D01*
X87822038Y-111052038D01*
X87711595Y-111186613D01*
X87680386Y-111245000D01*
X87579614Y-111245000D01*
X87548405Y-111186613D01*
X87437962Y-111052038D01*
X87303387Y-110941595D01*
X87149851Y-110859528D01*
X86983255Y-110808992D01*
X86810001Y-110791928D01*
X85909999Y-110791928D01*
X85736745Y-110808992D01*
X85570149Y-110859528D01*
X85416613Y-110941595D01*
X85282038Y-111052038D01*
X85171595Y-111186613D01*
X85140386Y-111245000D01*
X82342323Y-111245000D01*
X82305000Y-111241324D01*
X82267677Y-111245000D01*
X82267667Y-111245000D01*
X82156014Y-111255997D01*
X82012753Y-111299454D01*
X81880723Y-111370026D01*
X81797083Y-111438668D01*
X81764999Y-111464999D01*
X81741201Y-111493997D01*
X81646408Y-111588790D01*
X81426260Y-111545000D01*
X81133740Y-111545000D01*
X80846842Y-111602068D01*
X80576589Y-111714010D01*
X80333368Y-111876525D01*
X80126525Y-112083368D01*
X79964010Y-112326589D01*
X79852068Y-112596842D01*
X79795000Y-112883740D01*
X79795000Y-113176260D01*
X79852068Y-113463158D01*
X79964010Y-113733411D01*
X80126525Y-113976632D01*
X80258380Y-114108487D01*
X80185820Y-114130498D01*
X80075506Y-114189463D01*
X79978815Y-114268815D01*
X79899463Y-114365506D01*
X79840498Y-114475820D01*
X79804188Y-114595518D01*
X79791928Y-114720000D01*
X77597000Y-114720000D01*
X77597000Y-108650000D01*
X86661928Y-108650000D01*
X86674188Y-108774482D01*
X86710498Y-108894180D01*
X86769463Y-109004494D01*
X86848815Y-109101185D01*
X86945506Y-109180537D01*
X87055820Y-109239502D01*
X87175518Y-109275812D01*
X87300000Y-109288072D01*
X87589250Y-109285000D01*
X87748000Y-109126250D01*
X87748000Y-108077000D01*
X86823750Y-108077000D01*
X86665000Y-108235750D01*
X86661928Y-108650000D01*
X77597000Y-108650000D01*
X77597000Y-107250000D01*
X86661928Y-107250000D01*
X86665000Y-107664250D01*
X86823750Y-107823000D01*
X87748000Y-107823000D01*
X87748000Y-106773750D01*
X87589250Y-106615000D01*
X87300000Y-106611928D01*
X87175518Y-106624188D01*
X87055820Y-106660498D01*
X86945506Y-106719463D01*
X86848815Y-106798815D01*
X86769463Y-106895506D01*
X86710498Y-107005820D01*
X86674188Y-107125518D01*
X86661928Y-107250000D01*
X77597000Y-107250000D01*
X77597000Y-85975098D01*
X86515000Y-85975098D01*
X86515000Y-86444902D01*
X86606654Y-86905679D01*
X86786440Y-87339721D01*
X87047450Y-87730349D01*
X87379651Y-88062550D01*
X87770279Y-88323560D01*
X88204321Y-88503346D01*
X88665098Y-88595000D01*
X89134902Y-88595000D01*
X89595679Y-88503346D01*
X90029721Y-88323560D01*
X90420349Y-88062550D01*
X90752550Y-87730349D01*
X91013560Y-87339721D01*
X91193346Y-86905679D01*
X91285000Y-86444902D01*
X91285000Y-85975098D01*
X91193346Y-85514321D01*
X91013560Y-85080279D01*
X90752550Y-84689651D01*
X90420349Y-84357450D01*
X90029721Y-84096440D01*
X89595679Y-83916654D01*
X89134902Y-83825000D01*
X88665098Y-83825000D01*
X88204321Y-83916654D01*
X87770279Y-84096440D01*
X87379651Y-84357450D01*
X87047450Y-84689651D01*
X86786440Y-85080279D01*
X86606654Y-85514321D01*
X86515000Y-85975098D01*
X77597000Y-85975098D01*
X77597000Y-83700000D01*
X103961928Y-83700000D01*
X103974188Y-83824482D01*
X104010498Y-83944180D01*
X104069463Y-84054494D01*
X104148815Y-84151185D01*
X104245506Y-84230537D01*
X104355820Y-84289502D01*
X104475518Y-84325812D01*
X104600000Y-84338072D01*
X105014250Y-84335000D01*
X105173000Y-84176250D01*
X105173000Y-83252000D01*
X105427000Y-83252000D01*
X105427000Y-84176250D01*
X105585750Y-84335000D01*
X106000000Y-84338072D01*
X106124482Y-84325812D01*
X106244180Y-84289502D01*
X106354494Y-84230537D01*
X106451185Y-84151185D01*
X106530537Y-84054494D01*
X106589502Y-83944180D01*
X106625812Y-83824482D01*
X106638072Y-83700000D01*
X106635000Y-83410750D01*
X106476250Y-83252000D01*
X105427000Y-83252000D01*
X105173000Y-83252000D01*
X104123750Y-83252000D01*
X103965000Y-83410750D01*
X103961928Y-83700000D01*
X77597000Y-83700000D01*
X77597000Y-79590000D01*
X78521928Y-79590000D01*
X78534188Y-79714482D01*
X78570498Y-79834180D01*
X78629463Y-79944494D01*
X78708815Y-80041185D01*
X78805506Y-80120537D01*
X78915820Y-80179502D01*
X79035518Y-80215812D01*
X79160000Y-80228072D01*
X79724250Y-80225000D01*
X79883000Y-80066250D01*
X79883000Y-78867000D01*
X80137000Y-78867000D01*
X80137000Y-80066250D01*
X80295750Y-80225000D01*
X80860000Y-80228072D01*
X80984482Y-80215812D01*
X81104180Y-80179502D01*
X81214494Y-80120537D01*
X81311185Y-80041185D01*
X81390537Y-79944494D01*
X81449502Y-79834180D01*
X81485812Y-79714482D01*
X81498072Y-79590000D01*
X81495241Y-79070000D01*
X83751928Y-79070000D01*
X83764188Y-79194482D01*
X83800498Y-79314180D01*
X83859463Y-79424494D01*
X83938815Y-79521185D01*
X84035506Y-79600537D01*
X84145820Y-79659502D01*
X84265518Y-79695812D01*
X84390000Y-79708072D01*
X84804250Y-79705000D01*
X84963000Y-79546250D01*
X84963000Y-78622000D01*
X85217000Y-78622000D01*
X85217000Y-79546250D01*
X85375750Y-79705000D01*
X85790000Y-79708072D01*
X85914482Y-79695812D01*
X86034180Y-79659502D01*
X86144494Y-79600537D01*
X86241185Y-79521185D01*
X86320537Y-79424494D01*
X86379502Y-79314180D01*
X86415812Y-79194482D01*
X86428072Y-79070000D01*
X86425000Y-78780750D01*
X86266250Y-78622000D01*
X85217000Y-78622000D01*
X84963000Y-78622000D01*
X83913750Y-78622000D01*
X83755000Y-78780750D01*
X83751928Y-79070000D01*
X81495241Y-79070000D01*
X81495000Y-79025750D01*
X81336250Y-78867000D01*
X80137000Y-78867000D01*
X79883000Y-78867000D01*
X78683750Y-78867000D01*
X78525000Y-79025750D01*
X78521928Y-79590000D01*
X77597000Y-79590000D01*
X77597000Y-77890000D01*
X78521928Y-77890000D01*
X78525000Y-78454250D01*
X78683750Y-78613000D01*
X79883000Y-78613000D01*
X79883000Y-78593000D01*
X80137000Y-78593000D01*
X80137000Y-78613000D01*
X81336250Y-78613000D01*
X81495000Y-78454250D01*
X81498072Y-77890000D01*
X81485812Y-77765518D01*
X81449502Y-77645820D01*
X81390537Y-77535506D01*
X81311185Y-77438815D01*
X81214494Y-77359463D01*
X81168728Y-77335000D01*
X83960366Y-77335000D01*
X84012038Y-77397962D01*
X84018594Y-77403342D01*
X83938815Y-77468815D01*
X83859463Y-77565506D01*
X83800498Y-77675820D01*
X83764188Y-77795518D01*
X83751928Y-77920000D01*
X83755000Y-78209250D01*
X83913750Y-78368000D01*
X84963000Y-78368000D01*
X84963000Y-78348000D01*
X85217000Y-78348000D01*
X85217000Y-78368000D01*
X86266250Y-78368000D01*
X86425000Y-78209250D01*
X86428072Y-77920000D01*
X86415812Y-77795518D01*
X86379502Y-77675820D01*
X86320537Y-77565506D01*
X86253725Y-77484095D01*
X86423622Y-77393283D01*
X86553143Y-77286988D01*
X87110732Y-76729400D01*
X89190885Y-76729400D01*
X89199785Y-76819760D01*
X89189028Y-76928980D01*
X89189028Y-77360780D01*
X89200169Y-77473904D01*
X89192100Y-77547470D01*
X89232376Y-77587746D01*
X89237598Y-77604960D01*
X89296563Y-77715274D01*
X89362091Y-77795120D01*
X89296563Y-77874966D01*
X89237598Y-77985280D01*
X89232376Y-78002494D01*
X89192100Y-78042770D01*
X89200169Y-78116336D01*
X89189028Y-78229460D01*
X89189028Y-78661260D01*
X89199785Y-78770480D01*
X89189028Y-78879700D01*
X89189028Y-79012214D01*
X89001939Y-78975000D01*
X88798061Y-78975000D01*
X88598102Y-79014774D01*
X88409744Y-79092795D01*
X88240226Y-79206063D01*
X88096063Y-79350226D01*
X87982795Y-79519744D01*
X87904774Y-79708102D01*
X87865000Y-79908061D01*
X87865000Y-80111939D01*
X87904774Y-80311898D01*
X87982795Y-80500256D01*
X88096063Y-80669774D01*
X88240226Y-80813937D01*
X88409744Y-80927205D01*
X88598102Y-81005226D01*
X88798061Y-81045000D01*
X89001939Y-81045000D01*
X89201898Y-81005226D01*
X89390256Y-80927205D01*
X89559774Y-80813937D01*
X89602284Y-80771427D01*
X89616772Y-80770000D01*
X89616783Y-80770000D01*
X89728436Y-80759003D01*
X89871697Y-80715546D01*
X90003726Y-80644974D01*
X90119451Y-80550001D01*
X90143253Y-80520998D01*
X90714680Y-79949572D01*
X91160600Y-79949572D01*
X91285082Y-79937312D01*
X91404780Y-79901002D01*
X91515094Y-79842037D01*
X91611785Y-79762685D01*
X91691137Y-79665994D01*
X91741288Y-79572170D01*
X91833700Y-79581272D01*
X92424250Y-79578200D01*
X92583000Y-79419450D01*
X92583000Y-77597000D01*
X92563000Y-77597000D01*
X92563000Y-77343000D01*
X92583000Y-77343000D01*
X92583000Y-75520550D01*
X92837000Y-75520550D01*
X92837000Y-77343000D01*
X92857000Y-77343000D01*
X92857000Y-77597000D01*
X92837000Y-77597000D01*
X92837000Y-79419450D01*
X92995750Y-79578200D01*
X93586300Y-79581272D01*
X93678712Y-79572170D01*
X93728863Y-79665994D01*
X93808215Y-79762685D01*
X93904906Y-79842037D01*
X94015220Y-79901002D01*
X94134918Y-79937312D01*
X94259400Y-79949572D01*
X95592900Y-79949572D01*
X95717382Y-79937312D01*
X95837080Y-79901002D01*
X95947394Y-79842037D01*
X96044085Y-79762685D01*
X96123437Y-79665994D01*
X96182402Y-79555680D01*
X96218712Y-79435982D01*
X96230972Y-79311500D01*
X96230972Y-79205360D01*
X100353853Y-79205360D01*
X100411595Y-79313387D01*
X100522038Y-79447962D01*
X100656613Y-79558405D01*
X100810149Y-79640472D01*
X100840000Y-79649527D01*
X100840000Y-79972677D01*
X100836324Y-80010000D01*
X100840000Y-80047322D01*
X100840000Y-80047332D01*
X100850997Y-80158985D01*
X100871954Y-80228072D01*
X100894454Y-80302246D01*
X100965026Y-80434276D01*
X101004871Y-80482826D01*
X101059999Y-80550001D01*
X101089002Y-80573803D01*
X102101205Y-81586008D01*
X102124999Y-81615001D01*
X102153992Y-81638795D01*
X102153996Y-81638799D01*
X102224685Y-81696811D01*
X102240724Y-81709974D01*
X102372753Y-81780546D01*
X102516014Y-81824003D01*
X102627667Y-81835000D01*
X102627676Y-81835000D01*
X102664999Y-81838676D01*
X102702322Y-81835000D01*
X104080386Y-81835000D01*
X104111595Y-81893387D01*
X104222038Y-82027962D01*
X104228594Y-82033342D01*
X104148815Y-82098815D01*
X104069463Y-82195506D01*
X104010498Y-82305820D01*
X103974188Y-82425518D01*
X103961928Y-82550000D01*
X103965000Y-82839250D01*
X104123750Y-82998000D01*
X105173000Y-82998000D01*
X105173000Y-82978000D01*
X105427000Y-82978000D01*
X105427000Y-82998000D01*
X106476250Y-82998000D01*
X106635000Y-82839250D01*
X106638072Y-82550000D01*
X106625812Y-82425518D01*
X106589502Y-82305820D01*
X106530537Y-82195506D01*
X106451185Y-82098815D01*
X106371406Y-82033342D01*
X106377962Y-82027962D01*
X106488405Y-81893387D01*
X106570472Y-81739851D01*
X106621008Y-81573255D01*
X106638072Y-81400001D01*
X106638072Y-80749999D01*
X106621008Y-80576745D01*
X106570472Y-80410149D01*
X106488405Y-80256613D01*
X106377962Y-80122038D01*
X106243387Y-80011595D01*
X106089851Y-79929528D01*
X105923255Y-79878992D01*
X105750001Y-79861928D01*
X104849999Y-79861928D01*
X104676745Y-79878992D01*
X104510149Y-79929528D01*
X104356613Y-80011595D01*
X104222038Y-80122038D01*
X104111595Y-80256613D01*
X104080386Y-80315000D01*
X102979803Y-80315000D01*
X102360000Y-79695199D01*
X102360000Y-79649527D01*
X102389851Y-79640472D01*
X102543387Y-79558405D01*
X102677962Y-79447962D01*
X102788405Y-79313387D01*
X102870472Y-79159851D01*
X102897727Y-79070000D01*
X104071928Y-79070000D01*
X104084188Y-79194482D01*
X104120498Y-79314180D01*
X104179463Y-79424494D01*
X104258815Y-79521185D01*
X104355506Y-79600537D01*
X104465820Y-79659502D01*
X104585518Y-79695812D01*
X104710000Y-79708072D01*
X105124250Y-79705000D01*
X105283000Y-79546250D01*
X105283000Y-78622000D01*
X105537000Y-78622000D01*
X105537000Y-79546250D01*
X105695750Y-79705000D01*
X106110000Y-79708072D01*
X106234482Y-79695812D01*
X106354180Y-79659502D01*
X106464494Y-79600537D01*
X106561185Y-79521185D01*
X106640537Y-79424494D01*
X106699502Y-79314180D01*
X106735812Y-79194482D01*
X106748072Y-79070000D01*
X106745000Y-78780750D01*
X106586250Y-78622000D01*
X105537000Y-78622000D01*
X105283000Y-78622000D01*
X104233750Y-78622000D01*
X104075000Y-78780750D01*
X104071928Y-79070000D01*
X102897727Y-79070000D01*
X102921008Y-78993255D01*
X102938072Y-78820001D01*
X102938072Y-78169999D01*
X102921008Y-77996745D01*
X102870472Y-77830149D01*
X102788405Y-77676613D01*
X102709117Y-77580000D01*
X104171716Y-77580000D01*
X104120498Y-77675820D01*
X104084188Y-77795518D01*
X104071928Y-77920000D01*
X104075000Y-78209250D01*
X104233750Y-78368000D01*
X105283000Y-78368000D01*
X105283000Y-78348000D01*
X105537000Y-78348000D01*
X105537000Y-78368000D01*
X106586250Y-78368000D01*
X106745000Y-78209250D01*
X106748072Y-77920000D01*
X106735812Y-77795518D01*
X106699502Y-77675820D01*
X106640537Y-77565506D01*
X106573725Y-77484095D01*
X106743622Y-77393283D01*
X106808547Y-77340000D01*
X108406087Y-77340000D01*
X108432079Y-77603901D01*
X108509056Y-77857661D01*
X108634060Y-78091527D01*
X108802287Y-78296513D01*
X109007273Y-78464740D01*
X109241139Y-78589744D01*
X109308644Y-78610221D01*
X109126299Y-78684874D01*
X108905295Y-78831233D01*
X108717091Y-79017895D01*
X108568919Y-79237687D01*
X108466473Y-79482163D01*
X108454971Y-79544911D01*
X108578161Y-79753000D01*
X110343000Y-79753000D01*
X110343000Y-79733000D01*
X110597000Y-79733000D01*
X110597000Y-79753000D01*
X112361839Y-79753000D01*
X112485029Y-79544911D01*
X112473527Y-79482163D01*
X112371081Y-79237687D01*
X112222909Y-79017895D01*
X112034705Y-78831233D01*
X111813701Y-78684874D01*
X111631356Y-78610221D01*
X111698861Y-78589744D01*
X111932727Y-78464740D01*
X112137713Y-78296513D01*
X112305940Y-78091527D01*
X112430944Y-77857661D01*
X112507921Y-77603901D01*
X112533913Y-77340000D01*
X112507921Y-77076099D01*
X112430944Y-76822339D01*
X112305940Y-76588473D01*
X112137713Y-76383487D01*
X111932727Y-76215260D01*
X111698861Y-76090256D01*
X111445101Y-76013279D01*
X111247328Y-75993800D01*
X109692672Y-75993800D01*
X109494899Y-76013279D01*
X109241139Y-76090256D01*
X109007273Y-76215260D01*
X108802287Y-76383487D01*
X108634060Y-76588473D01*
X108509056Y-76822339D01*
X108432079Y-77076099D01*
X108406087Y-77340000D01*
X106808547Y-77340000D01*
X106873143Y-77286988D01*
X108420132Y-75740000D01*
X131086069Y-75740000D01*
X131699234Y-76353166D01*
X131662287Y-76383487D01*
X131494060Y-76588473D01*
X131369056Y-76822339D01*
X131292079Y-77076099D01*
X131266087Y-77340000D01*
X131292079Y-77603901D01*
X131369056Y-77857661D01*
X131494060Y-78091527D01*
X131662287Y-78296513D01*
X131867273Y-78464740D01*
X132101139Y-78589744D01*
X132167914Y-78610000D01*
X132101139Y-78630256D01*
X131867273Y-78755260D01*
X131662287Y-78923487D01*
X131494060Y-79128473D01*
X131369056Y-79362339D01*
X131292079Y-79616099D01*
X131266087Y-79880000D01*
X131292079Y-80143901D01*
X131369056Y-80397661D01*
X131494060Y-80631527D01*
X131662287Y-80836513D01*
X131867273Y-81004740D01*
X132101139Y-81129744D01*
X132167914Y-81150000D01*
X132101139Y-81170256D01*
X131867273Y-81295260D01*
X131662287Y-81463487D01*
X131494060Y-81668473D01*
X131369056Y-81902339D01*
X131292079Y-82156099D01*
X131266087Y-82420000D01*
X131292079Y-82683901D01*
X131369056Y-82937661D01*
X131494060Y-83171527D01*
X131662287Y-83376513D01*
X131867273Y-83544740D01*
X132101139Y-83669744D01*
X132167914Y-83690000D01*
X132101139Y-83710256D01*
X131867273Y-83835260D01*
X131662287Y-84003487D01*
X131494060Y-84208473D01*
X131369056Y-84442339D01*
X131292079Y-84696099D01*
X131266087Y-84960000D01*
X131292079Y-85223901D01*
X131369056Y-85477661D01*
X131494060Y-85711527D01*
X131662287Y-85916513D01*
X131867273Y-86084740D01*
X132101139Y-86209744D01*
X132167914Y-86230000D01*
X132101139Y-86250256D01*
X131867273Y-86375260D01*
X131662287Y-86543487D01*
X131494060Y-86748473D01*
X131369056Y-86982339D01*
X131292079Y-87236099D01*
X131266087Y-87500000D01*
X131292079Y-87763901D01*
X131369056Y-88017661D01*
X131494060Y-88251527D01*
X131662287Y-88456513D01*
X131867273Y-88624740D01*
X132101139Y-88749744D01*
X132167914Y-88770000D01*
X132101139Y-88790256D01*
X131867273Y-88915260D01*
X131662287Y-89083487D01*
X131494060Y-89288473D01*
X131369056Y-89522339D01*
X131292079Y-89776099D01*
X131266087Y-90040000D01*
X131292079Y-90303901D01*
X131369056Y-90557661D01*
X131494060Y-90791527D01*
X131662287Y-90996513D01*
X131867273Y-91164740D01*
X132101139Y-91289744D01*
X132167914Y-91310000D01*
X132101139Y-91330256D01*
X131867273Y-91455260D01*
X131662287Y-91623487D01*
X131494060Y-91828473D01*
X131369056Y-92062339D01*
X131292079Y-92316099D01*
X131266087Y-92580000D01*
X131292079Y-92843901D01*
X131369056Y-93097661D01*
X131494060Y-93331527D01*
X131662287Y-93536513D01*
X131867273Y-93704740D01*
X132101139Y-93829744D01*
X132168644Y-93850221D01*
X131986299Y-93924874D01*
X131765295Y-94071233D01*
X131577091Y-94257895D01*
X131428919Y-94477687D01*
X131326473Y-94722163D01*
X131314971Y-94784911D01*
X131438161Y-94993000D01*
X133203000Y-94993000D01*
X133203000Y-94973000D01*
X133457000Y-94973000D01*
X133457000Y-94993000D01*
X135221839Y-94993000D01*
X135345029Y-94784911D01*
X135333527Y-94722163D01*
X135231081Y-94477687D01*
X135082909Y-94257895D01*
X134894705Y-94071233D01*
X134673701Y-93924874D01*
X134491356Y-93850221D01*
X134558861Y-93829744D01*
X134792727Y-93704740D01*
X134997713Y-93536513D01*
X135158986Y-93340000D01*
X138335185Y-93340000D01*
X138446525Y-93506632D01*
X138578380Y-93638487D01*
X138505820Y-93660498D01*
X138395506Y-93719463D01*
X138298815Y-93798815D01*
X138219463Y-93895506D01*
X138160498Y-94005820D01*
X138124188Y-94125518D01*
X138111928Y-94250000D01*
X138115000Y-94814250D01*
X138273750Y-94973000D01*
X139473000Y-94973000D01*
X139473000Y-94953000D01*
X139727000Y-94953000D01*
X139727000Y-94973000D01*
X140926250Y-94973000D01*
X141085000Y-94814250D01*
X141088072Y-94250000D01*
X141075812Y-94125518D01*
X141039502Y-94005820D01*
X140980537Y-93895506D01*
X140901185Y-93798815D01*
X140804494Y-93719463D01*
X140694180Y-93660498D01*
X140621620Y-93638487D01*
X140753475Y-93506632D01*
X140915990Y-93263411D01*
X141027932Y-92993158D01*
X141085000Y-92706260D01*
X141085000Y-92413740D01*
X141027932Y-92126842D01*
X140915990Y-91856589D01*
X140753475Y-91613368D01*
X140546632Y-91406525D01*
X140372240Y-91290000D01*
X140546632Y-91173475D01*
X140753475Y-90966632D01*
X140915990Y-90723411D01*
X141027932Y-90453158D01*
X141085000Y-90166260D01*
X141085000Y-89873740D01*
X141027932Y-89586842D01*
X140915990Y-89316589D01*
X140753475Y-89073368D01*
X140546632Y-88866525D01*
X140303411Y-88704010D01*
X140033158Y-88592068D01*
X139746260Y-88535000D01*
X139453740Y-88535000D01*
X139166842Y-88592068D01*
X138896589Y-88704010D01*
X138653368Y-88866525D01*
X138446525Y-89073368D01*
X138308458Y-89280000D01*
X135158986Y-89280000D01*
X134997713Y-89083487D01*
X134792727Y-88915260D01*
X134558861Y-88790256D01*
X134492086Y-88770000D01*
X134558861Y-88749744D01*
X134773532Y-88635000D01*
X138504249Y-88635000D01*
X138560000Y-88640491D01*
X138615751Y-88635000D01*
X138615752Y-88635000D01*
X138782499Y-88618577D01*
X138996447Y-88553676D01*
X139193623Y-88448284D01*
X139366449Y-88306449D01*
X139401996Y-88263136D01*
X140463140Y-87201992D01*
X140506449Y-87166449D01*
X140648284Y-86993623D01*
X140753676Y-86796447D01*
X140818577Y-86582499D01*
X140835000Y-86415752D01*
X140835000Y-86415743D01*
X140840490Y-86360001D01*
X140835000Y-86304259D01*
X140835000Y-78795751D01*
X140840491Y-78740000D01*
X140826146Y-78594346D01*
X140818577Y-78517501D01*
X140753676Y-78303553D01*
X140648284Y-78106377D01*
X140506449Y-77933551D01*
X140463140Y-77898008D01*
X139141996Y-76576865D01*
X139106449Y-76533551D01*
X138933623Y-76391716D01*
X138736447Y-76286324D01*
X138522499Y-76221423D01*
X138355752Y-76205000D01*
X138355751Y-76205000D01*
X138300000Y-76199509D01*
X138244249Y-76205000D01*
X134773532Y-76205000D01*
X134558861Y-76090256D01*
X134415335Y-76046718D01*
X134383676Y-75942353D01*
X134370927Y-75918501D01*
X134278284Y-75745177D01*
X134136449Y-75572351D01*
X134093140Y-75536809D01*
X132398196Y-73841865D01*
X132362649Y-73798551D01*
X132189823Y-73656716D01*
X131992647Y-73551324D01*
X131778699Y-73486423D01*
X131611952Y-73470000D01*
X131611951Y-73470000D01*
X131556200Y-73464509D01*
X131500449Y-73470000D01*
X108005751Y-73470000D01*
X107950000Y-73464509D01*
X107894248Y-73470000D01*
X107727501Y-73486423D01*
X107513553Y-73551324D01*
X107316377Y-73656716D01*
X107143551Y-73798551D01*
X107108009Y-73841860D01*
X105717941Y-75231928D01*
X104959999Y-75231928D01*
X104786745Y-75248992D01*
X104620149Y-75299528D01*
X104600557Y-75310000D01*
X102409443Y-75310000D01*
X102389851Y-75299528D01*
X102223255Y-75248992D01*
X102050001Y-75231928D01*
X101149999Y-75231928D01*
X100976745Y-75248992D01*
X100810149Y-75299528D01*
X100656613Y-75381595D01*
X100522038Y-75492038D01*
X100466263Y-75560000D01*
X97977618Y-75560000D01*
X97965306Y-75553419D01*
X97798483Y-75502812D01*
X97624993Y-75485726D01*
X97451502Y-75502812D01*
X97284679Y-75553419D01*
X97280000Y-75555920D01*
X97280000Y-74363711D01*
X97323937Y-74319774D01*
X97437205Y-74150256D01*
X97515226Y-73961898D01*
X97555000Y-73761939D01*
X97555000Y-73558061D01*
X97515226Y-73358102D01*
X97437205Y-73169744D01*
X97323937Y-73000226D01*
X97179774Y-72856063D01*
X97010256Y-72742795D01*
X96821898Y-72664774D01*
X96621939Y-72625000D01*
X96418061Y-72625000D01*
X96218102Y-72664774D01*
X96029744Y-72742795D01*
X95860226Y-72856063D01*
X95716063Y-73000226D01*
X95602795Y-73169744D01*
X95524774Y-73358102D01*
X95485000Y-73558061D01*
X95485000Y-73761939D01*
X95524774Y-73961898D01*
X95602795Y-74150256D01*
X95716063Y-74319774D01*
X95760001Y-74363712D01*
X95760000Y-75015833D01*
X95707273Y-75000762D01*
X95582610Y-74990511D01*
X95211900Y-74993500D01*
X95053150Y-75152250D01*
X95053150Y-75640668D01*
X94799150Y-75640668D01*
X94799150Y-75152250D01*
X94640400Y-74993500D01*
X94269690Y-74990511D01*
X94145027Y-75000762D01*
X94024759Y-75035137D01*
X93913508Y-75092315D01*
X93815550Y-75170097D01*
X93734648Y-75265496D01*
X93677856Y-75367745D01*
X93586300Y-75358728D01*
X92995750Y-75361800D01*
X92837000Y-75520550D01*
X92583000Y-75520550D01*
X92424250Y-75361800D01*
X91833700Y-75358728D01*
X91741288Y-75367830D01*
X91691137Y-75274006D01*
X91611785Y-75177315D01*
X91515094Y-75097963D01*
X91404780Y-75038998D01*
X91285082Y-75002688D01*
X91160600Y-74990428D01*
X91148176Y-74990428D01*
X91128824Y-74954224D01*
X91033851Y-74838499D01*
X91004847Y-74814696D01*
X90609154Y-74419003D01*
X90585351Y-74389999D01*
X90469626Y-74295026D01*
X90337597Y-74224454D01*
X90194336Y-74180997D01*
X90082683Y-74170000D01*
X90082672Y-74170000D01*
X90045350Y-74166324D01*
X90008028Y-74170000D01*
X89603711Y-74170000D01*
X89559774Y-74126063D01*
X89390256Y-74012795D01*
X89201898Y-73934774D01*
X89001939Y-73895000D01*
X88798061Y-73895000D01*
X88598102Y-73934774D01*
X88409744Y-74012795D01*
X88240226Y-74126063D01*
X88096063Y-74270226D01*
X87982795Y-74439744D01*
X87904774Y-74628102D01*
X87865000Y-74828061D01*
X87865000Y-74959400D01*
X87101335Y-74959400D01*
X87024223Y-74896116D01*
X86827047Y-74790724D01*
X86613099Y-74725823D01*
X86390600Y-74703909D01*
X86168101Y-74725823D01*
X85954153Y-74790724D01*
X85756978Y-74896116D01*
X85627457Y-75002411D01*
X85413149Y-75216720D01*
X85281447Y-75146324D01*
X85067499Y-75081423D01*
X84900752Y-75065000D01*
X80975107Y-75065000D01*
X80956632Y-75046525D01*
X80713411Y-74884010D01*
X80443158Y-74772068D01*
X80156260Y-74715000D01*
X79863740Y-74715000D01*
X79576842Y-74772068D01*
X79306589Y-74884010D01*
X79063368Y-75046525D01*
X78856525Y-75253368D01*
X78694010Y-75496589D01*
X78582068Y-75766842D01*
X78525000Y-76053740D01*
X78525000Y-76346260D01*
X78582068Y-76633158D01*
X78694010Y-76903411D01*
X78856525Y-77146632D01*
X78988380Y-77278487D01*
X78915820Y-77300498D01*
X78805506Y-77359463D01*
X78708815Y-77438815D01*
X78629463Y-77535506D01*
X78570498Y-77645820D01*
X78534188Y-77765518D01*
X78521928Y-77890000D01*
X77597000Y-77890000D01*
X77597000Y-64897000D01*
X144653000Y-64897000D01*
X144653000Y-120523000D01*
M02*
