G04 #@! TF.GenerationSoftware,KiCad,Pcbnew,5.1.5+dfsg1-2build2*
G04 #@! TF.CreationDate,2021-09-27T21:09:23+08:00*
G04 #@! TF.ProjectId,esp32-cam,65737033-322d-4636-916d-2e6b69636164,rev?*
G04 #@! TF.SameCoordinates,Original*
G04 #@! TF.FileFunction,Legend,Top*
G04 #@! TF.FilePolarity,Positive*
%FSLAX46Y46*%
G04 Gerber Fmt 4.6, Leading zero omitted, Abs format (unit mm)*
G04 Created by KiCad (PCBNEW 5.1.5+dfsg1-2build2) date 2021-09-27 21:09:23*
%MOMM*%
%LPD*%
G04 APERTURE LIST*
%ADD10C,0.120000*%
%ADD11C,0.127000*%
%ADD12C,0.100000*%
%ADD13C,0.150000*%
G04 APERTURE END LIST*
D10*
X144780000Y-64770000D02*
X144780000Y-120650000D01*
X80010000Y-64770000D02*
X144780000Y-64770000D01*
X144780000Y-120650000D02*
X77470000Y-120650000D01*
X77470000Y-120650000D02*
X77470000Y-64770000D01*
X77470000Y-64770000D02*
X81280000Y-64770000D01*
D11*
X108740000Y-112070000D02*
X108740000Y-72070000D01*
X108740000Y-72070000D02*
X135060000Y-72070000D01*
X135060000Y-72070000D02*
X135060000Y-112070000D01*
X135060000Y-112070000D02*
X108740000Y-112070000D01*
D10*
X89161252Y-107240000D02*
X88638748Y-107240000D01*
X89161252Y-108660000D02*
X88638748Y-108660000D01*
X91033600Y-79667100D02*
X94386400Y-79667100D01*
X94386400Y-75272900D02*
X91033600Y-75272900D01*
D12*
G36*
X96100900Y-76954380D02*
G01*
X96100900Y-77335380D01*
X95846900Y-77335380D01*
X95846900Y-76954380D01*
X96100900Y-76954380D01*
G37*
X96100900Y-76954380D02*
X96100900Y-77335380D01*
X95846900Y-77335380D01*
X95846900Y-76954380D01*
X96100900Y-76954380D01*
D10*
X140930000Y-96430000D02*
X139600000Y-96430000D01*
X140930000Y-95100000D02*
X140930000Y-96430000D01*
X140930000Y-93830000D02*
X138270000Y-93830000D01*
X138270000Y-93830000D02*
X138270000Y-88690000D01*
X140930000Y-93830000D02*
X140930000Y-88690000D01*
X140930000Y-88690000D02*
X138270000Y-88690000D01*
X97528748Y-106120000D02*
X98051252Y-106120000D01*
X97528748Y-104700000D02*
X98051252Y-104700000D01*
X99466400Y-108813600D02*
X96113600Y-108813600D01*
X96113600Y-108813600D02*
X96113600Y-108978700D01*
X96113600Y-112166400D02*
X99466400Y-112166400D01*
X99466400Y-112166400D02*
X99466400Y-112001300D01*
X99466400Y-108978700D02*
X99466400Y-108813600D01*
X96113600Y-112001300D02*
X96113600Y-112166400D01*
X104700000Y-77208748D02*
X104700000Y-77731252D01*
X106120000Y-77208748D02*
X106120000Y-77731252D01*
X100890000Y-77208748D02*
X100890000Y-77731252D01*
X102310000Y-77208748D02*
X102310000Y-77731252D01*
X85770000Y-117800000D02*
X88630000Y-117800000D01*
X85770000Y-115880000D02*
X85770000Y-117800000D01*
X88630000Y-115880000D02*
X85770000Y-115880000D01*
X81340000Y-80070000D02*
X80010000Y-80070000D01*
X81340000Y-78740000D02*
X81340000Y-80070000D01*
X81340000Y-77470000D02*
X78680000Y-77470000D01*
X78680000Y-77470000D02*
X78680000Y-74870000D01*
X81340000Y-77470000D02*
X81340000Y-74870000D01*
X81340000Y-74870000D02*
X78680000Y-74870000D01*
X104590000Y-81838748D02*
X104590000Y-82361252D01*
X106010000Y-81838748D02*
X106010000Y-82361252D01*
X92150000Y-113291252D02*
X92150000Y-112768748D01*
X90730000Y-113291252D02*
X90730000Y-112768748D01*
X92710000Y-99180000D02*
X92710000Y-101720000D01*
X90170000Y-99180000D02*
X90170000Y-101720000D01*
X87630000Y-99180000D02*
X87630000Y-101720000D01*
X85090000Y-99180000D02*
X85090000Y-101720000D01*
X94020000Y-83290000D02*
X94020000Y-99180000D01*
X83780000Y-83290000D02*
X83780000Y-99180000D01*
X83780000Y-83290000D02*
X94020000Y-83290000D01*
X83780000Y-99180000D02*
X94020000Y-99180000D01*
X84380000Y-77208748D02*
X84380000Y-77731252D01*
X85800000Y-77208748D02*
X85800000Y-77731252D01*
X85650000Y-112768748D02*
X85650000Y-113291252D01*
X87070000Y-112768748D02*
X87070000Y-113291252D01*
X82610000Y-111700000D02*
X79950000Y-111700000D01*
X82610000Y-114300000D02*
X82610000Y-111700000D01*
X79950000Y-114300000D02*
X79950000Y-111700000D01*
X82610000Y-114300000D02*
X79950000Y-114300000D01*
X82610000Y-115570000D02*
X82610000Y-116900000D01*
X82610000Y-116900000D02*
X81280000Y-116900000D01*
X88190000Y-112768748D02*
X88190000Y-113291252D01*
X89610000Y-112768748D02*
X89610000Y-113291252D01*
D13*
X111613095Y-69807380D02*
X111613095Y-70616904D01*
X111660714Y-70712142D01*
X111708333Y-70759761D01*
X111803571Y-70807380D01*
X111994047Y-70807380D01*
X112089285Y-70759761D01*
X112136904Y-70712142D01*
X112184523Y-70616904D01*
X112184523Y-69807380D01*
X112565476Y-69807380D02*
X113184523Y-69807380D01*
X112851190Y-70188333D01*
X112994047Y-70188333D01*
X113089285Y-70235952D01*
X113136904Y-70283571D01*
X113184523Y-70378809D01*
X113184523Y-70616904D01*
X113136904Y-70712142D01*
X113089285Y-70759761D01*
X112994047Y-70807380D01*
X112708333Y-70807380D01*
X112613095Y-70759761D01*
X112565476Y-70712142D01*
X114569523Y-114677142D02*
X115142857Y-114677142D01*
X115388571Y-115578095D02*
X114569523Y-115578095D01*
X114569523Y-113858095D01*
X115388571Y-113858095D01*
X116043809Y-115496190D02*
X116289523Y-115578095D01*
X116699047Y-115578095D01*
X116862857Y-115496190D01*
X116944761Y-115414285D01*
X117026666Y-115250476D01*
X117026666Y-115086666D01*
X116944761Y-114922857D01*
X116862857Y-114840952D01*
X116699047Y-114759047D01*
X116371428Y-114677142D01*
X116207619Y-114595238D01*
X116125714Y-114513333D01*
X116043809Y-114349523D01*
X116043809Y-114185714D01*
X116125714Y-114021904D01*
X116207619Y-113940000D01*
X116371428Y-113858095D01*
X116780952Y-113858095D01*
X117026666Y-113940000D01*
X117763809Y-115578095D02*
X117763809Y-113858095D01*
X118419047Y-113858095D01*
X118582857Y-113940000D01*
X118664761Y-114021904D01*
X118746666Y-114185714D01*
X118746666Y-114431428D01*
X118664761Y-114595238D01*
X118582857Y-114677142D01*
X118419047Y-114759047D01*
X117763809Y-114759047D01*
X119320000Y-113858095D02*
X120384761Y-113858095D01*
X119811428Y-114513333D01*
X120057142Y-114513333D01*
X120220952Y-114595238D01*
X120302857Y-114677142D01*
X120384761Y-114840952D01*
X120384761Y-115250476D01*
X120302857Y-115414285D01*
X120220952Y-115496190D01*
X120057142Y-115578095D01*
X119565714Y-115578095D01*
X119401904Y-115496190D01*
X119320000Y-115414285D01*
X121040000Y-114021904D02*
X121121904Y-113940000D01*
X121285714Y-113858095D01*
X121695238Y-113858095D01*
X121859047Y-113940000D01*
X121940952Y-114021904D01*
X122022857Y-114185714D01*
X122022857Y-114349523D01*
X121940952Y-114595238D01*
X120958095Y-115578095D01*
X122022857Y-115578095D01*
X122760000Y-114922857D02*
X124070476Y-114922857D01*
X125872380Y-115414285D02*
X125790476Y-115496190D01*
X125544761Y-115578095D01*
X125380952Y-115578095D01*
X125135238Y-115496190D01*
X124971428Y-115332380D01*
X124889523Y-115168571D01*
X124807619Y-114840952D01*
X124807619Y-114595238D01*
X124889523Y-114267619D01*
X124971428Y-114103809D01*
X125135238Y-113940000D01*
X125380952Y-113858095D01*
X125544761Y-113858095D01*
X125790476Y-113940000D01*
X125872380Y-114021904D01*
X126527619Y-115086666D02*
X127346666Y-115086666D01*
X126363809Y-115578095D02*
X126937142Y-113858095D01*
X127510476Y-115578095D01*
X128083809Y-115578095D02*
X128083809Y-113858095D01*
X128657142Y-115086666D01*
X129230476Y-113858095D01*
X129230476Y-115578095D01*
X85833333Y-108357142D02*
X85785714Y-108404761D01*
X85642857Y-108452380D01*
X85547619Y-108452380D01*
X85404761Y-108404761D01*
X85309523Y-108309523D01*
X85261904Y-108214285D01*
X85214285Y-108023809D01*
X85214285Y-107880952D01*
X85261904Y-107690476D01*
X85309523Y-107595238D01*
X85404761Y-107500000D01*
X85547619Y-107452380D01*
X85642857Y-107452380D01*
X85785714Y-107500000D01*
X85833333Y-107547619D01*
X86166666Y-107452380D02*
X86785714Y-107452380D01*
X86452380Y-107833333D01*
X86595238Y-107833333D01*
X86690476Y-107880952D01*
X86738095Y-107928571D01*
X86785714Y-108023809D01*
X86785714Y-108261904D01*
X86738095Y-108357142D01*
X86690476Y-108404761D01*
X86595238Y-108452380D01*
X86309523Y-108452380D01*
X86214285Y-108404761D01*
X86166666Y-108357142D01*
X91948095Y-73112380D02*
X91948095Y-73921904D01*
X91995714Y-74017142D01*
X92043333Y-74064761D01*
X92138571Y-74112380D01*
X92329047Y-74112380D01*
X92424285Y-74064761D01*
X92471904Y-74017142D01*
X92519523Y-73921904D01*
X92519523Y-73112380D01*
X93519523Y-74112380D02*
X92948095Y-74112380D01*
X93233809Y-74112380D02*
X93233809Y-73112380D01*
X93138571Y-73255238D01*
X93043333Y-73350476D01*
X92948095Y-73398095D01*
X85567142Y-81732380D02*
X85090952Y-81732380D01*
X85090952Y-80732380D01*
X85757619Y-80732380D02*
X86329047Y-80732380D01*
X86043333Y-81732380D02*
X86043333Y-80732380D01*
X87233809Y-81637142D02*
X87186190Y-81684761D01*
X87043333Y-81732380D01*
X86948095Y-81732380D01*
X86805238Y-81684761D01*
X86710000Y-81589523D01*
X86662380Y-81494285D01*
X86614761Y-81303809D01*
X86614761Y-81160952D01*
X86662380Y-80970476D01*
X86710000Y-80875238D01*
X86805238Y-80780000D01*
X86948095Y-80732380D01*
X87043333Y-80732380D01*
X87186190Y-80780000D01*
X87233809Y-80827619D01*
X87567142Y-80732380D02*
X88186190Y-80732380D01*
X87852857Y-81113333D01*
X87995714Y-81113333D01*
X88090952Y-81160952D01*
X88138571Y-81208571D01*
X88186190Y-81303809D01*
X88186190Y-81541904D01*
X88138571Y-81637142D01*
X88090952Y-81684761D01*
X87995714Y-81732380D01*
X87710000Y-81732380D01*
X87614761Y-81684761D01*
X87567142Y-81637142D01*
X88567142Y-80827619D02*
X88614761Y-80780000D01*
X88710000Y-80732380D01*
X88948095Y-80732380D01*
X89043333Y-80780000D01*
X89090952Y-80827619D01*
X89138571Y-80922857D01*
X89138571Y-81018095D01*
X89090952Y-81160952D01*
X88519523Y-81732380D01*
X89138571Y-81732380D01*
X89995714Y-81065714D02*
X89995714Y-81732380D01*
X89757619Y-80684761D02*
X89519523Y-81399047D01*
X90138571Y-81399047D01*
X90995714Y-80732380D02*
X90519523Y-80732380D01*
X90471904Y-81208571D01*
X90519523Y-81160952D01*
X90614761Y-81113333D01*
X90852857Y-81113333D01*
X90948095Y-81160952D01*
X90995714Y-81208571D01*
X91043333Y-81303809D01*
X91043333Y-81541904D01*
X90995714Y-81637142D01*
X90948095Y-81684761D01*
X90852857Y-81732380D01*
X90614761Y-81732380D01*
X90519523Y-81684761D01*
X90471904Y-81637142D01*
X91471904Y-81732380D02*
X91471904Y-80732380D01*
X91948095Y-81732380D02*
X91948095Y-80732380D01*
X92281428Y-81446666D01*
X92614761Y-80732380D01*
X92614761Y-81732380D01*
X93043333Y-81684761D02*
X93186190Y-81732380D01*
X93424285Y-81732380D01*
X93519523Y-81684761D01*
X93567142Y-81637142D01*
X93614761Y-81541904D01*
X93614761Y-81446666D01*
X93567142Y-81351428D01*
X93519523Y-81303809D01*
X93424285Y-81256190D01*
X93233809Y-81208571D01*
X93138571Y-81160952D01*
X93090952Y-81113333D01*
X93043333Y-81018095D01*
X93043333Y-80922857D01*
X93090952Y-80827619D01*
X93138571Y-80780000D01*
X93233809Y-80732380D01*
X93471904Y-80732380D01*
X93614761Y-80780000D01*
X94043333Y-81208571D02*
X94376666Y-81208571D01*
X94519523Y-81732380D02*
X94043333Y-81732380D01*
X94043333Y-80732380D01*
X94519523Y-80732380D01*
X94948095Y-81351428D02*
X95710000Y-81351428D01*
X96043333Y-80732380D02*
X96614761Y-80732380D01*
X96329047Y-81732380D02*
X96329047Y-80732380D01*
X97519523Y-81732380D02*
X97186190Y-81256190D01*
X96948095Y-81732380D02*
X96948095Y-80732380D01*
X97329047Y-80732380D01*
X97424285Y-80780000D01*
X97471904Y-80827619D01*
X97519523Y-80922857D01*
X97519523Y-81065714D01*
X97471904Y-81160952D01*
X97424285Y-81208571D01*
X97329047Y-81256190D01*
X96948095Y-81256190D01*
X97948095Y-81732380D02*
X97948095Y-80732380D01*
X98329047Y-80732380D01*
X98424285Y-80780000D01*
X98471904Y-80827619D01*
X98519523Y-80922857D01*
X98519523Y-81065714D01*
X98471904Y-81160952D01*
X98424285Y-81208571D01*
X98329047Y-81256190D01*
X97948095Y-81256190D01*
X99281428Y-81208571D02*
X99424285Y-81256190D01*
X99471904Y-81303809D01*
X99519523Y-81399047D01*
X99519523Y-81541904D01*
X99471904Y-81637142D01*
X99424285Y-81684761D01*
X99329047Y-81732380D01*
X98948095Y-81732380D01*
X98948095Y-80732380D01*
X99281428Y-80732380D01*
X99376666Y-80780000D01*
X99424285Y-80827619D01*
X99471904Y-80922857D01*
X99471904Y-81018095D01*
X99424285Y-81113333D01*
X99376666Y-81160952D01*
X99281428Y-81208571D01*
X98948095Y-81208571D01*
X100281428Y-81208571D02*
X99948095Y-81208571D01*
X99948095Y-81732380D02*
X99948095Y-80732380D01*
X100424285Y-80732380D01*
X90239850Y-73721980D02*
X90239850Y-73960076D01*
X90001754Y-73864838D02*
X90239850Y-73960076D01*
X90477945Y-73864838D01*
X90096992Y-74150552D02*
X90239850Y-73960076D01*
X90382707Y-74150552D01*
X90239850Y-73721980D02*
X90239850Y-73960076D01*
X90001754Y-73864838D02*
X90239850Y-73960076D01*
X90477945Y-73864838D01*
X90096992Y-74150552D02*
X90239850Y-73960076D01*
X90382707Y-74150552D01*
X139266666Y-96882380D02*
X139266666Y-97596666D01*
X139219047Y-97739523D01*
X139123809Y-97834761D01*
X138980952Y-97882380D01*
X138885714Y-97882380D01*
X139647619Y-96882380D02*
X140266666Y-96882380D01*
X139933333Y-97263333D01*
X140076190Y-97263333D01*
X140171428Y-97310952D01*
X140219047Y-97358571D01*
X140266666Y-97453809D01*
X140266666Y-97691904D01*
X140219047Y-97787142D01*
X140171428Y-97834761D01*
X140076190Y-97882380D01*
X139790476Y-97882380D01*
X139695238Y-97834761D01*
X139647619Y-97787142D01*
X97623333Y-104212380D02*
X97290000Y-103736190D01*
X97051904Y-104212380D02*
X97051904Y-103212380D01*
X97432857Y-103212380D01*
X97528095Y-103260000D01*
X97575714Y-103307619D01*
X97623333Y-103402857D01*
X97623333Y-103545714D01*
X97575714Y-103640952D01*
X97528095Y-103688571D01*
X97432857Y-103736190D01*
X97051904Y-103736190D01*
X97956666Y-103212380D02*
X98575714Y-103212380D01*
X98242380Y-103593333D01*
X98385238Y-103593333D01*
X98480476Y-103640952D01*
X98528095Y-103688571D01*
X98575714Y-103783809D01*
X98575714Y-104021904D01*
X98528095Y-104117142D01*
X98480476Y-104164761D01*
X98385238Y-104212380D01*
X98099523Y-104212380D01*
X98004285Y-104164761D01*
X97956666Y-104117142D01*
X97028095Y-112990380D02*
X97028095Y-113799904D01*
X97075714Y-113895142D01*
X97123333Y-113942761D01*
X97218571Y-113990380D01*
X97409047Y-113990380D01*
X97504285Y-113942761D01*
X97551904Y-113895142D01*
X97599523Y-113799904D01*
X97599523Y-112990380D01*
X98028095Y-113085619D02*
X98075714Y-113038000D01*
X98170952Y-112990380D01*
X98409047Y-112990380D01*
X98504285Y-113038000D01*
X98551904Y-113085619D01*
X98599523Y-113180857D01*
X98599523Y-113276095D01*
X98551904Y-113418952D01*
X97980476Y-113990380D01*
X98599523Y-113990380D01*
X93047619Y-107852380D02*
X93047619Y-106852380D01*
X93380952Y-107566666D01*
X93714285Y-106852380D01*
X93714285Y-107852380D01*
X94142857Y-107566666D02*
X94619047Y-107566666D01*
X94047619Y-107852380D02*
X94380952Y-106852380D01*
X94714285Y-107852380D01*
X94952380Y-106852380D02*
X95619047Y-107852380D01*
X95619047Y-106852380D02*
X94952380Y-107852380D01*
X96523809Y-107852380D02*
X95952380Y-107852380D01*
X96238095Y-107852380D02*
X96238095Y-106852380D01*
X96142857Y-106995238D01*
X96047619Y-107090476D01*
X95952380Y-107138095D01*
X97380952Y-106852380D02*
X97190476Y-106852380D01*
X97095238Y-106900000D01*
X97047619Y-106947619D01*
X96952380Y-107090476D01*
X96904761Y-107280952D01*
X96904761Y-107661904D01*
X96952380Y-107757142D01*
X97000000Y-107804761D01*
X97095238Y-107852380D01*
X97285714Y-107852380D01*
X97380952Y-107804761D01*
X97428571Y-107757142D01*
X97476190Y-107661904D01*
X97476190Y-107423809D01*
X97428571Y-107328571D01*
X97380952Y-107280952D01*
X97285714Y-107233333D01*
X97095238Y-107233333D01*
X97000000Y-107280952D01*
X96952380Y-107328571D01*
X96904761Y-107423809D01*
X98047619Y-107280952D02*
X97952380Y-107233333D01*
X97904761Y-107185714D01*
X97857142Y-107090476D01*
X97857142Y-107042857D01*
X97904761Y-106947619D01*
X97952380Y-106900000D01*
X98047619Y-106852380D01*
X98238095Y-106852380D01*
X98333333Y-106900000D01*
X98380952Y-106947619D01*
X98428571Y-107042857D01*
X98428571Y-107090476D01*
X98380952Y-107185714D01*
X98333333Y-107233333D01*
X98238095Y-107280952D01*
X98047619Y-107280952D01*
X97952380Y-107328571D01*
X97904761Y-107376190D01*
X97857142Y-107471428D01*
X97857142Y-107661904D01*
X97904761Y-107757142D01*
X97952380Y-107804761D01*
X98047619Y-107852380D01*
X98238095Y-107852380D01*
X98333333Y-107804761D01*
X98380952Y-107757142D01*
X98428571Y-107661904D01*
X98428571Y-107471428D01*
X98380952Y-107376190D01*
X98333333Y-107328571D01*
X98238095Y-107280952D01*
X99047619Y-106852380D02*
X99142857Y-106852380D01*
X99238095Y-106900000D01*
X99285714Y-106947619D01*
X99333333Y-107042857D01*
X99380952Y-107233333D01*
X99380952Y-107471428D01*
X99333333Y-107661904D01*
X99285714Y-107757142D01*
X99238095Y-107804761D01*
X99142857Y-107852380D01*
X99047619Y-107852380D01*
X98952380Y-107804761D01*
X98904761Y-107757142D01*
X98857142Y-107661904D01*
X98809523Y-107471428D01*
X98809523Y-107233333D01*
X98857142Y-107042857D01*
X98904761Y-106947619D01*
X98952380Y-106900000D01*
X99047619Y-106852380D01*
X99761904Y-106947619D02*
X99809523Y-106900000D01*
X99904761Y-106852380D01*
X100142857Y-106852380D01*
X100238095Y-106900000D01*
X100285714Y-106947619D01*
X100333333Y-107042857D01*
X100333333Y-107138095D01*
X100285714Y-107280952D01*
X99714285Y-107852380D01*
X100333333Y-107852380D01*
X100714285Y-107566666D02*
X101190476Y-107566666D01*
X100619047Y-107852380D02*
X100952380Y-106852380D01*
X101285714Y-107852380D01*
X101619047Y-107328571D02*
X101952380Y-107328571D01*
X102095238Y-107852380D02*
X101619047Y-107852380D01*
X101619047Y-106852380D01*
X102095238Y-106852380D01*
X102523809Y-106852380D02*
X102523809Y-107661904D01*
X102571428Y-107757142D01*
X102619047Y-107804761D01*
X102714285Y-107852380D01*
X102904761Y-107852380D01*
X103000000Y-107804761D01*
X103047619Y-107757142D01*
X103095238Y-107661904D01*
X103095238Y-106852380D01*
X103523809Y-107566666D02*
X104000000Y-107566666D01*
X103428571Y-107852380D02*
X103761904Y-106852380D01*
X104095238Y-107852380D01*
X104428571Y-107471428D02*
X105190476Y-107471428D01*
X104809523Y-107852380D02*
X104809523Y-107090476D01*
X105523809Y-106852380D02*
X106095238Y-106852380D01*
X105809523Y-107852380D02*
X105809523Y-106852380D01*
X100253800Y-112467140D02*
X100253800Y-112705236D01*
X100015704Y-112609998D02*
X100253800Y-112705236D01*
X100491895Y-112609998D01*
X100110942Y-112895712D02*
X100253800Y-112705236D01*
X100396657Y-112895712D01*
X100253800Y-112467140D02*
X100253800Y-112705236D01*
X100015704Y-112609998D02*
X100253800Y-112705236D01*
X100491895Y-112609998D01*
X100110942Y-112895712D02*
X100253800Y-112705236D01*
X100396657Y-112895712D01*
X107417142Y-77636666D02*
X107464761Y-77684285D01*
X107512380Y-77827142D01*
X107512380Y-77922380D01*
X107464761Y-78065238D01*
X107369523Y-78160476D01*
X107274285Y-78208095D01*
X107083809Y-78255714D01*
X106940952Y-78255714D01*
X106750476Y-78208095D01*
X106655238Y-78160476D01*
X106560000Y-78065238D01*
X106512380Y-77922380D01*
X106512380Y-77827142D01*
X106560000Y-77684285D01*
X106607619Y-77636666D01*
X106512380Y-77303333D02*
X106512380Y-76636666D01*
X107512380Y-77065238D01*
X103702380Y-77636666D02*
X103226190Y-77970000D01*
X103702380Y-78208095D02*
X102702380Y-78208095D01*
X102702380Y-77827142D01*
X102750000Y-77731904D01*
X102797619Y-77684285D01*
X102892857Y-77636666D01*
X103035714Y-77636666D01*
X103130952Y-77684285D01*
X103178571Y-77731904D01*
X103226190Y-77827142D01*
X103226190Y-78208095D01*
X102797619Y-77255714D02*
X102750000Y-77208095D01*
X102702380Y-77112857D01*
X102702380Y-76874761D01*
X102750000Y-76779523D01*
X102797619Y-76731904D01*
X102892857Y-76684285D01*
X102988095Y-76684285D01*
X103130952Y-76731904D01*
X103702380Y-77303333D01*
X103702380Y-76684285D01*
X90061904Y-117252380D02*
X90061904Y-116252380D01*
X90300000Y-116252380D01*
X90442857Y-116300000D01*
X90538095Y-116395238D01*
X90585714Y-116490476D01*
X90633333Y-116680952D01*
X90633333Y-116823809D01*
X90585714Y-117014285D01*
X90538095Y-117109523D01*
X90442857Y-117204761D01*
X90300000Y-117252380D01*
X90061904Y-117252380D01*
X91585714Y-117252380D02*
X91014285Y-117252380D01*
X91300000Y-117252380D02*
X91300000Y-116252380D01*
X91204761Y-116395238D01*
X91109523Y-116490476D01*
X91014285Y-116538095D01*
X79676666Y-80522380D02*
X79676666Y-81236666D01*
X79629047Y-81379523D01*
X79533809Y-81474761D01*
X79390952Y-81522380D01*
X79295714Y-81522380D01*
X80105238Y-80617619D02*
X80152857Y-80570000D01*
X80248095Y-80522380D01*
X80486190Y-80522380D01*
X80581428Y-80570000D01*
X80629047Y-80617619D01*
X80676666Y-80712857D01*
X80676666Y-80808095D01*
X80629047Y-80950952D01*
X80057619Y-81522380D01*
X80676666Y-81522380D01*
X107307142Y-82266666D02*
X107354761Y-82314285D01*
X107402380Y-82457142D01*
X107402380Y-82552380D01*
X107354761Y-82695238D01*
X107259523Y-82790476D01*
X107164285Y-82838095D01*
X106973809Y-82885714D01*
X106830952Y-82885714D01*
X106640476Y-82838095D01*
X106545238Y-82790476D01*
X106450000Y-82695238D01*
X106402380Y-82552380D01*
X106402380Y-82457142D01*
X106450000Y-82314285D01*
X106497619Y-82266666D01*
X106402380Y-81409523D02*
X106402380Y-81600000D01*
X106450000Y-81695238D01*
X106497619Y-81742857D01*
X106640476Y-81838095D01*
X106830952Y-81885714D01*
X107211904Y-81885714D01*
X107307142Y-81838095D01*
X107354761Y-81790476D01*
X107402380Y-81695238D01*
X107402380Y-81504761D01*
X107354761Y-81409523D01*
X107307142Y-81361904D01*
X107211904Y-81314285D01*
X106973809Y-81314285D01*
X106878571Y-81361904D01*
X106830952Y-81409523D01*
X106783333Y-81504761D01*
X106783333Y-81695238D01*
X106830952Y-81790476D01*
X106878571Y-81838095D01*
X106973809Y-81885714D01*
X91857142Y-110166666D02*
X91904761Y-110214285D01*
X91952380Y-110357142D01*
X91952380Y-110452380D01*
X91904761Y-110595238D01*
X91809523Y-110690476D01*
X91714285Y-110738095D01*
X91523809Y-110785714D01*
X91380952Y-110785714D01*
X91190476Y-110738095D01*
X91095238Y-110690476D01*
X91000000Y-110595238D01*
X90952380Y-110452380D01*
X90952380Y-110357142D01*
X91000000Y-110214285D01*
X91047619Y-110166666D01*
X90952380Y-109261904D02*
X90952380Y-109738095D01*
X91428571Y-109785714D01*
X91380952Y-109738095D01*
X91333333Y-109642857D01*
X91333333Y-109404761D01*
X91380952Y-109309523D01*
X91428571Y-109261904D01*
X91523809Y-109214285D01*
X91761904Y-109214285D01*
X91857142Y-109261904D01*
X91904761Y-109309523D01*
X91952380Y-109404761D01*
X91952380Y-109642857D01*
X91904761Y-109738095D01*
X91857142Y-109785714D01*
X80690476Y-91352380D02*
X80690476Y-90352380D01*
X81023809Y-91066666D01*
X81357142Y-90352380D01*
X81357142Y-91352380D01*
X82357142Y-91352380D02*
X81785714Y-91352380D01*
X82071428Y-91352380D02*
X82071428Y-90352380D01*
X81976190Y-90495238D01*
X81880952Y-90590476D01*
X81785714Y-90638095D01*
X87097142Y-77636666D02*
X87144761Y-77684285D01*
X87192380Y-77827142D01*
X87192380Y-77922380D01*
X87144761Y-78065238D01*
X87049523Y-78160476D01*
X86954285Y-78208095D01*
X86763809Y-78255714D01*
X86620952Y-78255714D01*
X86430476Y-78208095D01*
X86335238Y-78160476D01*
X86240000Y-78065238D01*
X86192380Y-77922380D01*
X86192380Y-77827142D01*
X86240000Y-77684285D01*
X86287619Y-77636666D01*
X87192380Y-76684285D02*
X87192380Y-77255714D01*
X87192380Y-76970000D02*
X86192380Y-76970000D01*
X86335238Y-77065238D01*
X86430476Y-77160476D01*
X86478095Y-77255714D01*
X86757142Y-110166666D02*
X86804761Y-110214285D01*
X86852380Y-110357142D01*
X86852380Y-110452380D01*
X86804761Y-110595238D01*
X86709523Y-110690476D01*
X86614285Y-110738095D01*
X86423809Y-110785714D01*
X86280952Y-110785714D01*
X86090476Y-110738095D01*
X85995238Y-110690476D01*
X85900000Y-110595238D01*
X85852380Y-110452380D01*
X85852380Y-110357142D01*
X85900000Y-110214285D01*
X85947619Y-110166666D01*
X85947619Y-109785714D02*
X85900000Y-109738095D01*
X85852380Y-109642857D01*
X85852380Y-109404761D01*
X85900000Y-109309523D01*
X85947619Y-109261904D01*
X86042857Y-109214285D01*
X86138095Y-109214285D01*
X86280952Y-109261904D01*
X86852380Y-109833333D01*
X86852380Y-109214285D01*
X80946666Y-117352380D02*
X80946666Y-118066666D01*
X80899047Y-118209523D01*
X80803809Y-118304761D01*
X80660952Y-118352380D01*
X80565714Y-118352380D01*
X81946666Y-118352380D02*
X81375238Y-118352380D01*
X81660952Y-118352380D02*
X81660952Y-117352380D01*
X81565714Y-117495238D01*
X81470476Y-117590476D01*
X81375238Y-117638095D01*
X89352380Y-110166666D02*
X88876190Y-110500000D01*
X89352380Y-110738095D02*
X88352380Y-110738095D01*
X88352380Y-110357142D01*
X88400000Y-110261904D01*
X88447619Y-110214285D01*
X88542857Y-110166666D01*
X88685714Y-110166666D01*
X88780952Y-110214285D01*
X88828571Y-110261904D01*
X88876190Y-110357142D01*
X88876190Y-110738095D01*
X89352380Y-109214285D02*
X89352380Y-109785714D01*
X89352380Y-109500000D02*
X88352380Y-109500000D01*
X88495238Y-109595238D01*
X88590476Y-109690476D01*
X88638095Y-109785714D01*
M02*
