G04 #@! TF.GenerationSoftware,KiCad,Pcbnew,5.1.5+dfsg1-2build2*
G04 #@! TF.CreationDate,2021-09-27T21:09:23+08:00*
G04 #@! TF.ProjectId,esp32-cam,65737033-322d-4636-916d-2e6b69636164,rev?*
G04 #@! TF.SameCoordinates,Original*
G04 #@! TF.FileFunction,Soldermask,Top*
G04 #@! TF.FilePolarity,Negative*
%FSLAX46Y46*%
G04 Gerber Fmt 4.6, Leading zero omitted, Abs format (unit mm)*
G04 Created by KiCad (PCBNEW 5.1.5+dfsg1-2build2) date 2021-09-27 21:09:23*
%MOMM*%
%LPD*%
G04 APERTURE LIST*
%ADD10C,0.100000*%
G04 APERTURE END LIST*
D10*
G36*
X89118674Y-116093465D02*
G01*
X89156367Y-116104899D01*
X89191103Y-116123466D01*
X89221548Y-116148452D01*
X89246534Y-116178897D01*
X89265101Y-116213633D01*
X89276535Y-116251326D01*
X89281000Y-116296661D01*
X89281000Y-117383339D01*
X89276535Y-117428674D01*
X89265101Y-117466367D01*
X89246534Y-117501103D01*
X89221548Y-117531548D01*
X89191103Y-117556534D01*
X89156367Y-117575101D01*
X89118674Y-117586535D01*
X89073339Y-117591000D01*
X88236661Y-117591000D01*
X88191326Y-117586535D01*
X88153633Y-117575101D01*
X88118897Y-117556534D01*
X88088452Y-117531548D01*
X88063466Y-117501103D01*
X88044899Y-117466367D01*
X88033465Y-117428674D01*
X88029000Y-117383339D01*
X88029000Y-116296661D01*
X88033465Y-116251326D01*
X88044899Y-116213633D01*
X88063466Y-116178897D01*
X88088452Y-116148452D01*
X88118897Y-116123466D01*
X88153633Y-116104899D01*
X88191326Y-116093465D01*
X88236661Y-116089000D01*
X89073339Y-116089000D01*
X89118674Y-116093465D01*
G37*
G36*
X87068674Y-116093465D02*
G01*
X87106367Y-116104899D01*
X87141103Y-116123466D01*
X87171548Y-116148452D01*
X87196534Y-116178897D01*
X87215101Y-116213633D01*
X87226535Y-116251326D01*
X87231000Y-116296661D01*
X87231000Y-117383339D01*
X87226535Y-117428674D01*
X87215101Y-117466367D01*
X87196534Y-117501103D01*
X87171548Y-117531548D01*
X87141103Y-117556534D01*
X87106367Y-117575101D01*
X87068674Y-117586535D01*
X87023339Y-117591000D01*
X86186661Y-117591000D01*
X86141326Y-117586535D01*
X86103633Y-117575101D01*
X86068897Y-117556534D01*
X86038452Y-117531548D01*
X86013466Y-117501103D01*
X85994899Y-117466367D01*
X85983465Y-117428674D01*
X85979000Y-117383339D01*
X85979000Y-116296661D01*
X85983465Y-116251326D01*
X85994899Y-116213633D01*
X86013466Y-116178897D01*
X86038452Y-116148452D01*
X86068897Y-116123466D01*
X86103633Y-116104899D01*
X86141326Y-116093465D01*
X86186661Y-116089000D01*
X87023339Y-116089000D01*
X87068674Y-116093465D01*
G37*
G36*
X82181000Y-116471000D02*
G01*
X80379000Y-116471000D01*
X80379000Y-114669000D01*
X82181000Y-114669000D01*
X82181000Y-116471000D01*
G37*
G36*
X89488674Y-113433465D02*
G01*
X89526367Y-113444899D01*
X89561103Y-113463466D01*
X89591548Y-113488452D01*
X89616534Y-113518897D01*
X89635101Y-113553633D01*
X89646535Y-113591326D01*
X89651000Y-113636661D01*
X89651000Y-114473339D01*
X89646535Y-114518674D01*
X89635101Y-114556367D01*
X89616534Y-114591103D01*
X89591548Y-114621548D01*
X89561103Y-114646534D01*
X89526367Y-114665101D01*
X89488674Y-114676535D01*
X89443339Y-114681000D01*
X88356661Y-114681000D01*
X88311326Y-114676535D01*
X88273633Y-114665101D01*
X88238897Y-114646534D01*
X88208452Y-114621548D01*
X88183466Y-114591103D01*
X88164899Y-114556367D01*
X88153465Y-114518674D01*
X88149000Y-114473339D01*
X88149000Y-113636661D01*
X88153465Y-113591326D01*
X88164899Y-113553633D01*
X88183466Y-113518897D01*
X88208452Y-113488452D01*
X88238897Y-113463466D01*
X88273633Y-113444899D01*
X88311326Y-113433465D01*
X88356661Y-113429000D01*
X89443339Y-113429000D01*
X89488674Y-113433465D01*
G37*
G36*
X86948674Y-113433465D02*
G01*
X86986367Y-113444899D01*
X87021103Y-113463466D01*
X87051548Y-113488452D01*
X87076534Y-113518897D01*
X87095101Y-113553633D01*
X87106535Y-113591326D01*
X87111000Y-113636661D01*
X87111000Y-114473339D01*
X87106535Y-114518674D01*
X87095101Y-114556367D01*
X87076534Y-114591103D01*
X87051548Y-114621548D01*
X87021103Y-114646534D01*
X86986367Y-114665101D01*
X86948674Y-114676535D01*
X86903339Y-114681000D01*
X85816661Y-114681000D01*
X85771326Y-114676535D01*
X85733633Y-114665101D01*
X85698897Y-114646534D01*
X85668452Y-114621548D01*
X85643466Y-114591103D01*
X85624899Y-114556367D01*
X85613465Y-114518674D01*
X85609000Y-114473339D01*
X85609000Y-113636661D01*
X85613465Y-113591326D01*
X85624899Y-113553633D01*
X85643466Y-113518897D01*
X85668452Y-113488452D01*
X85698897Y-113463466D01*
X85733633Y-113444899D01*
X85771326Y-113433465D01*
X85816661Y-113429000D01*
X86903339Y-113429000D01*
X86948674Y-113433465D01*
G37*
G36*
X92028674Y-113433465D02*
G01*
X92066367Y-113444899D01*
X92101103Y-113463466D01*
X92131548Y-113488452D01*
X92156534Y-113518897D01*
X92175101Y-113553633D01*
X92186535Y-113591326D01*
X92191000Y-113636661D01*
X92191000Y-114473339D01*
X92186535Y-114518674D01*
X92175101Y-114556367D01*
X92156534Y-114591103D01*
X92131548Y-114621548D01*
X92101103Y-114646534D01*
X92066367Y-114665101D01*
X92028674Y-114676535D01*
X91983339Y-114681000D01*
X90896661Y-114681000D01*
X90851326Y-114676535D01*
X90813633Y-114665101D01*
X90778897Y-114646534D01*
X90748452Y-114621548D01*
X90723466Y-114591103D01*
X90704899Y-114556367D01*
X90693465Y-114518674D01*
X90689000Y-114473339D01*
X90689000Y-113636661D01*
X90693465Y-113591326D01*
X90704899Y-113553633D01*
X90723466Y-113518897D01*
X90748452Y-113488452D01*
X90778897Y-113463466D01*
X90813633Y-113444899D01*
X90851326Y-113433465D01*
X90896661Y-113429000D01*
X91983339Y-113429000D01*
X92028674Y-113433465D01*
G37*
G36*
X81393512Y-112133927D02*
G01*
X81542812Y-112163624D01*
X81706784Y-112231544D01*
X81854354Y-112330147D01*
X81979853Y-112455646D01*
X82078456Y-112603216D01*
X82146376Y-112767188D01*
X82181000Y-112941259D01*
X82181000Y-113118741D01*
X82146376Y-113292812D01*
X82078456Y-113456784D01*
X81979853Y-113604354D01*
X81854354Y-113729853D01*
X81706784Y-113828456D01*
X81542812Y-113896376D01*
X81393512Y-113926073D01*
X81368742Y-113931000D01*
X81191258Y-113931000D01*
X81166488Y-113926073D01*
X81017188Y-113896376D01*
X80853216Y-113828456D01*
X80705646Y-113729853D01*
X80580147Y-113604354D01*
X80481544Y-113456784D01*
X80413624Y-113292812D01*
X80379000Y-113118741D01*
X80379000Y-112941259D01*
X80413624Y-112767188D01*
X80481544Y-112603216D01*
X80580147Y-112455646D01*
X80705646Y-112330147D01*
X80853216Y-112231544D01*
X81017188Y-112163624D01*
X81166488Y-112133927D01*
X81191258Y-112129000D01*
X81368742Y-112129000D01*
X81393512Y-112133927D01*
G37*
G36*
X86948674Y-111383465D02*
G01*
X86986367Y-111394899D01*
X87021103Y-111413466D01*
X87051548Y-111438452D01*
X87076534Y-111468897D01*
X87095101Y-111503633D01*
X87106535Y-111541326D01*
X87111000Y-111586661D01*
X87111000Y-112423339D01*
X87106535Y-112468674D01*
X87095101Y-112506367D01*
X87076534Y-112541103D01*
X87051548Y-112571548D01*
X87021103Y-112596534D01*
X86986367Y-112615101D01*
X86948674Y-112626535D01*
X86903339Y-112631000D01*
X85816661Y-112631000D01*
X85771326Y-112626535D01*
X85733633Y-112615101D01*
X85698897Y-112596534D01*
X85668452Y-112571548D01*
X85643466Y-112541103D01*
X85624899Y-112506367D01*
X85613465Y-112468674D01*
X85609000Y-112423339D01*
X85609000Y-111586661D01*
X85613465Y-111541326D01*
X85624899Y-111503633D01*
X85643466Y-111468897D01*
X85668452Y-111438452D01*
X85698897Y-111413466D01*
X85733633Y-111394899D01*
X85771326Y-111383465D01*
X85816661Y-111379000D01*
X86903339Y-111379000D01*
X86948674Y-111383465D01*
G37*
G36*
X92028674Y-111383465D02*
G01*
X92066367Y-111394899D01*
X92101103Y-111413466D01*
X92131548Y-111438452D01*
X92156534Y-111468897D01*
X92175101Y-111503633D01*
X92186535Y-111541326D01*
X92191000Y-111586661D01*
X92191000Y-112423339D01*
X92186535Y-112468674D01*
X92175101Y-112506367D01*
X92156534Y-112541103D01*
X92131548Y-112571548D01*
X92101103Y-112596534D01*
X92066367Y-112615101D01*
X92028674Y-112626535D01*
X91983339Y-112631000D01*
X90896661Y-112631000D01*
X90851326Y-112626535D01*
X90813633Y-112615101D01*
X90778897Y-112596534D01*
X90748452Y-112571548D01*
X90723466Y-112541103D01*
X90704899Y-112506367D01*
X90693465Y-112468674D01*
X90689000Y-112423339D01*
X90689000Y-111586661D01*
X90693465Y-111541326D01*
X90704899Y-111503633D01*
X90723466Y-111468897D01*
X90748452Y-111438452D01*
X90778897Y-111413466D01*
X90813633Y-111394899D01*
X90851326Y-111383465D01*
X90896661Y-111379000D01*
X91983339Y-111379000D01*
X92028674Y-111383465D01*
G37*
G36*
X89488674Y-111383465D02*
G01*
X89526367Y-111394899D01*
X89561103Y-111413466D01*
X89591548Y-111438452D01*
X89616534Y-111468897D01*
X89635101Y-111503633D01*
X89646535Y-111541326D01*
X89651000Y-111586661D01*
X89651000Y-112423339D01*
X89646535Y-112468674D01*
X89635101Y-112506367D01*
X89616534Y-112541103D01*
X89591548Y-112571548D01*
X89561103Y-112596534D01*
X89526367Y-112615101D01*
X89488674Y-112626535D01*
X89443339Y-112631000D01*
X88356661Y-112631000D01*
X88311326Y-112626535D01*
X88273633Y-112615101D01*
X88238897Y-112596534D01*
X88208452Y-112571548D01*
X88183466Y-112541103D01*
X88164899Y-112506367D01*
X88153465Y-112468674D01*
X88149000Y-112423339D01*
X88149000Y-111586661D01*
X88153465Y-111541326D01*
X88164899Y-111503633D01*
X88183466Y-111468897D01*
X88208452Y-111438452D01*
X88238897Y-111413466D01*
X88273633Y-111394899D01*
X88311326Y-111383465D01*
X88356661Y-111379000D01*
X89443339Y-111379000D01*
X89488674Y-111383465D01*
G37*
G36*
X96291600Y-111719560D02*
G01*
X94868800Y-111719560D01*
X94868800Y-109260440D01*
X96291600Y-109260440D01*
X96291600Y-111719560D01*
G37*
G36*
X100711200Y-111719560D02*
G01*
X99288400Y-111719560D01*
X99288400Y-109260440D01*
X100711200Y-109260440D01*
X100711200Y-111719560D01*
G37*
G36*
X90388674Y-107203465D02*
G01*
X90426367Y-107214899D01*
X90461103Y-107233466D01*
X90491548Y-107258452D01*
X90516534Y-107288897D01*
X90535101Y-107323633D01*
X90546535Y-107361326D01*
X90551000Y-107406661D01*
X90551000Y-108493339D01*
X90546535Y-108538674D01*
X90535101Y-108576367D01*
X90516534Y-108611103D01*
X90491548Y-108641548D01*
X90461103Y-108666534D01*
X90426367Y-108685101D01*
X90388674Y-108696535D01*
X90343339Y-108701000D01*
X89506661Y-108701000D01*
X89461326Y-108696535D01*
X89423633Y-108685101D01*
X89388897Y-108666534D01*
X89358452Y-108641548D01*
X89333466Y-108611103D01*
X89314899Y-108576367D01*
X89303465Y-108538674D01*
X89299000Y-108493339D01*
X89299000Y-107406661D01*
X89303465Y-107361326D01*
X89314899Y-107323633D01*
X89333466Y-107288897D01*
X89358452Y-107258452D01*
X89388897Y-107233466D01*
X89423633Y-107214899D01*
X89461326Y-107203465D01*
X89506661Y-107199000D01*
X90343339Y-107199000D01*
X90388674Y-107203465D01*
G37*
G36*
X88338674Y-107203465D02*
G01*
X88376367Y-107214899D01*
X88411103Y-107233466D01*
X88441548Y-107258452D01*
X88466534Y-107288897D01*
X88485101Y-107323633D01*
X88496535Y-107361326D01*
X88501000Y-107406661D01*
X88501000Y-108493339D01*
X88496535Y-108538674D01*
X88485101Y-108576367D01*
X88466534Y-108611103D01*
X88441548Y-108641548D01*
X88411103Y-108666534D01*
X88376367Y-108685101D01*
X88338674Y-108696535D01*
X88293339Y-108701000D01*
X87456661Y-108701000D01*
X87411326Y-108696535D01*
X87373633Y-108685101D01*
X87338897Y-108666534D01*
X87308452Y-108641548D01*
X87283466Y-108611103D01*
X87264899Y-108576367D01*
X87253465Y-108538674D01*
X87249000Y-108493339D01*
X87249000Y-107406661D01*
X87253465Y-107361326D01*
X87264899Y-107323633D01*
X87283466Y-107288897D01*
X87308452Y-107258452D01*
X87338897Y-107233466D01*
X87373633Y-107214899D01*
X87411326Y-107203465D01*
X87456661Y-107199000D01*
X88293339Y-107199000D01*
X88338674Y-107203465D01*
G37*
G36*
X97228674Y-104663465D02*
G01*
X97266367Y-104674899D01*
X97301103Y-104693466D01*
X97331548Y-104718452D01*
X97356534Y-104748897D01*
X97375101Y-104783633D01*
X97386535Y-104821326D01*
X97391000Y-104866661D01*
X97391000Y-105953339D01*
X97386535Y-105998674D01*
X97375101Y-106036367D01*
X97356534Y-106071103D01*
X97331548Y-106101548D01*
X97301103Y-106126534D01*
X97266367Y-106145101D01*
X97228674Y-106156535D01*
X97183339Y-106161000D01*
X96346661Y-106161000D01*
X96301326Y-106156535D01*
X96263633Y-106145101D01*
X96228897Y-106126534D01*
X96198452Y-106101548D01*
X96173466Y-106071103D01*
X96154899Y-106036367D01*
X96143465Y-105998674D01*
X96139000Y-105953339D01*
X96139000Y-104866661D01*
X96143465Y-104821326D01*
X96154899Y-104783633D01*
X96173466Y-104748897D01*
X96198452Y-104718452D01*
X96228897Y-104693466D01*
X96263633Y-104674899D01*
X96301326Y-104663465D01*
X96346661Y-104659000D01*
X97183339Y-104659000D01*
X97228674Y-104663465D01*
G37*
G36*
X99278674Y-104663465D02*
G01*
X99316367Y-104674899D01*
X99351103Y-104693466D01*
X99381548Y-104718452D01*
X99406534Y-104748897D01*
X99425101Y-104783633D01*
X99436535Y-104821326D01*
X99441000Y-104866661D01*
X99441000Y-105953339D01*
X99436535Y-105998674D01*
X99425101Y-106036367D01*
X99406534Y-106071103D01*
X99381548Y-106101548D01*
X99351103Y-106126534D01*
X99316367Y-106145101D01*
X99278674Y-106156535D01*
X99233339Y-106161000D01*
X98396661Y-106161000D01*
X98351326Y-106156535D01*
X98313633Y-106145101D01*
X98278897Y-106126534D01*
X98248452Y-106101548D01*
X98223466Y-106071103D01*
X98204899Y-106036367D01*
X98193465Y-105998674D01*
X98189000Y-105953339D01*
X98189000Y-104866661D01*
X98193465Y-104821326D01*
X98204899Y-104783633D01*
X98223466Y-104748897D01*
X98248452Y-104718452D01*
X98278897Y-104693466D01*
X98313633Y-104674899D01*
X98351326Y-104663465D01*
X98396661Y-104659000D01*
X99233339Y-104659000D01*
X99278674Y-104663465D01*
G37*
G36*
X92906719Y-101833520D02*
G01*
X93095880Y-101890901D01*
X93095883Y-101890902D01*
X93188333Y-101940318D01*
X93270212Y-101984083D01*
X93423015Y-102109485D01*
X93548417Y-102262288D01*
X93641599Y-102436619D01*
X93698980Y-102625780D01*
X93713500Y-102773206D01*
X93713500Y-102966793D01*
X93698980Y-103114219D01*
X93641599Y-103303380D01*
X93641598Y-103303383D01*
X93592182Y-103395833D01*
X93548417Y-103477712D01*
X93423015Y-103630515D01*
X93270212Y-103755917D01*
X93095881Y-103849099D01*
X92906720Y-103906480D01*
X92710000Y-103925855D01*
X92513281Y-103906480D01*
X92324120Y-103849099D01*
X92149788Y-103755917D01*
X91996985Y-103630515D01*
X91871583Y-103477712D01*
X91778401Y-103303381D01*
X91721020Y-103114220D01*
X91706500Y-102966794D01*
X91706500Y-102773207D01*
X91721020Y-102625781D01*
X91778401Y-102436620D01*
X91778402Y-102436617D01*
X91827818Y-102344167D01*
X91871583Y-102262288D01*
X91996985Y-102109485D01*
X92149788Y-101984083D01*
X92324119Y-101890901D01*
X92513280Y-101833520D01*
X92710000Y-101814145D01*
X92906719Y-101833520D01*
G37*
G36*
X90366719Y-101833520D02*
G01*
X90555880Y-101890901D01*
X90555883Y-101890902D01*
X90648333Y-101940318D01*
X90730212Y-101984083D01*
X90883015Y-102109485D01*
X91008417Y-102262288D01*
X91101599Y-102436619D01*
X91158980Y-102625780D01*
X91173500Y-102773206D01*
X91173500Y-102966793D01*
X91158980Y-103114219D01*
X91101599Y-103303380D01*
X91101598Y-103303383D01*
X91052182Y-103395833D01*
X91008417Y-103477712D01*
X90883015Y-103630515D01*
X90730212Y-103755917D01*
X90555881Y-103849099D01*
X90366720Y-103906480D01*
X90170000Y-103925855D01*
X89973281Y-103906480D01*
X89784120Y-103849099D01*
X89609788Y-103755917D01*
X89456985Y-103630515D01*
X89331583Y-103477712D01*
X89238401Y-103303381D01*
X89181020Y-103114220D01*
X89166500Y-102966794D01*
X89166500Y-102773207D01*
X89181020Y-102625781D01*
X89238401Y-102436620D01*
X89238402Y-102436617D01*
X89287818Y-102344167D01*
X89331583Y-102262288D01*
X89456985Y-102109485D01*
X89609788Y-101984083D01*
X89784119Y-101890901D01*
X89973280Y-101833520D01*
X90170000Y-101814145D01*
X90366719Y-101833520D01*
G37*
G36*
X87826719Y-101833520D02*
G01*
X88015880Y-101890901D01*
X88015883Y-101890902D01*
X88108333Y-101940318D01*
X88190212Y-101984083D01*
X88343015Y-102109485D01*
X88468417Y-102262288D01*
X88561599Y-102436619D01*
X88618980Y-102625780D01*
X88633500Y-102773206D01*
X88633500Y-102966793D01*
X88618980Y-103114219D01*
X88561599Y-103303380D01*
X88561598Y-103303383D01*
X88512182Y-103395833D01*
X88468417Y-103477712D01*
X88343015Y-103630515D01*
X88190212Y-103755917D01*
X88015881Y-103849099D01*
X87826720Y-103906480D01*
X87630000Y-103925855D01*
X87433281Y-103906480D01*
X87244120Y-103849099D01*
X87069788Y-103755917D01*
X86916985Y-103630515D01*
X86791583Y-103477712D01*
X86698401Y-103303381D01*
X86641020Y-103114220D01*
X86626500Y-102966794D01*
X86626500Y-102773207D01*
X86641020Y-102625781D01*
X86698401Y-102436620D01*
X86698402Y-102436617D01*
X86747818Y-102344167D01*
X86791583Y-102262288D01*
X86916985Y-102109485D01*
X87069788Y-101984083D01*
X87244119Y-101890901D01*
X87433280Y-101833520D01*
X87630000Y-101814145D01*
X87826719Y-101833520D01*
G37*
G36*
X86093500Y-103921000D02*
G01*
X84086500Y-103921000D01*
X84086500Y-101819000D01*
X86093500Y-101819000D01*
X86093500Y-103921000D01*
G37*
G36*
X140501000Y-96001000D02*
G01*
X138699000Y-96001000D01*
X138699000Y-94199000D01*
X140501000Y-94199000D01*
X140501000Y-96001000D01*
G37*
G36*
X134134626Y-94363315D02*
G01*
X134190617Y-94368829D01*
X134296908Y-94401072D01*
X134334296Y-94412414D01*
X134466703Y-94483187D01*
X134582764Y-94578436D01*
X134678013Y-94694497D01*
X134748786Y-94826904D01*
X134748787Y-94826908D01*
X134792371Y-94970583D01*
X134807087Y-95120000D01*
X134792371Y-95269417D01*
X134760128Y-95375708D01*
X134748786Y-95413096D01*
X134678013Y-95545503D01*
X134582764Y-95661564D01*
X134466703Y-95756813D01*
X134334296Y-95827586D01*
X134296908Y-95838928D01*
X134190617Y-95871171D01*
X134134626Y-95876686D01*
X134078637Y-95882200D01*
X132581363Y-95882200D01*
X132525374Y-95876686D01*
X132469383Y-95871171D01*
X132363092Y-95838928D01*
X132325704Y-95827586D01*
X132193297Y-95756813D01*
X132077236Y-95661564D01*
X131981987Y-95545503D01*
X131911214Y-95413096D01*
X131899872Y-95375708D01*
X131867629Y-95269417D01*
X131852913Y-95120000D01*
X131867629Y-94970583D01*
X131911213Y-94826908D01*
X131911214Y-94826904D01*
X131981987Y-94694497D01*
X132077236Y-94578436D01*
X132193297Y-94483187D01*
X132325704Y-94412414D01*
X132363092Y-94401072D01*
X132469383Y-94368829D01*
X132525374Y-94363315D01*
X132581363Y-94357800D01*
X134078637Y-94357800D01*
X134134626Y-94363315D01*
G37*
G36*
X111274626Y-94363315D02*
G01*
X111330617Y-94368829D01*
X111436908Y-94401072D01*
X111474296Y-94412414D01*
X111606703Y-94483187D01*
X111722764Y-94578436D01*
X111818013Y-94694497D01*
X111888786Y-94826904D01*
X111888787Y-94826908D01*
X111932371Y-94970583D01*
X111947087Y-95120000D01*
X111932371Y-95269417D01*
X111900128Y-95375708D01*
X111888786Y-95413096D01*
X111818013Y-95545503D01*
X111722764Y-95661564D01*
X111606703Y-95756813D01*
X111474296Y-95827586D01*
X111436908Y-95838928D01*
X111330617Y-95871171D01*
X111274626Y-95876686D01*
X111218637Y-95882200D01*
X109721363Y-95882200D01*
X109665374Y-95876686D01*
X109609383Y-95871171D01*
X109503092Y-95838928D01*
X109465704Y-95827586D01*
X109333297Y-95756813D01*
X109217236Y-95661564D01*
X109121987Y-95545503D01*
X109051214Y-95413096D01*
X109039872Y-95375708D01*
X109007629Y-95269417D01*
X108992913Y-95120000D01*
X109007629Y-94970583D01*
X109051213Y-94826908D01*
X109051214Y-94826904D01*
X109121987Y-94694497D01*
X109217236Y-94578436D01*
X109333297Y-94483187D01*
X109465704Y-94412414D01*
X109503092Y-94401072D01*
X109609383Y-94368829D01*
X109665374Y-94363315D01*
X109721363Y-94357800D01*
X111218637Y-94357800D01*
X111274626Y-94363315D01*
G37*
G36*
X139713512Y-91663927D02*
G01*
X139862812Y-91693624D01*
X140026784Y-91761544D01*
X140174354Y-91860147D01*
X140299853Y-91985646D01*
X140398456Y-92133216D01*
X140466376Y-92297188D01*
X140501000Y-92471259D01*
X140501000Y-92648741D01*
X140466376Y-92822812D01*
X140398456Y-92986784D01*
X140299853Y-93134354D01*
X140174354Y-93259853D01*
X140026784Y-93358456D01*
X139862812Y-93426376D01*
X139713512Y-93456073D01*
X139688742Y-93461000D01*
X139511258Y-93461000D01*
X139486488Y-93456073D01*
X139337188Y-93426376D01*
X139173216Y-93358456D01*
X139025646Y-93259853D01*
X138900147Y-93134354D01*
X138801544Y-92986784D01*
X138733624Y-92822812D01*
X138699000Y-92648741D01*
X138699000Y-92471259D01*
X138733624Y-92297188D01*
X138801544Y-92133216D01*
X138900147Y-91985646D01*
X139025646Y-91860147D01*
X139173216Y-91761544D01*
X139337188Y-91693624D01*
X139486488Y-91663927D01*
X139511258Y-91659000D01*
X139688742Y-91659000D01*
X139713512Y-91663927D01*
G37*
G36*
X134134626Y-91823314D02*
G01*
X134190617Y-91828829D01*
X134293857Y-91860147D01*
X134334296Y-91872414D01*
X134466703Y-91943187D01*
X134582764Y-92038436D01*
X134678013Y-92154497D01*
X134748786Y-92286904D01*
X134751906Y-92297189D01*
X134792371Y-92430583D01*
X134807087Y-92580000D01*
X134792371Y-92729417D01*
X134760128Y-92835708D01*
X134748786Y-92873096D01*
X134678013Y-93005503D01*
X134582764Y-93121564D01*
X134466703Y-93216813D01*
X134334296Y-93287586D01*
X134296908Y-93298928D01*
X134190617Y-93331171D01*
X134134626Y-93336686D01*
X134078637Y-93342200D01*
X132581363Y-93342200D01*
X132525374Y-93336686D01*
X132469383Y-93331171D01*
X132363092Y-93298928D01*
X132325704Y-93287586D01*
X132193297Y-93216813D01*
X132077236Y-93121564D01*
X131981987Y-93005503D01*
X131911214Y-92873096D01*
X131899872Y-92835708D01*
X131867629Y-92729417D01*
X131852913Y-92580000D01*
X131867629Y-92430583D01*
X131908094Y-92297189D01*
X131911214Y-92286904D01*
X131981987Y-92154497D01*
X132077236Y-92038436D01*
X132193297Y-91943187D01*
X132325704Y-91872414D01*
X132366143Y-91860147D01*
X132469383Y-91828829D01*
X132525374Y-91823314D01*
X132581363Y-91817800D01*
X134078637Y-91817800D01*
X134134626Y-91823314D01*
G37*
G36*
X111274626Y-91823314D02*
G01*
X111330617Y-91828829D01*
X111433857Y-91860147D01*
X111474296Y-91872414D01*
X111606703Y-91943187D01*
X111722764Y-92038436D01*
X111818013Y-92154497D01*
X111888786Y-92286904D01*
X111891906Y-92297189D01*
X111932371Y-92430583D01*
X111947087Y-92580000D01*
X111932371Y-92729417D01*
X111900128Y-92835708D01*
X111888786Y-92873096D01*
X111818013Y-93005503D01*
X111722764Y-93121564D01*
X111606703Y-93216813D01*
X111474296Y-93287586D01*
X111436908Y-93298928D01*
X111330617Y-93331171D01*
X111274626Y-93336686D01*
X111218637Y-93342200D01*
X109721363Y-93342200D01*
X109665374Y-93336686D01*
X109609383Y-93331171D01*
X109503092Y-93298928D01*
X109465704Y-93287586D01*
X109333297Y-93216813D01*
X109217236Y-93121564D01*
X109121987Y-93005503D01*
X109051214Y-92873096D01*
X109039872Y-92835708D01*
X109007629Y-92729417D01*
X108992913Y-92580000D01*
X109007629Y-92430583D01*
X109048094Y-92297189D01*
X109051214Y-92286904D01*
X109121987Y-92154497D01*
X109217236Y-92038436D01*
X109333297Y-91943187D01*
X109465704Y-91872414D01*
X109506143Y-91860147D01*
X109609383Y-91828829D01*
X109665374Y-91823314D01*
X109721363Y-91817800D01*
X111218637Y-91817800D01*
X111274626Y-91823314D01*
G37*
G36*
X139713512Y-89123927D02*
G01*
X139862812Y-89153624D01*
X140026784Y-89221544D01*
X140174354Y-89320147D01*
X140299853Y-89445646D01*
X140398456Y-89593216D01*
X140466376Y-89757188D01*
X140501000Y-89931259D01*
X140501000Y-90108741D01*
X140466376Y-90282812D01*
X140398456Y-90446784D01*
X140299853Y-90594354D01*
X140174354Y-90719853D01*
X140026784Y-90818456D01*
X139862812Y-90886376D01*
X139713512Y-90916073D01*
X139688742Y-90921000D01*
X139511258Y-90921000D01*
X139486488Y-90916073D01*
X139337188Y-90886376D01*
X139173216Y-90818456D01*
X139025646Y-90719853D01*
X138900147Y-90594354D01*
X138801544Y-90446784D01*
X138733624Y-90282812D01*
X138699000Y-90108741D01*
X138699000Y-89931259D01*
X138733624Y-89757188D01*
X138801544Y-89593216D01*
X138900147Y-89445646D01*
X139025646Y-89320147D01*
X139173216Y-89221544D01*
X139337188Y-89153624D01*
X139486488Y-89123927D01*
X139511258Y-89119000D01*
X139688742Y-89119000D01*
X139713512Y-89123927D01*
G37*
G36*
X111274626Y-89283314D02*
G01*
X111330617Y-89288829D01*
X111433857Y-89320147D01*
X111474296Y-89332414D01*
X111606703Y-89403187D01*
X111722764Y-89498436D01*
X111818013Y-89614497D01*
X111888786Y-89746904D01*
X111891906Y-89757189D01*
X111932371Y-89890583D01*
X111947087Y-90040000D01*
X111932371Y-90189417D01*
X111900128Y-90295708D01*
X111888786Y-90333096D01*
X111818013Y-90465503D01*
X111722764Y-90581564D01*
X111606703Y-90676813D01*
X111474296Y-90747586D01*
X111436908Y-90758928D01*
X111330617Y-90791171D01*
X111274626Y-90796686D01*
X111218637Y-90802200D01*
X109721363Y-90802200D01*
X109665374Y-90796686D01*
X109609383Y-90791171D01*
X109503092Y-90758928D01*
X109465704Y-90747586D01*
X109333297Y-90676813D01*
X109217236Y-90581564D01*
X109121987Y-90465503D01*
X109051214Y-90333096D01*
X109039872Y-90295708D01*
X109007629Y-90189417D01*
X108992913Y-90040000D01*
X109007629Y-89890583D01*
X109048094Y-89757189D01*
X109051214Y-89746904D01*
X109121987Y-89614497D01*
X109217236Y-89498436D01*
X109333297Y-89403187D01*
X109465704Y-89332414D01*
X109506143Y-89320147D01*
X109609383Y-89288829D01*
X109665374Y-89283314D01*
X109721363Y-89277800D01*
X111218637Y-89277800D01*
X111274626Y-89283314D01*
G37*
G36*
X134134626Y-89283314D02*
G01*
X134190617Y-89288829D01*
X134293857Y-89320147D01*
X134334296Y-89332414D01*
X134466703Y-89403187D01*
X134582764Y-89498436D01*
X134678013Y-89614497D01*
X134748786Y-89746904D01*
X134751906Y-89757189D01*
X134792371Y-89890583D01*
X134807087Y-90040000D01*
X134792371Y-90189417D01*
X134760128Y-90295708D01*
X134748786Y-90333096D01*
X134678013Y-90465503D01*
X134582764Y-90581564D01*
X134466703Y-90676813D01*
X134334296Y-90747586D01*
X134296908Y-90758928D01*
X134190617Y-90791171D01*
X134134626Y-90796686D01*
X134078637Y-90802200D01*
X132581363Y-90802200D01*
X132525374Y-90796686D01*
X132469383Y-90791171D01*
X132363092Y-90758928D01*
X132325704Y-90747586D01*
X132193297Y-90676813D01*
X132077236Y-90581564D01*
X131981987Y-90465503D01*
X131911214Y-90333096D01*
X131899872Y-90295708D01*
X131867629Y-90189417D01*
X131852913Y-90040000D01*
X131867629Y-89890583D01*
X131908094Y-89757189D01*
X131911214Y-89746904D01*
X131981987Y-89614497D01*
X132077236Y-89498436D01*
X132193297Y-89403187D01*
X132325704Y-89332414D01*
X132366143Y-89320147D01*
X132469383Y-89288829D01*
X132525374Y-89283314D01*
X132581363Y-89277800D01*
X134078637Y-89277800D01*
X134134626Y-89283314D01*
G37*
G36*
X111274626Y-86743314D02*
G01*
X111330617Y-86748829D01*
X111436908Y-86781072D01*
X111474296Y-86792414D01*
X111606703Y-86863187D01*
X111722764Y-86958436D01*
X111818013Y-87074497D01*
X111888786Y-87206904D01*
X111888787Y-87206908D01*
X111932371Y-87350583D01*
X111947087Y-87500000D01*
X111932371Y-87649417D01*
X111900128Y-87755708D01*
X111888786Y-87793096D01*
X111818013Y-87925503D01*
X111722764Y-88041564D01*
X111606703Y-88136813D01*
X111474296Y-88207586D01*
X111436908Y-88218928D01*
X111330617Y-88251171D01*
X111274626Y-88256685D01*
X111218637Y-88262200D01*
X109721363Y-88262200D01*
X109665374Y-88256685D01*
X109609383Y-88251171D01*
X109503092Y-88218928D01*
X109465704Y-88207586D01*
X109333297Y-88136813D01*
X109217236Y-88041564D01*
X109121987Y-87925503D01*
X109051214Y-87793096D01*
X109039872Y-87755708D01*
X109007629Y-87649417D01*
X108992913Y-87500000D01*
X109007629Y-87350583D01*
X109051213Y-87206908D01*
X109051214Y-87206904D01*
X109121987Y-87074497D01*
X109217236Y-86958436D01*
X109333297Y-86863187D01*
X109465704Y-86792414D01*
X109503092Y-86781072D01*
X109609383Y-86748829D01*
X109665374Y-86743314D01*
X109721363Y-86737800D01*
X111218637Y-86737800D01*
X111274626Y-86743314D01*
G37*
G36*
X134134626Y-86743314D02*
G01*
X134190617Y-86748829D01*
X134296908Y-86781072D01*
X134334296Y-86792414D01*
X134466703Y-86863187D01*
X134582764Y-86958436D01*
X134678013Y-87074497D01*
X134748786Y-87206904D01*
X134748787Y-87206908D01*
X134792371Y-87350583D01*
X134807087Y-87500000D01*
X134792371Y-87649417D01*
X134760128Y-87755708D01*
X134748786Y-87793096D01*
X134678013Y-87925503D01*
X134582764Y-88041564D01*
X134466703Y-88136813D01*
X134334296Y-88207586D01*
X134296908Y-88218928D01*
X134190617Y-88251171D01*
X134134626Y-88256685D01*
X134078637Y-88262200D01*
X132581363Y-88262200D01*
X132525374Y-88256685D01*
X132469383Y-88251171D01*
X132363092Y-88218928D01*
X132325704Y-88207586D01*
X132193297Y-88136813D01*
X132077236Y-88041564D01*
X131981987Y-87925503D01*
X131911214Y-87793096D01*
X131899872Y-87755708D01*
X131867629Y-87649417D01*
X131852913Y-87500000D01*
X131867629Y-87350583D01*
X131911213Y-87206908D01*
X131911214Y-87206904D01*
X131981987Y-87074497D01*
X132077236Y-86958436D01*
X132193297Y-86863187D01*
X132325704Y-86792414D01*
X132363092Y-86781072D01*
X132469383Y-86748829D01*
X132525374Y-86743314D01*
X132581363Y-86737800D01*
X134078637Y-86737800D01*
X134134626Y-86743314D01*
G37*
G36*
X89425331Y-84478211D02*
G01*
X89753092Y-84613974D01*
X90048070Y-84811072D01*
X90298928Y-85061930D01*
X90496026Y-85356908D01*
X90631789Y-85684669D01*
X90701000Y-86032616D01*
X90701000Y-86387384D01*
X90631789Y-86735331D01*
X90496026Y-87063092D01*
X90298928Y-87358070D01*
X90048070Y-87608928D01*
X89753092Y-87806026D01*
X89425331Y-87941789D01*
X89077384Y-88011000D01*
X88722616Y-88011000D01*
X88374669Y-87941789D01*
X88046908Y-87806026D01*
X87751930Y-87608928D01*
X87501072Y-87358070D01*
X87303974Y-87063092D01*
X87168211Y-86735331D01*
X87099000Y-86387384D01*
X87099000Y-86032616D01*
X87168211Y-85684669D01*
X87303974Y-85356908D01*
X87501072Y-85061930D01*
X87751930Y-84811072D01*
X88046908Y-84613974D01*
X88374669Y-84478211D01*
X88722616Y-84409000D01*
X89077384Y-84409000D01*
X89425331Y-84478211D01*
G37*
G36*
X134134626Y-84203314D02*
G01*
X134190617Y-84208829D01*
X134296908Y-84241072D01*
X134334296Y-84252414D01*
X134466703Y-84323187D01*
X134582764Y-84418436D01*
X134678013Y-84534497D01*
X134748786Y-84666904D01*
X134748787Y-84666908D01*
X134792371Y-84810583D01*
X134807087Y-84960000D01*
X134792371Y-85109417D01*
X134760128Y-85215708D01*
X134748786Y-85253096D01*
X134678013Y-85385503D01*
X134582764Y-85501564D01*
X134466703Y-85596813D01*
X134334296Y-85667586D01*
X134296908Y-85678928D01*
X134190617Y-85711171D01*
X134134626Y-85716685D01*
X134078637Y-85722200D01*
X132581363Y-85722200D01*
X132525374Y-85716685D01*
X132469383Y-85711171D01*
X132363092Y-85678928D01*
X132325704Y-85667586D01*
X132193297Y-85596813D01*
X132077236Y-85501564D01*
X131981987Y-85385503D01*
X131911214Y-85253096D01*
X131899872Y-85215708D01*
X131867629Y-85109417D01*
X131852913Y-84960000D01*
X131867629Y-84810583D01*
X131911213Y-84666908D01*
X131911214Y-84666904D01*
X131981987Y-84534497D01*
X132077236Y-84418436D01*
X132193297Y-84323187D01*
X132325704Y-84252414D01*
X132363092Y-84241072D01*
X132469383Y-84208829D01*
X132525374Y-84203314D01*
X132581363Y-84197800D01*
X134078637Y-84197800D01*
X134134626Y-84203314D01*
G37*
G36*
X111274626Y-84203314D02*
G01*
X111330617Y-84208829D01*
X111436908Y-84241072D01*
X111474296Y-84252414D01*
X111606703Y-84323187D01*
X111722764Y-84418436D01*
X111818013Y-84534497D01*
X111888786Y-84666904D01*
X111888787Y-84666908D01*
X111932371Y-84810583D01*
X111947087Y-84960000D01*
X111932371Y-85109417D01*
X111900128Y-85215708D01*
X111888786Y-85253096D01*
X111818013Y-85385503D01*
X111722764Y-85501564D01*
X111606703Y-85596813D01*
X111474296Y-85667586D01*
X111436908Y-85678928D01*
X111330617Y-85711171D01*
X111274626Y-85716685D01*
X111218637Y-85722200D01*
X109721363Y-85722200D01*
X109665374Y-85716685D01*
X109609383Y-85711171D01*
X109503092Y-85678928D01*
X109465704Y-85667586D01*
X109333297Y-85596813D01*
X109217236Y-85501564D01*
X109121987Y-85385503D01*
X109051214Y-85253096D01*
X109039872Y-85215708D01*
X109007629Y-85109417D01*
X108992913Y-84960000D01*
X109007629Y-84810583D01*
X109051213Y-84666908D01*
X109051214Y-84666904D01*
X109121987Y-84534497D01*
X109217236Y-84418436D01*
X109333297Y-84323187D01*
X109465704Y-84252414D01*
X109503092Y-84241072D01*
X109609383Y-84208829D01*
X109665374Y-84203314D01*
X109721363Y-84197800D01*
X111218637Y-84197800D01*
X111274626Y-84203314D01*
G37*
G36*
X105888674Y-82503465D02*
G01*
X105926367Y-82514899D01*
X105961103Y-82533466D01*
X105991548Y-82558452D01*
X106016534Y-82588897D01*
X106035101Y-82623633D01*
X106046535Y-82661326D01*
X106051000Y-82706661D01*
X106051000Y-83543339D01*
X106046535Y-83588674D01*
X106035101Y-83626367D01*
X106016534Y-83661103D01*
X105991548Y-83691548D01*
X105961103Y-83716534D01*
X105926367Y-83735101D01*
X105888674Y-83746535D01*
X105843339Y-83751000D01*
X104756661Y-83751000D01*
X104711326Y-83746535D01*
X104673633Y-83735101D01*
X104638897Y-83716534D01*
X104608452Y-83691548D01*
X104583466Y-83661103D01*
X104564899Y-83626367D01*
X104553465Y-83588674D01*
X104549000Y-83543339D01*
X104549000Y-82706661D01*
X104553465Y-82661326D01*
X104564899Y-82623633D01*
X104583466Y-82588897D01*
X104608452Y-82558452D01*
X104638897Y-82533466D01*
X104673633Y-82514899D01*
X104711326Y-82503465D01*
X104756661Y-82499000D01*
X105843339Y-82499000D01*
X105888674Y-82503465D01*
G37*
G36*
X134134626Y-81663315D02*
G01*
X134190617Y-81668829D01*
X134279428Y-81695770D01*
X134334296Y-81712414D01*
X134466703Y-81783187D01*
X134582764Y-81878436D01*
X134678013Y-81994497D01*
X134748786Y-82126904D01*
X134748787Y-82126908D01*
X134792371Y-82270583D01*
X134807087Y-82420000D01*
X134792371Y-82569417D01*
X134764490Y-82661326D01*
X134748786Y-82713096D01*
X134678013Y-82845503D01*
X134582764Y-82961564D01*
X134466703Y-83056813D01*
X134334296Y-83127586D01*
X134296908Y-83138928D01*
X134190617Y-83171171D01*
X134134626Y-83176686D01*
X134078637Y-83182200D01*
X132581363Y-83182200D01*
X132525374Y-83176686D01*
X132469383Y-83171171D01*
X132363092Y-83138928D01*
X132325704Y-83127586D01*
X132193297Y-83056813D01*
X132077236Y-82961564D01*
X131981987Y-82845503D01*
X131911214Y-82713096D01*
X131895510Y-82661326D01*
X131867629Y-82569417D01*
X131852913Y-82420000D01*
X131867629Y-82270583D01*
X131911213Y-82126908D01*
X131911214Y-82126904D01*
X131981987Y-81994497D01*
X132077236Y-81878436D01*
X132193297Y-81783187D01*
X132325704Y-81712414D01*
X132380572Y-81695770D01*
X132469383Y-81668829D01*
X132525374Y-81663315D01*
X132581363Y-81657800D01*
X134078637Y-81657800D01*
X134134626Y-81663315D01*
G37*
G36*
X111274626Y-81663315D02*
G01*
X111330617Y-81668829D01*
X111419428Y-81695770D01*
X111474296Y-81712414D01*
X111606703Y-81783187D01*
X111722764Y-81878436D01*
X111818013Y-81994497D01*
X111888786Y-82126904D01*
X111888787Y-82126908D01*
X111932371Y-82270583D01*
X111947087Y-82420000D01*
X111932371Y-82569417D01*
X111904490Y-82661326D01*
X111888786Y-82713096D01*
X111818013Y-82845503D01*
X111722764Y-82961564D01*
X111606703Y-83056813D01*
X111474296Y-83127586D01*
X111436908Y-83138928D01*
X111330617Y-83171171D01*
X111274626Y-83176686D01*
X111218637Y-83182200D01*
X109721363Y-83182200D01*
X109665374Y-83176686D01*
X109609383Y-83171171D01*
X109503092Y-83138928D01*
X109465704Y-83127586D01*
X109333297Y-83056813D01*
X109217236Y-82961564D01*
X109121987Y-82845503D01*
X109051214Y-82713096D01*
X109035510Y-82661326D01*
X109007629Y-82569417D01*
X108992913Y-82420000D01*
X109007629Y-82270583D01*
X109051213Y-82126908D01*
X109051214Y-82126904D01*
X109121987Y-81994497D01*
X109217236Y-81878436D01*
X109333297Y-81783187D01*
X109465704Y-81712414D01*
X109520572Y-81695770D01*
X109609383Y-81668829D01*
X109665374Y-81663315D01*
X109721363Y-81657800D01*
X111218637Y-81657800D01*
X111274626Y-81663315D01*
G37*
G36*
X105888674Y-80453465D02*
G01*
X105926367Y-80464899D01*
X105961103Y-80483466D01*
X105991548Y-80508452D01*
X106016534Y-80538897D01*
X106035101Y-80573633D01*
X106046535Y-80611326D01*
X106051000Y-80656661D01*
X106051000Y-81493339D01*
X106046535Y-81538674D01*
X106035101Y-81576367D01*
X106016534Y-81611103D01*
X105991548Y-81641548D01*
X105961103Y-81666534D01*
X105926367Y-81685101D01*
X105888674Y-81696535D01*
X105843339Y-81701000D01*
X104756661Y-81701000D01*
X104711326Y-81696535D01*
X104673633Y-81685101D01*
X104638897Y-81666534D01*
X104608452Y-81641548D01*
X104583466Y-81611103D01*
X104564899Y-81576367D01*
X104553465Y-81538674D01*
X104549000Y-81493339D01*
X104549000Y-80656661D01*
X104553465Y-80611326D01*
X104564899Y-80573633D01*
X104583466Y-80538897D01*
X104608452Y-80508452D01*
X104638897Y-80483466D01*
X104673633Y-80464899D01*
X104711326Y-80453465D01*
X104756661Y-80449000D01*
X105843339Y-80449000D01*
X105888674Y-80453465D01*
G37*
G36*
X134134626Y-79123315D02*
G01*
X134190617Y-79128829D01*
X134296908Y-79161072D01*
X134334296Y-79172414D01*
X134466703Y-79243187D01*
X134582764Y-79338436D01*
X134678013Y-79454497D01*
X134748786Y-79586904D01*
X134748787Y-79586908D01*
X134792371Y-79730583D01*
X134807087Y-79880000D01*
X134792371Y-80029417D01*
X134760128Y-80135708D01*
X134748786Y-80173096D01*
X134678013Y-80305503D01*
X134582764Y-80421564D01*
X134466703Y-80516813D01*
X134334296Y-80587586D01*
X134296908Y-80598928D01*
X134190617Y-80631171D01*
X134134626Y-80636686D01*
X134078637Y-80642200D01*
X132581363Y-80642200D01*
X132525374Y-80636686D01*
X132469383Y-80631171D01*
X132363092Y-80598928D01*
X132325704Y-80587586D01*
X132193297Y-80516813D01*
X132077236Y-80421564D01*
X131981987Y-80305503D01*
X131911214Y-80173096D01*
X131899872Y-80135708D01*
X131867629Y-80029417D01*
X131852913Y-79880000D01*
X131867629Y-79730583D01*
X131911213Y-79586908D01*
X131911214Y-79586904D01*
X131981987Y-79454497D01*
X132077236Y-79338436D01*
X132193297Y-79243187D01*
X132325704Y-79172414D01*
X132363092Y-79161072D01*
X132469383Y-79128829D01*
X132525374Y-79123315D01*
X132581363Y-79117800D01*
X134078637Y-79117800D01*
X134134626Y-79123315D01*
G37*
G36*
X111274626Y-79123315D02*
G01*
X111330617Y-79128829D01*
X111436908Y-79161072D01*
X111474296Y-79172414D01*
X111606703Y-79243187D01*
X111722764Y-79338436D01*
X111818013Y-79454497D01*
X111888786Y-79586904D01*
X111888787Y-79586908D01*
X111932371Y-79730583D01*
X111947087Y-79880000D01*
X111932371Y-80029417D01*
X111900128Y-80135708D01*
X111888786Y-80173096D01*
X111818013Y-80305503D01*
X111722764Y-80421564D01*
X111606703Y-80516813D01*
X111474296Y-80587586D01*
X111436908Y-80598928D01*
X111330617Y-80631171D01*
X111274626Y-80636686D01*
X111218637Y-80642200D01*
X109721363Y-80642200D01*
X109665374Y-80636686D01*
X109609383Y-80631171D01*
X109503092Y-80598928D01*
X109465704Y-80587586D01*
X109333297Y-80516813D01*
X109217236Y-80421564D01*
X109121987Y-80305503D01*
X109051214Y-80173096D01*
X109039872Y-80135708D01*
X109007629Y-80029417D01*
X108992913Y-79880000D01*
X109007629Y-79730583D01*
X109051213Y-79586908D01*
X109051214Y-79586904D01*
X109121987Y-79454497D01*
X109217236Y-79338436D01*
X109333297Y-79243187D01*
X109465704Y-79172414D01*
X109503092Y-79161072D01*
X109609383Y-79128829D01*
X109665374Y-79123315D01*
X109721363Y-79117800D01*
X111218637Y-79117800D01*
X111274626Y-79123315D01*
G37*
G36*
X80911000Y-79641000D02*
G01*
X79109000Y-79641000D01*
X79109000Y-77839000D01*
X80911000Y-77839000D01*
X80911000Y-79641000D01*
G37*
G36*
X95643900Y-79362500D02*
G01*
X94208400Y-79362500D01*
X94208400Y-75577500D01*
X95643900Y-75577500D01*
X95643900Y-79362500D01*
G37*
G36*
X91211600Y-79362500D02*
G01*
X89776100Y-79362500D01*
X89776100Y-75577500D01*
X91211600Y-75577500D01*
X91211600Y-79362500D01*
G37*
G36*
X85678674Y-77873465D02*
G01*
X85716367Y-77884899D01*
X85751103Y-77903466D01*
X85781548Y-77928452D01*
X85806534Y-77958897D01*
X85825101Y-77993633D01*
X85836535Y-78031326D01*
X85841000Y-78076661D01*
X85841000Y-78913339D01*
X85836535Y-78958674D01*
X85825101Y-78996367D01*
X85806534Y-79031103D01*
X85781548Y-79061548D01*
X85751103Y-79086534D01*
X85716367Y-79105101D01*
X85678674Y-79116535D01*
X85633339Y-79121000D01*
X84546661Y-79121000D01*
X84501326Y-79116535D01*
X84463633Y-79105101D01*
X84428897Y-79086534D01*
X84398452Y-79061548D01*
X84373466Y-79031103D01*
X84354899Y-78996367D01*
X84343465Y-78958674D01*
X84339000Y-78913339D01*
X84339000Y-78076661D01*
X84343465Y-78031326D01*
X84354899Y-77993633D01*
X84373466Y-77958897D01*
X84398452Y-77928452D01*
X84428897Y-77903466D01*
X84463633Y-77884899D01*
X84501326Y-77873465D01*
X84546661Y-77869000D01*
X85633339Y-77869000D01*
X85678674Y-77873465D01*
G37*
G36*
X102188674Y-77873465D02*
G01*
X102226367Y-77884899D01*
X102261103Y-77903466D01*
X102291548Y-77928452D01*
X102316534Y-77958897D01*
X102335101Y-77993633D01*
X102346535Y-78031326D01*
X102351000Y-78076661D01*
X102351000Y-78913339D01*
X102346535Y-78958674D01*
X102335101Y-78996367D01*
X102316534Y-79031103D01*
X102291548Y-79061548D01*
X102261103Y-79086534D01*
X102226367Y-79105101D01*
X102188674Y-79116535D01*
X102143339Y-79121000D01*
X101056661Y-79121000D01*
X101011326Y-79116535D01*
X100973633Y-79105101D01*
X100938897Y-79086534D01*
X100908452Y-79061548D01*
X100883466Y-79031103D01*
X100864899Y-78996367D01*
X100853465Y-78958674D01*
X100849000Y-78913339D01*
X100849000Y-78076661D01*
X100853465Y-78031326D01*
X100864899Y-77993633D01*
X100883466Y-77958897D01*
X100908452Y-77928452D01*
X100938897Y-77903466D01*
X100973633Y-77884899D01*
X101011326Y-77873465D01*
X101056661Y-77869000D01*
X102143339Y-77869000D01*
X102188674Y-77873465D01*
G37*
G36*
X105998674Y-77873465D02*
G01*
X106036367Y-77884899D01*
X106071103Y-77903466D01*
X106101548Y-77928452D01*
X106126534Y-77958897D01*
X106145101Y-77993633D01*
X106156535Y-78031326D01*
X106161000Y-78076661D01*
X106161000Y-78913339D01*
X106156535Y-78958674D01*
X106145101Y-78996367D01*
X106126534Y-79031103D01*
X106101548Y-79061548D01*
X106071103Y-79086534D01*
X106036367Y-79105101D01*
X105998674Y-79116535D01*
X105953339Y-79121000D01*
X104866661Y-79121000D01*
X104821326Y-79116535D01*
X104783633Y-79105101D01*
X104748897Y-79086534D01*
X104718452Y-79061548D01*
X104693466Y-79031103D01*
X104674899Y-78996367D01*
X104663465Y-78958674D01*
X104659000Y-78913339D01*
X104659000Y-78076661D01*
X104663465Y-78031326D01*
X104674899Y-77993633D01*
X104693466Y-77958897D01*
X104718452Y-77928452D01*
X104748897Y-77903466D01*
X104783633Y-77884899D01*
X104821326Y-77873465D01*
X104866661Y-77869000D01*
X105953339Y-77869000D01*
X105998674Y-77873465D01*
G37*
G36*
X93637300Y-78994200D02*
G01*
X91782700Y-78994200D01*
X91782700Y-75945800D01*
X93637300Y-75945800D01*
X93637300Y-78994200D01*
G37*
G36*
X111274626Y-76583314D02*
G01*
X111330617Y-76588829D01*
X111436908Y-76621072D01*
X111474296Y-76632414D01*
X111606703Y-76703187D01*
X111722764Y-76798436D01*
X111818013Y-76914497D01*
X111888786Y-77046904D01*
X111894509Y-77065770D01*
X111932371Y-77190583D01*
X111947087Y-77340000D01*
X111932371Y-77489417D01*
X111920600Y-77528220D01*
X111888786Y-77633096D01*
X111818013Y-77765503D01*
X111722764Y-77881564D01*
X111606703Y-77976813D01*
X111474296Y-78047586D01*
X111436908Y-78058928D01*
X111330617Y-78091171D01*
X111274626Y-78096686D01*
X111218637Y-78102200D01*
X109721363Y-78102200D01*
X109665374Y-78096686D01*
X109609383Y-78091171D01*
X109503092Y-78058928D01*
X109465704Y-78047586D01*
X109333297Y-77976813D01*
X109217236Y-77881564D01*
X109121987Y-77765503D01*
X109051214Y-77633096D01*
X109019400Y-77528220D01*
X109007629Y-77489417D01*
X108992913Y-77340000D01*
X109007629Y-77190583D01*
X109045491Y-77065770D01*
X109051214Y-77046904D01*
X109121987Y-76914497D01*
X109217236Y-76798436D01*
X109333297Y-76703187D01*
X109465704Y-76632414D01*
X109503092Y-76621072D01*
X109609383Y-76588829D01*
X109665374Y-76583314D01*
X109721363Y-76577800D01*
X111218637Y-76577800D01*
X111274626Y-76583314D01*
G37*
G36*
X134134626Y-76583314D02*
G01*
X134190617Y-76588829D01*
X134296908Y-76621072D01*
X134334296Y-76632414D01*
X134466703Y-76703187D01*
X134582764Y-76798436D01*
X134678013Y-76914497D01*
X134748786Y-77046904D01*
X134754509Y-77065770D01*
X134792371Y-77190583D01*
X134807087Y-77340000D01*
X134792371Y-77489417D01*
X134780600Y-77528220D01*
X134748786Y-77633096D01*
X134678013Y-77765503D01*
X134582764Y-77881564D01*
X134466703Y-77976813D01*
X134334296Y-78047586D01*
X134296908Y-78058928D01*
X134190617Y-78091171D01*
X134134626Y-78096686D01*
X134078637Y-78102200D01*
X132581363Y-78102200D01*
X132525374Y-78096686D01*
X132469383Y-78091171D01*
X132363092Y-78058928D01*
X132325704Y-78047586D01*
X132193297Y-77976813D01*
X132077236Y-77881564D01*
X131981987Y-77765503D01*
X131911214Y-77633096D01*
X131879400Y-77528220D01*
X131867629Y-77489417D01*
X131852913Y-77340000D01*
X131867629Y-77190583D01*
X131905491Y-77065770D01*
X131911214Y-77046904D01*
X131981987Y-76914497D01*
X132077236Y-76798436D01*
X132193297Y-76703187D01*
X132325704Y-76632414D01*
X132363092Y-76621072D01*
X132469383Y-76588829D01*
X132525374Y-76583314D01*
X132581363Y-76577800D01*
X134078637Y-76577800D01*
X134134626Y-76583314D01*
G37*
G36*
X80123512Y-75303927D02*
G01*
X80272812Y-75333624D01*
X80436784Y-75401544D01*
X80584354Y-75500147D01*
X80709853Y-75625646D01*
X80808456Y-75773216D01*
X80876376Y-75937188D01*
X80911000Y-76111259D01*
X80911000Y-76288741D01*
X80876376Y-76462812D01*
X80808456Y-76626784D01*
X80709853Y-76774354D01*
X80584354Y-76899853D01*
X80436784Y-76998456D01*
X80272812Y-77066376D01*
X80123512Y-77096073D01*
X80098742Y-77101000D01*
X79921258Y-77101000D01*
X79896488Y-77096073D01*
X79747188Y-77066376D01*
X79583216Y-76998456D01*
X79435646Y-76899853D01*
X79310147Y-76774354D01*
X79211544Y-76626784D01*
X79143624Y-76462812D01*
X79109000Y-76288741D01*
X79109000Y-76111259D01*
X79143624Y-75937188D01*
X79211544Y-75773216D01*
X79310147Y-75625646D01*
X79435646Y-75500147D01*
X79583216Y-75401544D01*
X79747188Y-75333624D01*
X79896488Y-75303927D01*
X79921258Y-75299000D01*
X80098742Y-75299000D01*
X80123512Y-75303927D01*
G37*
G36*
X102188674Y-75823465D02*
G01*
X102226367Y-75834899D01*
X102261103Y-75853466D01*
X102291548Y-75878452D01*
X102316534Y-75908897D01*
X102335101Y-75943633D01*
X102346535Y-75981326D01*
X102351000Y-76026661D01*
X102351000Y-76863339D01*
X102346535Y-76908674D01*
X102335101Y-76946367D01*
X102316534Y-76981103D01*
X102291548Y-77011548D01*
X102261103Y-77036534D01*
X102226367Y-77055101D01*
X102188674Y-77066535D01*
X102143339Y-77071000D01*
X101056661Y-77071000D01*
X101011326Y-77066535D01*
X100973633Y-77055101D01*
X100938897Y-77036534D01*
X100908452Y-77011548D01*
X100883466Y-76981103D01*
X100864899Y-76946367D01*
X100853465Y-76908674D01*
X100849000Y-76863339D01*
X100849000Y-76026661D01*
X100853465Y-75981326D01*
X100864899Y-75943633D01*
X100883466Y-75908897D01*
X100908452Y-75878452D01*
X100938897Y-75853466D01*
X100973633Y-75834899D01*
X101011326Y-75823465D01*
X101056661Y-75819000D01*
X102143339Y-75819000D01*
X102188674Y-75823465D01*
G37*
G36*
X85678674Y-75823465D02*
G01*
X85716367Y-75834899D01*
X85751103Y-75853466D01*
X85781548Y-75878452D01*
X85806534Y-75908897D01*
X85825101Y-75943633D01*
X85836535Y-75981326D01*
X85841000Y-76026661D01*
X85841000Y-76863339D01*
X85836535Y-76908674D01*
X85825101Y-76946367D01*
X85806534Y-76981103D01*
X85781548Y-77011548D01*
X85751103Y-77036534D01*
X85716367Y-77055101D01*
X85678674Y-77066535D01*
X85633339Y-77071000D01*
X84546661Y-77071000D01*
X84501326Y-77066535D01*
X84463633Y-77055101D01*
X84428897Y-77036534D01*
X84398452Y-77011548D01*
X84373466Y-76981103D01*
X84354899Y-76946367D01*
X84343465Y-76908674D01*
X84339000Y-76863339D01*
X84339000Y-76026661D01*
X84343465Y-75981326D01*
X84354899Y-75943633D01*
X84373466Y-75908897D01*
X84398452Y-75878452D01*
X84428897Y-75853466D01*
X84463633Y-75834899D01*
X84501326Y-75823465D01*
X84546661Y-75819000D01*
X85633339Y-75819000D01*
X85678674Y-75823465D01*
G37*
G36*
X105998674Y-75823465D02*
G01*
X106036367Y-75834899D01*
X106071103Y-75853466D01*
X106101548Y-75878452D01*
X106126534Y-75908897D01*
X106145101Y-75943633D01*
X106156535Y-75981326D01*
X106161000Y-76026661D01*
X106161000Y-76863339D01*
X106156535Y-76908674D01*
X106145101Y-76946367D01*
X106126534Y-76981103D01*
X106101548Y-77011548D01*
X106071103Y-77036534D01*
X106036367Y-77055101D01*
X105998674Y-77066535D01*
X105953339Y-77071000D01*
X104866661Y-77071000D01*
X104821326Y-77066535D01*
X104783633Y-77055101D01*
X104748897Y-77036534D01*
X104718452Y-77011548D01*
X104693466Y-76981103D01*
X104674899Y-76946367D01*
X104663465Y-76908674D01*
X104659000Y-76863339D01*
X104659000Y-76026661D01*
X104663465Y-75981326D01*
X104674899Y-75943633D01*
X104693466Y-75908897D01*
X104718452Y-75878452D01*
X104748897Y-75853466D01*
X104783633Y-75834899D01*
X104821326Y-75823465D01*
X104866661Y-75819000D01*
X105953339Y-75819000D01*
X105998674Y-75823465D01*
G37*
M02*
